<?xml version="1.0" encoding="UTF-8" standalone="no"?>
<!-- Created with Inkscape (http://www.inkscape.org/) -->

<svg
   width="210mm"
   height="297mm"
   viewBox="0 0 210 297"
   version="1.1"
   id="svg1846"
   inkscape:export-filename="/home/dusjagr/Documents/SGMK/SAMD-Synthesizer/hardware/Lakhosky_Synth/case.png"
   inkscape:export-xdpi="599.95398"
   inkscape:export-ydpi="599.95398"
   inkscape:version="1.1 (c4e8f9e, 2021-05-24)"
   sodipodi:docname="lakhowsky_Case.svg"
   xmlns:inkscape="http://www.inkscape.org/namespaces/inkscape"
   xmlns:sodipodi="http://sodipodi.sourceforge.net/DTD/sodipodi-0.dtd"
   xmlns="http://www.w3.org/2000/svg"
   xmlns:svg="http://www.w3.org/2000/svg">
  <sodipodi:namedview
     id="namedview1848"
     pagecolor="#ffffff"
     bordercolor="#666666"
     borderopacity="1.0"
     inkscape:pageshadow="2"
     inkscape:pageopacity="0.0"
     inkscape:pagecheckerboard="0"
     inkscape:document-units="mm"
     showgrid="false"
     inkscape:snap-global="false"
     showguides="false"
     inkscape:zoom="1.0393815"
     inkscape:cx="280.93631"
     inkscape:cy="381.95793"
     inkscape:window-width="1864"
     inkscape:window-height="1010"
     inkscape:window-x="56"
     inkscape:window-y="33"
     inkscape:window-maximized="1"
     inkscape:current-layer="layer2" />
  <defs
     id="defs1843" />
  <g
     inkscape:groupmode="layer"
     id="layer2"
     inkscape:label="3d-case"
     style="display:inline">
    <path
       id="path12043"
       style="display:inline;fill:#ffcbcb;stroke:#ff9292;stroke-width:3;stroke-opacity:0.92266101;stop-color:#000000;fill-opacity:1"
       d="m 87.472656,38.085938 -0.215075,0.520016 -0.02907,0.479984 0.06819,0.128033 0.049,-0.03233 0.06176,0.350506 0.04957,0.342856 0.0041,0.0234 0.0037,0.02347 0.03502,0.371117 0.03529,0.378883 0.0011,0.05469 -0.0011,0.05469 -0.02332,0.390924 -0.02355,0.398138 -0.01227,0.08246 -0.01703,0.0816 -0.125013,0.414373 -0.12108,0.402033 -0.0094,0.03038 -0.0101,0.03017 -0.0028,0.0074 -0.0011,0.0024 -0.0018,0.005 -0.0021,0.0048 -8.41e-4,-9.25e-4 -0.009,0.0185 -0.03949,0.07554 -0.04254,0.07094 -0.109028,-0.08721 0.138328,0.04815 -0.412287,1.029788 -0.652166,0.886228 -0.02101,0.03448 -0.02196,0.03388 -0.592981,0.833068 -0.594519,0.834901 -0.03156,0.03864 -0.03289,0.03753 -0.667575,0.704401 -0.668363,0.705755 -0.04027,0.03888 -0.04176,0.03729 -0.762735,0.587177 -0.762656,0.586651 -0.04534,0.03017 -0.04646,0.02842 -0.867133,0.47896 -0.865289,0.478071 -0.04167,0.02021 -0.04231,0.01885 -0.986795,0.390098 -0.983908,0.389199 -0.03209,0.0121 -0.03236,0.01134 -1.124238,0.323689 -1.121856,0.322796 -0.02339,0.006 -0.02348,0.0057 -1.278749,0.277029 -1.281797,0.277659 -0.03606,0.0063 -0.03621,0.0054 -0.549017,0.06183 -0.560358,0.06317 -0.08203,0.0024 -0.08203,-0.0024 -0.548076,-0.06442 -0.547627,-0.06449 -0.07864,-0.01637 -0.07761,-0.02074 -0.519222,-0.184426 -0.51984,-0.184715 -0.07529,-0.03496 -0.07314,-0.03926 -0.409221,-0.183968 -0.352498,-0.306267 0.152554,-0.06685 0.05643,0.06685 -0.216339,-0.05169 -0.205536,-0.08503 -1.664206,-1.266457 -2.699075,-1.895652 -2.118051,-1.199769 -2.114371,-0.964294 -2.144494,-0.73702 -2.193397,-0.520792 -2.085716,-0.338666 -2.545143,-0.06954 -3.822775,0.363476 -4.116678,0.929493 -3.618709,1.535308 -3.29926,2.066254 -2.927594,2.540689 -2.486469,2.976889 -2.058627,3.682132 -1.345669,3.372556 -0.399853,1.667882 -0.07671,1.216883 -0.109809,1.815555 -0.02105,1.938352 0.05381,1.966182 0.129784,1.902958 0.17384,1.684722 0.271473,1.565278 0.40472,1.461848 0.560124,1.434637 0.773331,1.498301 L 29.75,81.25 l 1.157185,1.501571 1.344768,1.473038 1.541258,1.443133 1.689211,1.338117 1.781892,1.15526 1.872405,1.00099 1.955106,0.841876 2.003878,0.710859 2.033409,0.604191 2.023232,0.514949 2.052351,0.496768 1.832414,0.348936 1.507429,0.08834 0.750384,-0.0083 0.06463,0.0063 0.06428,0.0093 1.138055,0.249398 1.143195,0.250602 0.0819,0.02589 0.08021,0.03075 1.05341,0.516403 1.057918,0.518754 0.08915,0.05733 0.08467,0.06377 0.904973,0.843604 0.905574,0.843896 0.0706,0.08241 0.06416,0.08752 0.626249,1.103045 0.625704,1.102033 0.0416,0.0953 0.03457,0.09806 0.277042,1.19488 0.275693,1.189887 0.01121,0.0828 0.0064,0.0832 -0.007,1.24407 -0.0067,1.23835 -0.0036,0.0607 -0.0062,0.0604 -0.196354,1.00144 -0.235286,1.44192 -0.02365,0.66463 0.01585,0.5131 -0.0044,0.62366 -0.0034,0.63025 -0.0014,0.6206 0.0014,0.60987 0.0052,0.6244 0.0084,0.54357 0.0092,0.32958 0.01036,0.2544 0.01341,0.28662 0.01589,0.27979 0.0188,0.27063 0.02026,0.25866 0.0217,0.2555 0.01932,0.21521 0.01116,0.12121 0.0084,0.0858 0.0099,0.0966 0.0096,0.0909 0.009,0.0841 0.0085,0.078 0.0099,0.0876 0.0057,0.0511 6e-6,0.004 -6e-6,0.004 0.0018,0.0147 0.0021,0.0185 1.44e-4,0.005 -1.44e-4,10e-4 -8.3e-5,9.9e-4 8.3e-5,0.001 -0.0339,-0.0996 0.0359,0.10559 0.236755,0.71721 0.329651,0.92341 0.3502,0.83203 0.388081,0.82227 0.418766,0.79769 0.446469,0.76676 0.382144,0.61968 0.574887,0.78852 1.133699,1.37922 1.37802,1.445 1.330093,1.09952 1.427719,0.92783 1.569169,0.79369 1.747237,0.61451 2.896371,0.56349 2.730656,0.26582 0.574264,-0.0324 -0.07231,10e-4 0.262208,-0.0181 0.267089,-0.019 0.270019,-0.0193 0.270996,-0.0198 0.270264,-0.0203 0.266845,-0.0207 0.260254,-0.0213 0.253418,-0.0217 0.246094,-0.0221 0.236328,-0.0228 0.224856,-0.0243 0.210691,-0.0245 0.195563,-0.024 0.173578,-0.0229 0.147239,-0.0213 0.112526,-0.0178 -0.02257,0.0103 0.114373,-0.0279 0.582691,-0.17014 0.751294,-0.24979 0.721334,-0.27605 0.735697,-0.31184 0.735987,-0.34036 0.715185,-0.36081 0.678291,-0.36766 0.614677,-0.37843 0.460354,-0.34837 0.486912,-0.42116 0.708655,-0.63904 0.773767,-0.7301 0.775417,-0.7554 0.708958,-0.72507 0.558771,-0.61601 0.408026,-0.49337 0.187582,-0.2669 0.122965,-0.20771 0.191987,-0.32044 0.20645,-0.35925 0.213199,-0.38278 0.216489,-0.40042 0.227642,-0.43434 0.198139,-0.38597 0.11345,-0.22459 0.08382,-0.16994 0.09461,-0.19483 0.09094,-0.18994 0.08643,-0.18164 0.08153,-0.17383 0.07605,-0.16564 0.07043,-0.15662 0.06485,-0.14658 0.05819,-0.13662 0.05254,-0.13382 0.04121,-0.10837 0.0095,-0.0628 0.02172,-0.0173 0.01379,0.073 -0.01379,0.0676 9.05e-4,0.005 0.0011,-0.007 0.0032,-0.0481 0.0046,-0.0476 7.62e-4,0.028 -7.62e-4,0.0384 5.37e-4,0.005 0.0015,-0.0165 0.0095,-0.0771 0.01788,-0.0909 0.02203,-0.0732 0.01899,-0.0518 -0.0044,0.007 -0.01511,0.032 -0.009,0.0252 -0.0046,0.0139 9.88e-4,-0.006 10e-4,-0.006 8.81e-4,-0.003 0.0011,-0.003 5.75e-4,-0.002 0.0014,-0.004 0.0057,-0.0166 0.006,-0.0166 0.422829,-1.07306 0.711936,-1.84881 0.736048,-2.04347 0.449499,-1.27489 0.01879,-0.0443 0.02027,-0.0436 0.69594,-1.35127 0.712266,-1.38311 0.11772,-0.14711 0.13619,-0.13023 0.87638,-0.55665 0.92244,-0.58593 0.37834,-0.058 0.37948,0.05 0.99039,0.6017 0.94125,0.57213 0.13198,0.11918 0.11606,0.13472 0.82591,1.42323 0.81081,1.39708 0.0265,0.0532 0.0243,0.0542 0.63313,1.67668 0.63055,1.66902 0.009,0.0253 0.008,0.0255 0.43767,0.9816 0.22054,1.26254 -0.4304,0.1435 -0.10281,-0.1435 0.37258,0.18186 0.2993,0.28689 0.17774,0.50156 0.29296,0.76993 0.36276,0.82688 0.41849,0.8821 0.44895,0.89085 0.45144,0.82985 0.26746,0.51876 0.51379,0.71171 1.34805,1.45047 1.78281,1.55539 1.9152,1.23773 2.06527,1.01813 2.14673,0.78458 2.16772,0.51425 2.08443,0.2074 2.04057,-0.0629 2.02768,-0.33358 1.94889,-0.55314 1.82098,-0.70916 1.70636,-0.88264 1.58689,-1.0548 1.46975,-1.22449 1.37663,-1.41536 1.20931,-1.54167 0.96883,-1.57911 0.78312,-1.67675 0.62455,-1.83628 0.44381,-1.92349 0.26269,-1.96722 0.0693,-1.98395 -0.23524,-2.40502 -0.2257,-1.48365 0.0364,-0.24472 0.0808,-0.2377 0.0246,-0.0394 -0.0109,0.014 0.0249,0.13466 -0.18314,0.0997 -0.25987,-0.69223 -0.0565,-0.66715 -0.009,-0.0526 -0.007,-0.0529 -0.07,-0.89277 -0.0706,-0.89825 -6e-5,-0.0752 0.004,-0.0751 0.12286,-0.93541 0.12323,-0.939599 0.0206,-0.08962 0.0263,-0.08811 0.38606,-0.950554 0.38738,-0.953743 0.0504,-0.0928 0.0571,-0.08884 0.73287,-0.90083 0.73392,-0.901905 0.0801,-0.07745 0.0859,-0.07099 0.95335,-0.623382 0.94899,-0.620759 0.0808,-0.04266 0.0833,-0.03742 1.07983,-0.362903 1.07642,-0.361706 0.0747,-0.01862 0.0756,-0.01458 1.12193,-0.122623 1.11244,-0.121517 0.039,-0.0025 0.0391,-0.0014 0.0231,1.9e-5 0.0257,-1.9e-5 0.0298,3.7e-5 0.0211,-3.7e-5 0.0147,-7.5e-5 0.0146,7.5e-5 0.0192,7.87e-4 0.0277,0.0012 0.0309,0.0013 0.0199,7.45e-4 0.005,-9e-6 0.005,9e-6 1.06422,0.0605 1.62718,0.08208 0.95915,0.04517 0.86116,-0.0022 0.87635,-0.08004 1.02014,-0.17582 1.48198,-0.354825 1.477,-0.430331 0.99185,-0.348259 0.89878,-0.386116 1.06456,-0.531446 1.12099,-0.63457 1.16327,-0.729566 1.18438,-0.819262 1.18544,-0.900574 1.17198,-0.976379 1.14312,-1.044973 1.09907,-1.105418 1.04073,-1.155858 0.96708,-1.19961 0.87897,-1.234022 0.77728,-1.260119 0.59972,-1.082581 0.5995,-1.47406 0.76027,-2.627093 0.57762,-3.077985 0.18356,-3.004354 -0.16016,-3.026896 -0.50533,-2.984823 -0.86967,-2.89213 -1.26854,-2.727903 -1.58888,-2.545534 -1.86656,-2.355816 -2.06508,-2.101216 -2.13512,-1.799222 -2.28285,-1.487887 -2.44348,-1.140764 -2.65027,-0.790877 -3.16732,-0.36265 -2.89909,-0.05141 -1.74603,0.08203 -1.28131,0.142578 -1.25727,0.12651 -1.11383,0.146928 -0.98663,0.173548 -0.89227,0.207311 -0.82245,0.248723 -0.79083,0.300105 -0.79323,0.366548 -0.82591,0.443999 -0.89235,0.538757 -0.97875,0.640931 -1.09066,0.751815 -1.22379,0.873185 -1.79559,1.304602 -1.14582,0.839929 -0.0319,0.02192 -0.0325,0.02105 -0.44896,0.259347 -0.45729,0.26409 -0.0695,0.03314 -0.0711,0.02936 -0.49317,0.157346 -0.49316,0.157107 -0.0748,0.01666 -0.0756,0.01264 -0.51472,0.04961 -0.51458,0.05 -0.0762,0.002 -0.0762,-0.002 -0.52695,-0.06222 -0.51212,-0.06083 -0.0166,-0.0029 -0.0166,-0.003 -1.75582,-0.291898 -1.75785,-0.292086 -0.0244,-0.0047 -0.0244,-0.0051 -1.41129,-0.336539 -1.41488,-0.337289 -0.0383,-0.01022 -0.0379,-0.01126 -1.12592,-0.402511 -1.12994,-0.40413 -0.0522,-0.02241 -0.0513,-0.02446 -0.90119,-0.492504 -0.9035,-0.493824 -0.0566,-0.03678 -0.0548,-0.03939 -0.72668,-0.598846 -0.72645,-0.598419 -0.0479,-0.04483 -0.0458,-0.04697 -0.59258,-0.703126 -0.58906,-0.699218 -0.0269,-0.03572 -0.0258,-0.03655 -0.52398,-0.808107 -0.52095,-0.803221 -0.0118,-0.01846 -0.0116,-0.01864 -0.43586,-0.810097 -0.59149,-1.014122 -0.0796,-0.104158 0.0776,0.102158 -0.002,-0.0048 -0.008,-0.01474 -0.0212,-0.0407 -0.0198,-0.04133 -0.007,-0.01504 -0.003,-0.0045 -0.002,-0.0037 -0.002,-0.0061 -0.007,-0.01948 -0.007,-0.01958 -0.1407,-0.41965 -0.1464,-0.435819 -0.0203,-0.08637 -0.0149,-0.08746 -0.0323,-0.420411 -0.0321,-0.413573 -0.001,-0.06152 0.001,-0.06152 0.0375,-0.397793 0.0367,-0.389316 0.004,-0.02738 0.004,-0.02731 0.0629,-0.362529 0.0621,-0.356221 9.4e-4,-0.002 10e-4,-0.002 0.0226,-0.124877 0.0359,-0.201295 -0.12565,-0.0757 -1.6465,-0.484585 -1.6243,-0.01477 -4.0781,-0.07142 h -2.98103 -4.54827 l -3.777195,7.8e-5 -3.752106,-7.8e-5 -4.516186,-0.107628 z"
       sodipodi:nodetypes="ccccccccccccccccccccccccccccccccccccccccccccccccccccccccccccccccccccccccccccccccccccccccccccccccccccccccccccccccccccccccccccccccccccccccccccccccccccccccccccccccccccccccccccccccccccccccccccccccccccccccccccccccccccccccccccccccccccccccccccccccccccccccccccccccccccccccccccccccccccccccccccccccccccccccccccccccccccccccccccccccccccccccccccccccccccccccccccccccccccccccccccccccccccccccccccccccccccccccccccccccccccccccccccccccccccccccccccccccccccccccccccccccccccccccccccccccccccccccccccccccccccccccccccccccccccccccccccccccccccccccccccccccccccccccccccccc"
       inkscape:export-filename="/home/dusjagr/Documents/SGMK/SAMD-Synthesizer/hardware/Lakhosky_Synth/case.png"
       inkscape:export-xdpi="599.95398"
       inkscape:export-ydpi="599.95398" />
    <path
       id="path2416"
       style="color:#000000;fill:#ff0000;fill-opacity:0.922661;stroke-width:3.77953;stroke-linecap:round;stroke-linejoin:round;-inkscape-stroke:none"
       d="m 190.88867,169.10352 c -49.4928,0 -89.67578,40.18297 -89.67578,89.67578 0,49.4928 40.18298,89.67578 89.67578,89.67578 10.39065,0 20.3681,-1.77673 29.65235,-5.0332 l -3.02344,-4.94141 c -8.36682,2.79046 -17.31855,4.30469 -26.62891,4.30469 -46.42889,0 -84.00586,-37.57697 -84.00586,-84.00586 0,-46.4289 37.57697,-84.00586 84.00586,-84.00586 46.4289,0 84.00586,37.57696 84.00586,84.00586 0,27.70776 -13.38641,52.25919 -34.04687,67.55664 l 2.95312,4.82422 c 22.28004,-16.32216 36.76367,-42.67179 36.76367,-72.38086 0,-49.49281 -40.18297,-89.67578 -89.67578,-89.67578 z"
       transform="scale(0.26458333)" />
    <path
       id="path3965"
       style="color:#000000;fill:#ff0000;fill-opacity:0.922661;stroke-width:1;stroke-linecap:round;stroke-linejoin:round;-inkscape-stroke:none"
       d="m 154.60391,44.741972 c 13.09497,0 23.72671,10.631744 23.72671,23.726717 0,13.09497 -10.63174,23.726716 -23.72671,23.726716 -2.7492,0 -5.38906,-0.470093 -7.84552,-1.3317 l 0.79995,-1.307415 c 2.21372,0.738309 4.5822,1.138949 7.04557,1.138949 12.28431,0 22.22655,-9.94224 22.22655,-22.22655 0,-12.284313 -9.94224,-22.22655 -22.22655,-22.22655 -12.28432,0 -22.22655,9.942237 -22.22655,22.22655 0,7.331011 3.54182,13.82691 9.00823,17.874361 l -0.78135,1.276408 c -5.89492,-4.318572 -9.72705,-11.290244 -9.72705,-19.150769 0,-13.094973 10.63174,-23.726717 23.72672,-23.726717 z" />
    <path
       id="path4047"
       style="color:#000000;fill:#ff0000;fill-opacity:0.922661;stroke-width:0.705448;stroke-linecap:round;stroke-linejoin:round;-inkscape-stroke:none"
       d="m 62.398447,109.58065 c 0,9.23782 7.500138,16.73796 16.737949,16.73796 9.23781,0 16.737961,-7.50014 16.737961,-16.73796 0,-1.93941 -0.331632,-3.8017 -0.939452,-5.5346 l -0.922309,0.56433 c 0.520838,1.56166 0.803472,3.2325 0.803472,4.97027 0,8.66594 -7.013733,15.67967 -15.679672,15.67967 -8.66594,0 -15.67966,-7.01373 -15.67966,-15.67967 0,-8.66593 7.01372,-15.679658 15.67966,-15.679658 5.171645,0 9.754155,2.498569 12.609425,6.354838 l 0.900431,-0.551196 c -3.046513,-4.158567 -7.964666,-6.861931 -13.509856,-6.861931 -9.237811,0 -16.737949,7.500137 -16.737949,16.737947 z" />
    <path
       id="path4131"
       style="color:#000000;fill:#ff0000;fill-opacity:0.922661;stroke-width:0.705448;stroke-linecap:round;stroke-linejoin:round;-inkscape-stroke:none"
       d="m 142.59406,109.58065 c 0,9.23782 -7.50014,16.73796 -16.73795,16.73796 -9.23781,0 -16.73796,-7.50014 -16.73796,-16.73796 0,-1.93941 0.33163,-3.8017 0.93945,-5.5346 l 0.92231,0.56433 c -0.52084,1.56166 -0.80347,3.2325 -0.80347,4.97027 0,8.66594 7.01373,15.67967 15.67967,15.67967 8.66594,0 15.67966,-7.01373 15.67966,-15.67967 0,-8.66593 -7.01372,-15.679658 -15.67966,-15.679658 -5.17165,0 -9.75416,2.498569 -12.60943,6.354838 l -0.90043,-0.551196 c 3.04652,-4.158567 7.96467,-6.861931 13.50986,-6.861931 9.23781,0 16.73795,7.500137 16.73795,16.737947 z" />
  </g>
  <g
     inkscape:label="Layer 1"
     inkscape:groupmode="layer"
     id="layer1"
     style="display:none">
    <g
       id="g28180"
       transform="matrix(0.12880175,0.32096799,-0.32096799,0.12880175,210.43078,7.356042)"
       style="display:inline;opacity:1;fill:#000000;stroke:none">
      <g
         id="g28178"
         transform="rotate(-132.70589,104.64227,215.82279)"
         style="fill:#000000;stroke:none">
        <path
           id="path28154"
           style="color:#000000;fill:#000000;fill-opacity:0.922661;stroke:none;stroke-width:0.923207;stroke-linecap:round;stroke-linejoin:round;-inkscape-stroke:none"
           d="m 105.49923,154.7634 c -26.45387,-0.10311 -50.222792,17.02174 -58.349747,42.42624 a 6.1977825,6.1977825 0 0 0 -4.215954,5.86809 6.1977825,6.1977825 0 0 0 6.197745,6.19775 6.1977825,6.1977825 0 0 0 6.197747,-6.19775 6.1977825,6.1977825 0 0 0 -1.265693,-3.75224 c 7.828694,-24.35685 31.856953,-40.0007 57.604552,-36.93124 26.97357,3.21502 47.28529,25.95214 47.45324,53.11666 0.16783,27.16467 -19.86129,50.1482 -46.79344,53.69727 -26.779693,3.52931 -51.943366,-13.27037 -58.987128,-39.29804 a 6.1977825,6.1977825 0 0 0 1.988469,-4.54848 6.1977825,6.1977825 0 0 0 -6.197747,-6.19775 6.1977825,6.1977825 0 0 0 -6.197745,6.19775 6.1977825,6.1977825 0 0 0 3.242712,5.44348 3.614352,3.614352 0 0 0 0.04866,0.49044 c 7.783396,29.7519 36.557229,49.0984 67.045969,45.08024 30.48864,-4.01772 53.26895,-30.15841 53.07896,-60.91023 -0.19012,-30.75173 -23.29163,-56.61035 -53.8275,-60.24996 -1.90853,-0.22752 -3.80957,-0.36429 -5.69777,-0.41267 -0.44255,-0.0113 -0.88422,-0.0178 -1.32533,-0.0196 z" />
        <path
           id="path28156"
           style="color:#000000;fill:#000000;fill-opacity:0.922661;stroke:none;stroke-width:0.73372;stroke-linecap:round;stroke-linejoin:round;-inkscape-stroke:none"
           d="m 103.96122,264.34981 c 21.02424,0.0819 39.91463,-13.52806 46.37354,-33.71833 a 4.9256958,4.9256958 0 0 0 3.35062,-4.66366 4.9256958,4.9256958 0 0 0 -4.92565,-4.92568 4.9256958,4.9256958 0 0 0 -4.92568,4.92568 4.9256958,4.9256958 0 0 0 1.00592,2.98209 c -6.22188,19.35765 -25.31836,31.79062 -45.781292,29.35115 -21.437281,-2.55514 -37.580051,-20.62549 -37.713516,-42.21453 -0.133386,-21.58917 15.784782,-39.85536 37.189138,-42.67598 21.28319,-2.80492 41.28205,10.54665 46.8801,31.23217 a 4.9256958,4.9256958 0 0 0 -1.58035,3.6149 4.9256958,4.9256958 0 0 0 4.92568,4.92568 4.9256958,4.9256958 0 0 0 4.92565,-4.92568 4.9256958,4.9256958 0 0 0 -2.57715,-4.3262 2.8725111,2.8725111 0 0 0 -0.0386,-0.38979 c -6.18586,-23.64535 -29.0539,-39.02101 -53.284862,-35.82756 -24.230891,3.19308 -42.335572,23.96843 -42.184581,48.40847 0.151108,24.43999 18.511056,44.99116 42.779485,47.88374 1.5168,0.18083 3.027658,0.28953 4.528298,0.32798 0.35171,0.009 0.70274,0.0142 1.05332,0.0156 z" />
        <path
           id="path28158"
           style="color:#000000;fill:#000000;fill-opacity:0.922661;stroke:none;stroke-width:0.559749;stroke-linecap:round;stroke-linejoin:round;-inkscape-stroke:none"
           d="m 105.16183,178.80183 c -16.039245,-0.0625 -30.450592,10.32046 -35.378042,25.72348 a 3.7577795,3.7577795 0 0 0 -2.556181,3.55787 3.7577795,3.7577795 0 0 0 3.757755,3.75776 3.7577795,3.7577795 0 0 0 3.757763,-3.75776 3.7577795,3.7577795 0 0 0 -0.767405,-2.27502 c 4.74662,-14.76782 19.3152,-24.25283 34.92623,-22.39179 16.35436,1.94931 28.66958,15.73506 28.77139,32.20518 0.10175,16.47024 -12.04211,30.40538 -28.37134,32.55722 -16.236804,2.13985 -31.493799,-8.04596 -35.764511,-23.82681 a 3.7577795,3.7577795 0 0 0 1.205636,-2.75779 3.7577795,3.7577795 0 0 0 -3.757763,-3.75776 3.7577795,3.7577795 0 0 0 -3.757755,3.75776 3.7577795,3.7577795 0 0 0 1.966088,3.30044 2.191419,2.191419 0 0 0 0.02954,0.29736 c 4.719143,18.03889 22.165023,29.76887 40.650655,27.33262 18.48558,-2.43599 32.29752,-18.28536 32.18233,-36.93051 -0.11528,-18.6451 -14.12195,-34.32345 -32.63618,-36.53018 -1.15715,-0.13795 -2.30978,-0.22087 -3.45461,-0.25021 -0.26832,-0.007 -0.5361,-0.0109 -0.80356,-0.0119 z" />
        <path
           id="path28160"
           style="color:#000000;fill:#000000;fill-opacity:0.922661;stroke:none;stroke-width:0.429622;stroke-linecap:round;stroke-linejoin:round;-inkscape-stroke:none"
           d="m 104.24349,244.23725 c 12.3105,0.048 23.37154,-7.92119 27.15349,-19.74338 a 2.8841852,2.8841852 0 0 0 1.96193,-2.73075 2.8841852,2.8841852 0 0 0 -2.88418,-2.88418 2.8841852,2.8841852 0 0 0 -2.88416,2.88418 2.8841852,2.8841852 0 0 0 0.589,1.74613 c -3.64314,11.33465 -14.82488,18.61463 -26.80671,17.18623 -12.552368,-1.49613 -22.004587,-12.07702 -22.082727,-24.71825 -0.07808,-12.64129 9.242598,-23.33685 21.775667,-24.98843 12.46214,-1.64239 24.17224,6.17547 27.45012,18.28764 a 2.8841852,2.8841852 0 0 0 -0.92535,2.11667 2.8841852,2.8841852 0 0 0 2.88416,2.88417 2.8841852,2.8841852 0 0 0 2.88418,-2.88417 2.8841852,2.8841852 0 0 0 -1.50902,-2.53316 1.6819663,1.6819663 0 0 0 -0.0226,-0.22823 c -3.62205,-13.84528 -17.01218,-22.84832 -31.20034,-20.97843 -14.18812,1.86967 -24.789105,14.03443 -24.700708,28.34504 0.08851,14.31055 10.838947,26.34406 25.049048,28.03777 0.88814,0.10588 1.77281,0.16953 2.6515,0.19205 0.20594,0.006 0.41147,0.008 0.61675,0.009 z" />
        <path
           id="path28162"
           style="color:#000000;fill:#000000;fill-opacity:0.922661;stroke:none;stroke-width:0.329958;stroke-linecap:round;stroke-linejoin:round;-inkscape-stroke:none"
           d="m 104.94859,194.00012 c -9.454723,-0.0368 -17.949844,6.08364 -20.854454,15.16334 a 2.2151149,2.2151149 0 0 0 -1.506811,2.09726 2.2151149,2.2151149 0 0 0 2.215104,2.21512 2.2151149,2.2151149 0 0 0 2.215104,-2.21512 2.2151149,2.2151149 0 0 0 -0.452362,-1.34105 c 2.798007,-8.70526 11.385819,-14.29643 20.588119,-13.1994 9.64047,1.14907 16.89998,9.27542 16.95999,18.98414 0.0599,9.70878 -7.09851,17.9232 -16.72417,19.19165 -9.571182,1.26138 -18.564789,-4.74289 -21.082261,-14.04529 a 2.2151149,2.2151149 0 0 0 0.710684,-1.62566 2.2151149,2.2151149 0 0 0 -2.215104,-2.2151 2.2151149,2.2151149 0 0 0 -2.215104,2.2151 2.2151149,2.2151149 0 0 0 1.158965,1.94553 1.2917855,1.2917855 0 0 0 0.01736,0.17528 c 2.781814,10.63347 13.065721,17.54799 23.96251,16.11188 10.89678,-1.43595 19.03856,-10.77875 18.97067,-21.76958 -0.068,-10.99082 -8.32454,-20.2328 -19.23819,-21.53361 -0.68211,-0.0813 -1.36156,-0.1302 -2.03641,-0.14749 -0.15817,-0.005 -0.31602,-0.006 -0.47368,-0.007 z" />
        <path
           id="path28164"
           style="color:#000000;fill:#000000;fill-opacity:0.922661;stroke:none;stroke-width:0.243829;stroke-linecap:round;stroke-linejoin:round;-inkscape-stroke:none"
           d="m 104.41595,231.94918 c 6.98674,0.0272 13.26438,-4.49561 15.41079,-11.20523 a 1.6369008,1.6369008 0 0 0 1.11348,-1.54981 1.6369008,1.6369008 0 0 0 -1.63689,-1.6369 1.6369008,1.6369008 0 0 0 -1.63689,1.6369 1.6369008,1.6369008 0 0 0 0.33429,0.991 c -2.06764,6.43291 -8.41377,10.56461 -15.21398,9.75394 -7.124014,-0.84913 -12.488561,-6.85424 -12.532912,-14.02868 -0.04431,-7.17449 5.245583,-13.24469 12.358652,-14.18204 7.0728,-0.93212 13.71879,3.50485 15.57913,10.37904 a 1.6369008,1.6369008 0 0 0 -0.52518,1.2013 1.6369008,1.6369008 0 0 0 1.63689,1.6369 1.6369008,1.6369008 0 0 0 1.63689,-1.6369 1.6369008,1.6369008 0 0 0 -0.85644,-1.43768 0.95458918,0.95458918 0 0 0 -0.0128,-0.12953 c -2.05566,-7.8578 -9.65516,-12.96741 -17.70754,-11.90617 -8.052386,1.06111 -14.068911,7.96515 -14.018744,16.08704 0.05022,8.12187 6.151581,14.95141 14.216434,15.91266 0.50405,0.0601 1.00614,0.0962 1.50484,0.10899 0.11687,0.004 0.23353,0.005 0.35003,0.006 z" />
        <path
           id="path28166"
           style="color:#000000;fill:#000000;fill-opacity:0.922661;stroke:none;stroke-width:0.1839;stroke-linecap:round;stroke-linejoin:round;-inkscape-stroke:none"
           d="m 104.81298,203.66055 c -5.269505,-0.0206 -10.004195,3.39067 -11.623047,8.45116 a 1.2345756,1.2345756 0 0 0 -0.839813,1.16889 1.2345756,1.2345756 0 0 0 1.234567,1.23457 1.2345756,1.2345756 0 0 0 1.234567,-1.23457 1.2345756,1.2345756 0 0 0 -0.252119,-0.74742 c 1.559443,-4.8518 6.345795,-7.968 11.474615,-7.35658 5.37304,0.64043 9.41906,5.16958 9.45251,10.58065 0.0334,5.4111 -3.9563,9.98935 -9.32108,10.69631 -5.33441,0.70302 -10.34693,-2.64342 -11.750019,-7.82803 a 1.2345756,1.2345756 0 0 0 0.396093,-0.90605 1.2345756,1.2345756 0 0 0 -1.234567,-1.23456 1.2345756,1.2345756 0 0 0 -1.234567,1.23456 1.2345756,1.2345756 0 0 0 0.64594,1.08433 0.71996577,0.71996577 0 0 0 0.0097,0.0977 c 1.550423,5.92648 7.28208,9.78023 13.3553,8.97982 6.07323,-0.80031 10.61099,-6.00744 10.57315,-12.13309 -0.0379,-6.12564 -4.63961,-11.27659 -10.72224,-12.00157 -0.38017,-0.0453 -0.75885,-0.0726 -1.13497,-0.0822 -0.0882,-0.003 -0.17614,-0.004 -0.264,-0.005 z" />
        <path
           id="path28168"
           style="color:#000000;fill:#000000;fill-opacity:0.922661;stroke:none;stroke-width:0.131272;stroke-linecap:round;stroke-linejoin:round;-inkscape-stroke:none"
           d="m 104.52066,224.50427 c 3.76149,0.0147 7.1412,-2.42033 8.29677,-6.03261 a 0.88126596,0.88126596 0 0 0 0.59948,-0.83438 0.88126596,0.88126596 0 0 0 -0.88126,-0.88127 0.88126596,0.88126596 0 0 0 -0.88126,0.88127 0.88126596,0.88126596 0 0 0 0.17997,0.53352 c -1.11317,3.46332 -4.52976,5.68773 -8.19082,5.25128 -3.835384,-0.45715 -6.723524,-3.69015 -6.747398,-7.55268 -0.02382,-3.86257 2.824087,-7.13062 6.653588,-7.63526 3.80781,-0.50183 7.38585,1.88692 8.3874,5.58782 a 0.88126596,0.88126596 0 0 0 -0.28274,0.64675 0.88126596,0.88126596 0 0 0 0.88126,0.88126 0.88126596,0.88126596 0 0 0 0.88126,-0.88126 0.88126596,0.88126596 0 0 0 -0.46109,-0.77402 0.51392665,0.51392665 0 0 0 -0.007,-0.0697 c -1.10673,-4.23044 -5.19809,-6.98133 -9.53329,-6.40999 -4.335192,0.57128 -7.574344,4.28824 -7.547331,8.66086 0.02705,4.37261 3.311846,8.04946 7.653761,8.56697 0.27137,0.0324 0.54168,0.0518 0.81017,0.0586 0.063,0.002 0.12573,0.003 0.18845,0.004 z" />
        <path
           id="path28170"
           style="color:#000000;fill:#000000;fill-opacity:0.922661;stroke:none;stroke-width:0.0853274;stroke-linecap:round;stroke-linejoin:round;-inkscape-stroke:none"
           d="m 104.72151,210.17984 c -2.44499,-0.01 -4.64182,1.57322 -5.392947,3.92123 a 0.57282908,0.57282908 0 0 0 -0.389667,0.54236 0.57282908,0.57282908 0 0 0 0.572822,0.57283 0.57282908,0.57282908 0 0 0 0.572832,-0.57283 0.57282908,0.57282908 0 0 0 -0.116981,-0.3468 c 0.723561,-2.25118 2.944371,-3.69706 5.324081,-3.41337 2.49303,0.29716 4.37034,2.39863 4.38586,4.9093 0.0155,2.5107 -1.83568,4.63495 -4.32487,4.96297 -2.47511,0.3262 -4.80086,-1.22652 -5.451874,-3.63211 a 0.57282908,0.57282908 0 0 0 0.183784,-0.4204 0.57282908,0.57282908 0 0 0 -0.572832,-0.57283 0.57282908,0.57282908 0 0 0 -0.572822,0.57283 0.57282908,0.57282908 0 0 0 0.29971,0.50312 0.33405595,0.33405595 0 0 0 0.0046,0.0453 c 0.71938,2.74982 3.378784,4.53791 6.196704,4.16654 2.8179,-0.37134 4.92336,-2.78739 4.90581,-5.62962 -0.0176,-2.84223 -2.15272,-5.23221 -4.97499,-5.5686 -0.1764,-0.0211 -0.3521,-0.0337 -0.52662,-0.0381 -0.0409,-9.2e-4 -0.0817,-0.002 -0.1225,-0.003 z" />
        <path
           id="path28172"
           style="color:#000000;fill:#000000;fill-opacity:0.922661;stroke:none;stroke-width:0.184641;stroke-linecap:round;stroke-linejoin:round;stroke-miterlimit:4;stroke-dasharray:none"
           d="m 104.59151,219.43377 c 1.5646,0.006 2.9704,-1.00675 3.45106,-2.50929 a 0.36656615,0.36656615 0 0 0 0.24936,-0.34707 0.36656615,0.36656615 0 0 0 -0.36656,-0.36656 0.36656615,0.36656615 0 0 0 -0.36657,0.36656 0.36656615,0.36656615 0 0 0 0.0749,0.22192 c -0.46302,1.44058 -1.88417,2.36584 -3.407,2.1843 -1.59534,-0.19016 -2.79667,-1.53494 -2.80661,-3.14157 -0.01,-1.60665 1.17469,-2.96601 2.76758,-3.17592 1.58388,-0.20874 3.07218,0.78487 3.48878,2.32427 a 0.36656615,0.36656615 0 0 0 -0.11761,0.26903 0.36656615,0.36656615 0 0 0 0.36657,0.36655 0.36656615,0.36656615 0 0 0 0.36656,-0.36655 0.36656615,0.36656615 0 0 0 -0.19179,-0.32196 0.21376988,0.21376988 0 0 0 -0.003,-0.029 c -0.46034,-1.75967 -2.16216,-2.90391 -3.96541,-2.66626 -1.80324,0.23763 -3.15057,1.78371 -3.13934,3.60252 0.0113,1.81881 1.37758,3.3482 3.18361,3.56346 0.11288,0.0135 0.22532,0.0216 0.337,0.0244 0.0262,5.9e-4 0.0523,9.2e-4 0.0784,0.002 z" />
        <path
           id="path28174"
           style="color:#000000;fill:#000000;fill-opacity:0.922661;stroke:none;stroke-width:0.166184;stroke-linecap:round;stroke-linejoin:round;stroke-miterlimit:4;stroke-dasharray:none"
           d="m 104.67076,213.79128 c -0.88014,-0.004 -1.67095,0.56632 -1.94133,1.41155 a 0.20620408,0.20620408 0 0 0 -0.14028,0.19523 0.20620408,0.20620408 0 0 0 0.20621,0.20621 0.20620408,0.20620408 0 0 0 0.2062,-0.20621 0.20620408,0.20620408 0 0 0 -0.0421,-0.12483 c 0.26046,-0.81037 1.0599,-1.33085 1.91653,-1.22873 0.89743,0.10697 1.57322,0.86344 1.5788,1.76722 0.006,0.90379 -0.66079,1.66847 -1.55683,1.78655 -0.89099,0.11742 -1.7282,-0.44152 -1.96255,-1.30747 a 0.20620408,0.20620408 0 0 0 0.0661,-0.15133 0.20620408,0.20620408 0 0 0 -0.20621,-0.2062 0.20620408,0.20620408 0 0 0 -0.2062,0.2062 0.20620408,0.20620408 0 0 0 0.10789,0.18111 0.12025175,0.12025175 0 0 0 0.002,0.0162 c 0.25896,0.98986 1.21628,1.63353 2.23065,1.49984 1.01439,-0.13367 1.7723,-1.00339 1.76599,-2.02652 -0.006,-1.02313 -0.77494,-1.88346 -1.79088,-2.00455 -0.0635,-0.007 -0.12675,-0.0121 -0.18958,-0.0137 -0.0148,-3.3e-4 -0.0294,-5.1e-4 -0.0441,-8.3e-4 z" />
        <path
           id="path28176"
           style="color:#000000;fill:#000000;fill-opacity:0.922661;stroke:none;stroke-width:0.834354;stroke-linecap:round;stroke-linejoin:round;stroke-miterlimit:4;stroke-dasharray:none"
           d="m 104.6655,215.33891 c -0.20951,-8.3e-4 -0.39775,0.13481 -0.46211,0.336 a 0.04908422,0.04908422 42.681159 0 0 -0.0334,0.0465 0.04908422,0.04908422 42.681159 0 0 0.0491,0.0491 0.04908422,0.04908422 42.681159 0 0 0.0491,-0.0491 0.04908422,0.04908422 42.681159 0 0 -0.01,-0.0297 c 0.062,-0.19289 0.2523,-0.31678 0.45621,-0.29248 0.21362,0.0255 0.37448,0.20554 0.37581,0.42067 0.002,0.21513 -0.15729,0.39716 -0.37058,0.42526 -0.21209,0.028 -0.41138,-0.1051 -0.46716,-0.31122 a 0.04908422,0.04908422 42.681159 0 0 0.0158,-0.036 0.04908422,0.04908422 42.681159 0 0 -0.0491,-0.0491 0.04908422,0.04908422 42.681159 0 0 -0.0491,0.0491 0.04908422,0.04908422 42.681159 0 0 0.0257,0.0431 0.02862438,0.02862438 42.634398 0 0 4.7e-4,0.004 c 0.0617,0.23562 0.28952,0.38884 0.53098,0.35701 0.24147,-0.0318 0.42187,-0.23884 0.42037,-0.48238 -0.002,-0.24355 -0.18446,-0.44833 -0.42629,-0.47716 -0.0151,-0.002 -0.0302,-0.002 -0.0451,-0.003 -0.003,-7e-5 -0.007,-1.1e-4 -0.0105,-2e-4 z" />
      </g>
    </g>
    <g
       id="g28284"
       transform="matrix(-0.12880175,0.32096799,0.32096799,0.12880175,-5.1880831,7.356042)"
       style="display:inline;opacity:1;fill:#000000;stroke:none">
      <g
         id="g28282"
         transform="rotate(-132.70589,104.64227,215.82279)"
         style="fill:#000000;stroke:none">
        <path
           id="path28258"
           style="color:#000000;fill:#000000;fill-opacity:0.922661;stroke:none;stroke-width:0.923207;stroke-linecap:round;stroke-linejoin:round;-inkscape-stroke:none"
           d="m 105.49923,154.7634 c -26.45387,-0.10311 -50.222792,17.02174 -58.349747,42.42624 a 6.1977825,6.1977825 0 0 0 -4.215954,5.86809 6.1977825,6.1977825 0 0 0 6.197745,6.19775 6.1977825,6.1977825 0 0 0 6.197747,-6.19775 6.1977825,6.1977825 0 0 0 -1.265693,-3.75224 c 7.828694,-24.35685 31.856953,-40.0007 57.604552,-36.93124 26.97357,3.21502 47.28529,25.95214 47.45324,53.11666 0.16783,27.16467 -19.86129,50.1482 -46.79344,53.69727 -26.779693,3.52931 -51.943366,-13.27037 -58.987128,-39.29804 a 6.1977825,6.1977825 0 0 0 1.988469,-4.54848 6.1977825,6.1977825 0 0 0 -6.197747,-6.19775 6.1977825,6.1977825 0 0 0 -6.197745,6.19775 6.1977825,6.1977825 0 0 0 3.242712,5.44348 3.614352,3.614352 0 0 0 0.04866,0.49044 c 7.783396,29.7519 36.557229,49.0984 67.045969,45.08024 30.48864,-4.01772 53.26895,-30.15841 53.07896,-60.91023 -0.19012,-30.75173 -23.29163,-56.61035 -53.8275,-60.24996 -1.90853,-0.22752 -3.80957,-0.36429 -5.69777,-0.41267 -0.44255,-0.0113 -0.88422,-0.0178 -1.32533,-0.0196 z" />
        <path
           id="path28260"
           style="color:#000000;fill:#000000;fill-opacity:0.922661;stroke:none;stroke-width:0.73372;stroke-linecap:round;stroke-linejoin:round;-inkscape-stroke:none"
           d="m 103.96122,264.34981 c 21.02424,0.0819 39.91463,-13.52806 46.37354,-33.71833 a 4.9256958,4.9256958 0 0 0 3.35062,-4.66366 4.9256958,4.9256958 0 0 0 -4.92565,-4.92568 4.9256958,4.9256958 0 0 0 -4.92568,4.92568 4.9256958,4.9256958 0 0 0 1.00592,2.98209 c -6.22188,19.35765 -25.31836,31.79062 -45.781292,29.35115 -21.437281,-2.55514 -37.580051,-20.62549 -37.713516,-42.21453 -0.133386,-21.58917 15.784782,-39.85536 37.189138,-42.67598 21.28319,-2.80492 41.28205,10.54665 46.8801,31.23217 a 4.9256958,4.9256958 0 0 0 -1.58035,3.6149 4.9256958,4.9256958 0 0 0 4.92568,4.92568 4.9256958,4.9256958 0 0 0 4.92565,-4.92568 4.9256958,4.9256958 0 0 0 -2.57715,-4.3262 2.8725111,2.8725111 0 0 0 -0.0386,-0.38979 c -6.18586,-23.64535 -29.0539,-39.02101 -53.284862,-35.82756 -24.230891,3.19308 -42.335572,23.96843 -42.184581,48.40847 0.151108,24.43999 18.511056,44.99116 42.779485,47.88374 1.5168,0.18083 3.027658,0.28953 4.528298,0.32798 0.35171,0.009 0.70274,0.0142 1.05332,0.0156 z" />
        <path
           id="path28262"
           style="color:#000000;fill:#000000;fill-opacity:0.922661;stroke:none;stroke-width:0.559749;stroke-linecap:round;stroke-linejoin:round;-inkscape-stroke:none"
           d="m 105.16183,178.80183 c -16.039245,-0.0625 -30.450592,10.32046 -35.378042,25.72348 a 3.7577795,3.7577795 0 0 0 -2.556181,3.55787 3.7577795,3.7577795 0 0 0 3.757755,3.75776 3.7577795,3.7577795 0 0 0 3.757763,-3.75776 3.7577795,3.7577795 0 0 0 -0.767405,-2.27502 c 4.74662,-14.76782 19.3152,-24.25283 34.92623,-22.39179 16.35436,1.94931 28.66958,15.73506 28.77139,32.20518 0.10175,16.47024 -12.04211,30.40538 -28.37134,32.55722 -16.236804,2.13985 -31.493799,-8.04596 -35.764511,-23.82681 a 3.7577795,3.7577795 0 0 0 1.205636,-2.75779 3.7577795,3.7577795 0 0 0 -3.757763,-3.75776 3.7577795,3.7577795 0 0 0 -3.757755,3.75776 3.7577795,3.7577795 0 0 0 1.966088,3.30044 2.191419,2.191419 0 0 0 0.02954,0.29736 c 4.719143,18.03889 22.165023,29.76887 40.650655,27.33262 18.48558,-2.43599 32.29752,-18.28536 32.18233,-36.93051 -0.11528,-18.6451 -14.12195,-34.32345 -32.63618,-36.53018 -1.15715,-0.13795 -2.30978,-0.22087 -3.45461,-0.25021 -0.26832,-0.007 -0.5361,-0.0109 -0.80356,-0.0119 z" />
        <path
           id="path28264"
           style="color:#000000;fill:#000000;fill-opacity:0.922661;stroke:none;stroke-width:0.429622;stroke-linecap:round;stroke-linejoin:round;-inkscape-stroke:none"
           d="m 104.24349,244.23725 c 12.3105,0.048 23.37154,-7.92119 27.15349,-19.74338 a 2.8841852,2.8841852 0 0 0 1.96193,-2.73075 2.8841852,2.8841852 0 0 0 -2.88418,-2.88418 2.8841852,2.8841852 0 0 0 -2.88416,2.88418 2.8841852,2.8841852 0 0 0 0.589,1.74613 c -3.64314,11.33465 -14.82488,18.61463 -26.80671,17.18623 -12.552368,-1.49613 -22.004587,-12.07702 -22.082727,-24.71825 -0.07808,-12.64129 9.242598,-23.33685 21.775667,-24.98843 12.46214,-1.64239 24.17224,6.17547 27.45012,18.28764 a 2.8841852,2.8841852 0 0 0 -0.92535,2.11667 2.8841852,2.8841852 0 0 0 2.88416,2.88417 2.8841852,2.8841852 0 0 0 2.88418,-2.88417 2.8841852,2.8841852 0 0 0 -1.50902,-2.53316 1.6819663,1.6819663 0 0 0 -0.0226,-0.22823 c -3.62205,-13.84528 -17.01218,-22.84832 -31.20034,-20.97843 -14.18812,1.86967 -24.789105,14.03443 -24.700708,28.34504 0.08851,14.31055 10.838947,26.34406 25.049048,28.03777 0.88814,0.10588 1.77281,0.16953 2.6515,0.19205 0.20594,0.006 0.41147,0.008 0.61675,0.009 z" />
        <path
           id="path28266"
           style="color:#000000;fill:#000000;fill-opacity:0.922661;stroke:none;stroke-width:0.329958;stroke-linecap:round;stroke-linejoin:round;-inkscape-stroke:none"
           d="m 104.94859,194.00012 c -9.454723,-0.0368 -17.949844,6.08364 -20.854454,15.16334 a 2.2151149,2.2151149 0 0 0 -1.506811,2.09726 2.2151149,2.2151149 0 0 0 2.215104,2.21512 2.2151149,2.2151149 0 0 0 2.215104,-2.21512 2.2151149,2.2151149 0 0 0 -0.452362,-1.34105 c 2.798007,-8.70526 11.385819,-14.29643 20.588119,-13.1994 9.64047,1.14907 16.89998,9.27542 16.95999,18.98414 0.0599,9.70878 -7.09851,17.9232 -16.72417,19.19165 -9.571182,1.26138 -18.564789,-4.74289 -21.082261,-14.04529 a 2.2151149,2.2151149 0 0 0 0.710684,-1.62566 2.2151149,2.2151149 0 0 0 -2.215104,-2.2151 2.2151149,2.2151149 0 0 0 -2.215104,2.2151 2.2151149,2.2151149 0 0 0 1.158965,1.94553 1.2917855,1.2917855 0 0 0 0.01736,0.17528 c 2.781814,10.63347 13.065721,17.54799 23.96251,16.11188 10.89678,-1.43595 19.03856,-10.77875 18.97067,-21.76958 -0.068,-10.99082 -8.32454,-20.2328 -19.23819,-21.53361 -0.68211,-0.0813 -1.36156,-0.1302 -2.03641,-0.14749 -0.15817,-0.005 -0.31602,-0.006 -0.47368,-0.007 z" />
        <path
           id="path28268"
           style="color:#000000;fill:#000000;fill-opacity:0.922661;stroke:none;stroke-width:0.243829;stroke-linecap:round;stroke-linejoin:round;-inkscape-stroke:none"
           d="m 104.41595,231.94918 c 6.98674,0.0272 13.26438,-4.49561 15.41079,-11.20523 a 1.6369008,1.6369008 0 0 0 1.11348,-1.54981 1.6369008,1.6369008 0 0 0 -1.63689,-1.6369 1.6369008,1.6369008 0 0 0 -1.63689,1.6369 1.6369008,1.6369008 0 0 0 0.33429,0.991 c -2.06764,6.43291 -8.41377,10.56461 -15.21398,9.75394 -7.124014,-0.84913 -12.488561,-6.85424 -12.532912,-14.02868 -0.04431,-7.17449 5.245583,-13.24469 12.358652,-14.18204 7.0728,-0.93212 13.71879,3.50485 15.57913,10.37904 a 1.6369008,1.6369008 0 0 0 -0.52518,1.2013 1.6369008,1.6369008 0 0 0 1.63689,1.6369 1.6369008,1.6369008 0 0 0 1.63689,-1.6369 1.6369008,1.6369008 0 0 0 -0.85644,-1.43768 0.95458918,0.95458918 0 0 0 -0.0128,-0.12953 c -2.05566,-7.8578 -9.65516,-12.96741 -17.70754,-11.90617 -8.052386,1.06111 -14.068911,7.96515 -14.018744,16.08704 0.05022,8.12187 6.151581,14.95141 14.216434,15.91266 0.50405,0.0601 1.00614,0.0962 1.50484,0.10899 0.11687,0.004 0.23353,0.005 0.35003,0.006 z" />
        <path
           id="path28270"
           style="color:#000000;fill:#000000;fill-opacity:0.922661;stroke:none;stroke-width:0.1839;stroke-linecap:round;stroke-linejoin:round;-inkscape-stroke:none"
           d="m 104.81298,203.66055 c -5.269505,-0.0206 -10.004195,3.39067 -11.623047,8.45116 a 1.2345756,1.2345756 0 0 0 -0.839813,1.16889 1.2345756,1.2345756 0 0 0 1.234567,1.23457 1.2345756,1.2345756 0 0 0 1.234567,-1.23457 1.2345756,1.2345756 0 0 0 -0.252119,-0.74742 c 1.559443,-4.8518 6.345795,-7.968 11.474615,-7.35658 5.37304,0.64043 9.41906,5.16958 9.45251,10.58065 0.0334,5.4111 -3.9563,9.98935 -9.32108,10.69631 -5.33441,0.70302 -10.34693,-2.64342 -11.750019,-7.82803 a 1.2345756,1.2345756 0 0 0 0.396093,-0.90605 1.2345756,1.2345756 0 0 0 -1.234567,-1.23456 1.2345756,1.2345756 0 0 0 -1.234567,1.23456 1.2345756,1.2345756 0 0 0 0.64594,1.08433 0.71996577,0.71996577 0 0 0 0.0097,0.0977 c 1.550423,5.92648 7.28208,9.78023 13.3553,8.97982 6.07323,-0.80031 10.61099,-6.00744 10.57315,-12.13309 -0.0379,-6.12564 -4.63961,-11.27659 -10.72224,-12.00157 -0.38017,-0.0453 -0.75885,-0.0726 -1.13497,-0.0822 -0.0882,-0.003 -0.17614,-0.004 -0.264,-0.005 z" />
        <path
           id="path28272"
           style="color:#000000;fill:#000000;fill-opacity:0.922661;stroke:none;stroke-width:0.131272;stroke-linecap:round;stroke-linejoin:round;-inkscape-stroke:none"
           d="m 104.52066,224.50427 c 3.76149,0.0147 7.1412,-2.42033 8.29677,-6.03261 a 0.88126596,0.88126596 0 0 0 0.59948,-0.83438 0.88126596,0.88126596 0 0 0 -0.88126,-0.88127 0.88126596,0.88126596 0 0 0 -0.88126,0.88127 0.88126596,0.88126596 0 0 0 0.17997,0.53352 c -1.11317,3.46332 -4.52976,5.68773 -8.19082,5.25128 -3.835384,-0.45715 -6.723524,-3.69015 -6.747398,-7.55268 -0.02382,-3.86257 2.824087,-7.13062 6.653588,-7.63526 3.80781,-0.50183 7.38585,1.88692 8.3874,5.58782 a 0.88126596,0.88126596 0 0 0 -0.28274,0.64675 0.88126596,0.88126596 0 0 0 0.88126,0.88126 0.88126596,0.88126596 0 0 0 0.88126,-0.88126 0.88126596,0.88126596 0 0 0 -0.46109,-0.77402 0.51392665,0.51392665 0 0 0 -0.007,-0.0697 c -1.10673,-4.23044 -5.19809,-6.98133 -9.53329,-6.40999 -4.335192,0.57128 -7.574344,4.28824 -7.547331,8.66086 0.02705,4.37261 3.311846,8.04946 7.653761,8.56697 0.27137,0.0324 0.54168,0.0518 0.81017,0.0586 0.063,0.002 0.12573,0.003 0.18845,0.004 z" />
        <path
           id="path28274"
           style="color:#000000;fill:#000000;fill-opacity:0.922661;stroke:none;stroke-width:0.0853274;stroke-linecap:round;stroke-linejoin:round;-inkscape-stroke:none"
           d="m 104.72151,210.17984 c -2.44499,-0.01 -4.64182,1.57322 -5.392947,3.92123 a 0.57282908,0.57282908 0 0 0 -0.389667,0.54236 0.57282908,0.57282908 0 0 0 0.572822,0.57283 0.57282908,0.57282908 0 0 0 0.572832,-0.57283 0.57282908,0.57282908 0 0 0 -0.116981,-0.3468 c 0.723561,-2.25118 2.944371,-3.69706 5.324081,-3.41337 2.49303,0.29716 4.37034,2.39863 4.38586,4.9093 0.0155,2.5107 -1.83568,4.63495 -4.32487,4.96297 -2.47511,0.3262 -4.80086,-1.22652 -5.451874,-3.63211 a 0.57282908,0.57282908 0 0 0 0.183784,-0.4204 0.57282908,0.57282908 0 0 0 -0.572832,-0.57283 0.57282908,0.57282908 0 0 0 -0.572822,0.57283 0.57282908,0.57282908 0 0 0 0.29971,0.50312 0.33405595,0.33405595 0 0 0 0.0046,0.0453 c 0.71938,2.74982 3.378784,4.53791 6.196704,4.16654 2.8179,-0.37134 4.92336,-2.78739 4.90581,-5.62962 -0.0176,-2.84223 -2.15272,-5.23221 -4.97499,-5.5686 -0.1764,-0.0211 -0.3521,-0.0337 -0.52662,-0.0381 -0.0409,-9.2e-4 -0.0817,-0.002 -0.1225,-0.003 z" />
        <path
           id="path28276"
           style="color:#000000;fill:#000000;fill-opacity:0.922661;stroke:none;stroke-width:0.184641;stroke-linecap:round;stroke-linejoin:round;stroke-miterlimit:4;stroke-dasharray:none"
           d="m 104.59151,219.43377 c 1.5646,0.006 2.9704,-1.00675 3.45106,-2.50929 a 0.36656615,0.36656615 0 0 0 0.24936,-0.34707 0.36656615,0.36656615 0 0 0 -0.36656,-0.36656 0.36656615,0.36656615 0 0 0 -0.36657,0.36656 0.36656615,0.36656615 0 0 0 0.0749,0.22192 c -0.46302,1.44058 -1.88417,2.36584 -3.407,2.1843 -1.59534,-0.19016 -2.79667,-1.53494 -2.80661,-3.14157 -0.01,-1.60665 1.17469,-2.96601 2.76758,-3.17592 1.58388,-0.20874 3.07218,0.78487 3.48878,2.32427 a 0.36656615,0.36656615 0 0 0 -0.11761,0.26903 0.36656615,0.36656615 0 0 0 0.36657,0.36655 0.36656615,0.36656615 0 0 0 0.36656,-0.36655 0.36656615,0.36656615 0 0 0 -0.19179,-0.32196 0.21376988,0.21376988 0 0 0 -0.003,-0.029 c -0.46034,-1.75967 -2.16216,-2.90391 -3.96541,-2.66626 -1.80324,0.23763 -3.15057,1.78371 -3.13934,3.60252 0.0113,1.81881 1.37758,3.3482 3.18361,3.56346 0.11288,0.0135 0.22532,0.0216 0.337,0.0244 0.0262,5.9e-4 0.0523,9.2e-4 0.0784,0.002 z" />
        <path
           id="path28278"
           style="color:#000000;fill:#000000;fill-opacity:0.922661;stroke:none;stroke-width:0.166184;stroke-linecap:round;stroke-linejoin:round;stroke-miterlimit:4;stroke-dasharray:none"
           d="m 104.67076,213.79128 c -0.88014,-0.004 -1.67095,0.56632 -1.94133,1.41155 a 0.20620408,0.20620408 0 0 0 -0.14028,0.19523 0.20620408,0.20620408 0 0 0 0.20621,0.20621 0.20620408,0.20620408 0 0 0 0.2062,-0.20621 0.20620408,0.20620408 0 0 0 -0.0421,-0.12483 c 0.26046,-0.81037 1.0599,-1.33085 1.91653,-1.22873 0.89743,0.10697 1.57322,0.86344 1.5788,1.76722 0.006,0.90379 -0.66079,1.66847 -1.55683,1.78655 -0.89099,0.11742 -1.7282,-0.44152 -1.96255,-1.30747 a 0.20620408,0.20620408 0 0 0 0.0661,-0.15133 0.20620408,0.20620408 0 0 0 -0.20621,-0.2062 0.20620408,0.20620408 0 0 0 -0.2062,0.2062 0.20620408,0.20620408 0 0 0 0.10789,0.18111 0.12025175,0.12025175 0 0 0 0.002,0.0162 c 0.25896,0.98986 1.21628,1.63353 2.23065,1.49984 1.01439,-0.13367 1.7723,-1.00339 1.76599,-2.02652 -0.006,-1.02313 -0.77494,-1.88346 -1.79088,-2.00455 -0.0635,-0.007 -0.12675,-0.0121 -0.18958,-0.0137 -0.0148,-3.3e-4 -0.0294,-5.1e-4 -0.0441,-8.3e-4 z" />
        <path
           id="path28280"
           style="color:#000000;fill:#000000;fill-opacity:0.922661;stroke:none;stroke-width:0.834354;stroke-linecap:round;stroke-linejoin:round;stroke-miterlimit:4;stroke-dasharray:none"
           d="m 104.6655,215.33891 c -0.20951,-8.3e-4 -0.39775,0.13481 -0.46211,0.336 a 0.04908422,0.04908422 42.681159 0 0 -0.0334,0.0465 0.04908422,0.04908422 42.681159 0 0 0.0491,0.0491 0.04908422,0.04908422 42.681159 0 0 0.0491,-0.0491 0.04908422,0.04908422 42.681159 0 0 -0.01,-0.0297 c 0.062,-0.19289 0.2523,-0.31678 0.45621,-0.29248 0.21362,0.0255 0.37448,0.20554 0.37581,0.42067 0.002,0.21513 -0.15729,0.39716 -0.37058,0.42526 -0.21209,0.028 -0.41138,-0.1051 -0.46716,-0.31122 a 0.04908422,0.04908422 42.681159 0 0 0.0158,-0.036 0.04908422,0.04908422 42.681159 0 0 -0.0491,-0.0491 0.04908422,0.04908422 42.681159 0 0 -0.0491,0.0491 0.04908422,0.04908422 42.681159 0 0 0.0257,0.0431 0.02862438,0.02862438 42.634398 0 0 4.7e-4,0.004 c 0.0617,0.23562 0.28952,0.38884 0.53098,0.35701 0.24147,-0.0318 0.42187,-0.23884 0.42037,-0.48238 -0.002,-0.24355 -0.18446,-0.44833 -0.42629,-0.47716 -0.0151,-0.002 -0.0302,-0.002 -0.0451,-0.003 -0.003,-7e-5 -0.007,-1.1e-4 -0.0105,-2e-4 z" />
      </g>
    </g>
    <g
       id="g28342"
       transform="translate(1.6325769,-58.713286)"
       style="display:inline;opacity:1;fill:#000000">
      <g
         id="g28312"
         transform="matrix(0.22078737,0.08860011,0.08860011,-0.22078737,35.392924,206.62858)"
         style="fill:#000000;stroke:none">
        <g
           id="g28310"
           transform="rotate(-132.70589,104.64227,215.82279)"
           style="fill:#000000;stroke:none">
          <path
             id="path28286"
             style="color:#000000;fill:#000000;fill-opacity:0.922661;stroke:none;stroke-width:0.923207;stroke-linecap:round;stroke-linejoin:round;-inkscape-stroke:none"
             d="m 105.49923,154.7634 c -26.45387,-0.10311 -50.222792,17.02174 -58.349747,42.42624 a 6.1977825,6.1977825 0 0 0 -4.215954,5.86809 6.1977825,6.1977825 0 0 0 6.197745,6.19775 6.1977825,6.1977825 0 0 0 6.197747,-6.19775 6.1977825,6.1977825 0 0 0 -1.265693,-3.75224 c 7.828694,-24.35685 31.856953,-40.0007 57.604552,-36.93124 26.97357,3.21502 47.28529,25.95214 47.45324,53.11666 0.16783,27.16467 -19.86129,50.1482 -46.79344,53.69727 -26.779693,3.52931 -51.943366,-13.27037 -58.987128,-39.29804 a 6.1977825,6.1977825 0 0 0 1.988469,-4.54848 6.1977825,6.1977825 0 0 0 -6.197747,-6.19775 6.1977825,6.1977825 0 0 0 -6.197745,6.19775 6.1977825,6.1977825 0 0 0 3.242712,5.44348 3.614352,3.614352 0 0 0 0.04866,0.49044 c 7.783396,29.7519 36.557229,49.0984 67.045969,45.08024 30.48864,-4.01772 53.26895,-30.15841 53.07896,-60.91023 -0.19012,-30.75173 -23.29163,-56.61035 -53.8275,-60.24996 -1.90853,-0.22752 -3.80957,-0.36429 -5.69777,-0.41267 -0.44255,-0.0113 -0.88422,-0.0178 -1.32533,-0.0196 z" />
          <path
             id="path28288"
             style="color:#000000;fill:#000000;fill-opacity:0.922661;stroke:none;stroke-width:0.73372;stroke-linecap:round;stroke-linejoin:round;-inkscape-stroke:none"
             d="m 103.96122,264.34981 c 21.02424,0.0819 39.91463,-13.52806 46.37354,-33.71833 a 4.9256958,4.9256958 0 0 0 3.35062,-4.66366 4.9256958,4.9256958 0 0 0 -4.92565,-4.92568 4.9256958,4.9256958 0 0 0 -4.92568,4.92568 4.9256958,4.9256958 0 0 0 1.00592,2.98209 c -6.22188,19.35765 -25.31836,31.79062 -45.781292,29.35115 -21.437281,-2.55514 -37.580051,-20.62549 -37.713516,-42.21453 -0.133386,-21.58917 15.784782,-39.85536 37.189138,-42.67598 21.28319,-2.80492 41.28205,10.54665 46.8801,31.23217 a 4.9256958,4.9256958 0 0 0 -1.58035,3.6149 4.9256958,4.9256958 0 0 0 4.92568,4.92568 4.9256958,4.9256958 0 0 0 4.92565,-4.92568 4.9256958,4.9256958 0 0 0 -2.57715,-4.3262 2.8725111,2.8725111 0 0 0 -0.0386,-0.38979 c -6.18586,-23.64535 -29.0539,-39.02101 -53.284862,-35.82756 -24.230891,3.19308 -42.335572,23.96843 -42.184581,48.40847 0.151108,24.43999 18.511056,44.99116 42.779485,47.88374 1.5168,0.18083 3.027658,0.28953 4.528298,0.32798 0.35171,0.009 0.70274,0.0142 1.05332,0.0156 z" />
          <path
             id="path28290"
             style="color:#000000;fill:#000000;fill-opacity:0.922661;stroke:none;stroke-width:0.559749;stroke-linecap:round;stroke-linejoin:round;-inkscape-stroke:none"
             d="m 105.16183,178.80183 c -16.039245,-0.0625 -30.450592,10.32046 -35.378042,25.72348 a 3.7577795,3.7577795 0 0 0 -2.556181,3.55787 3.7577795,3.7577795 0 0 0 3.757755,3.75776 3.7577795,3.7577795 0 0 0 3.757763,-3.75776 3.7577795,3.7577795 0 0 0 -0.767405,-2.27502 c 4.74662,-14.76782 19.3152,-24.25283 34.92623,-22.39179 16.35436,1.94931 28.66958,15.73506 28.77139,32.20518 0.10175,16.47024 -12.04211,30.40538 -28.37134,32.55722 -16.236804,2.13985 -31.493799,-8.04596 -35.764511,-23.82681 a 3.7577795,3.7577795 0 0 0 1.205636,-2.75779 3.7577795,3.7577795 0 0 0 -3.757763,-3.75776 3.7577795,3.7577795 0 0 0 -3.757755,3.75776 3.7577795,3.7577795 0 0 0 1.966088,3.30044 2.191419,2.191419 0 0 0 0.02954,0.29736 c 4.719143,18.03889 22.165023,29.76887 40.650655,27.33262 18.48558,-2.43599 32.29752,-18.28536 32.18233,-36.93051 -0.11528,-18.6451 -14.12195,-34.32345 -32.63618,-36.53018 -1.15715,-0.13795 -2.30978,-0.22087 -3.45461,-0.25021 -0.26832,-0.007 -0.5361,-0.0109 -0.80356,-0.0119 z" />
          <path
             id="path28292"
             style="color:#000000;fill:#000000;fill-opacity:0.922661;stroke:none;stroke-width:0.429622;stroke-linecap:round;stroke-linejoin:round;-inkscape-stroke:none"
             d="m 104.24349,244.23725 c 12.3105,0.048 23.37154,-7.92119 27.15349,-19.74338 a 2.8841852,2.8841852 0 0 0 1.96193,-2.73075 2.8841852,2.8841852 0 0 0 -2.88418,-2.88418 2.8841852,2.8841852 0 0 0 -2.88416,2.88418 2.8841852,2.8841852 0 0 0 0.589,1.74613 c -3.64314,11.33465 -14.82488,18.61463 -26.80671,17.18623 -12.552368,-1.49613 -22.004587,-12.07702 -22.082727,-24.71825 -0.07808,-12.64129 9.242598,-23.33685 21.775667,-24.98843 12.46214,-1.64239 24.17224,6.17547 27.45012,18.28764 a 2.8841852,2.8841852 0 0 0 -0.92535,2.11667 2.8841852,2.8841852 0 0 0 2.88416,2.88417 2.8841852,2.8841852 0 0 0 2.88418,-2.88417 2.8841852,2.8841852 0 0 0 -1.50902,-2.53316 1.6819663,1.6819663 0 0 0 -0.0226,-0.22823 c -3.62205,-13.84528 -17.01218,-22.84832 -31.20034,-20.97843 -14.18812,1.86967 -24.789105,14.03443 -24.700708,28.34504 0.08851,14.31055 10.838947,26.34406 25.049048,28.03777 0.88814,0.10588 1.77281,0.16953 2.6515,0.19205 0.20594,0.006 0.41147,0.008 0.61675,0.009 z" />
          <path
             id="path28294"
             style="color:#000000;fill:#000000;fill-opacity:0.922661;stroke:none;stroke-width:0.329958;stroke-linecap:round;stroke-linejoin:round;-inkscape-stroke:none"
             d="m 104.94859,194.00012 c -9.454723,-0.0368 -17.949844,6.08364 -20.854454,15.16334 a 2.2151149,2.2151149 0 0 0 -1.506811,2.09726 2.2151149,2.2151149 0 0 0 2.215104,2.21512 2.2151149,2.2151149 0 0 0 2.215104,-2.21512 2.2151149,2.2151149 0 0 0 -0.452362,-1.34105 c 2.798007,-8.70526 11.385819,-14.29643 20.588119,-13.1994 9.64047,1.14907 16.89998,9.27542 16.95999,18.98414 0.0599,9.70878 -7.09851,17.9232 -16.72417,19.19165 -9.571182,1.26138 -18.564789,-4.74289 -21.082261,-14.04529 a 2.2151149,2.2151149 0 0 0 0.710684,-1.62566 2.2151149,2.2151149 0 0 0 -2.215104,-2.2151 2.2151149,2.2151149 0 0 0 -2.215104,2.2151 2.2151149,2.2151149 0 0 0 1.158965,1.94553 1.2917855,1.2917855 0 0 0 0.01736,0.17528 c 2.781814,10.63347 13.065721,17.54799 23.96251,16.11188 10.89678,-1.43595 19.03856,-10.77875 18.97067,-21.76958 -0.068,-10.99082 -8.32454,-20.2328 -19.23819,-21.53361 -0.68211,-0.0813 -1.36156,-0.1302 -2.03641,-0.14749 -0.15817,-0.005 -0.31602,-0.006 -0.47368,-0.007 z" />
          <path
             id="path28296"
             style="color:#000000;fill:#000000;fill-opacity:0.922661;stroke:none;stroke-width:0.243829;stroke-linecap:round;stroke-linejoin:round;-inkscape-stroke:none"
             d="m 104.41595,231.94918 c 6.98674,0.0272 13.26438,-4.49561 15.41079,-11.20523 a 1.6369008,1.6369008 0 0 0 1.11348,-1.54981 1.6369008,1.6369008 0 0 0 -1.63689,-1.6369 1.6369008,1.6369008 0 0 0 -1.63689,1.6369 1.6369008,1.6369008 0 0 0 0.33429,0.991 c -2.06764,6.43291 -8.41377,10.56461 -15.21398,9.75394 -7.124014,-0.84913 -12.488561,-6.85424 -12.532912,-14.02868 -0.04431,-7.17449 5.245583,-13.24469 12.358652,-14.18204 7.0728,-0.93212 13.71879,3.50485 15.57913,10.37904 a 1.6369008,1.6369008 0 0 0 -0.52518,1.2013 1.6369008,1.6369008 0 0 0 1.63689,1.6369 1.6369008,1.6369008 0 0 0 1.63689,-1.6369 1.6369008,1.6369008 0 0 0 -0.85644,-1.43768 0.95458918,0.95458918 0 0 0 -0.0128,-0.12953 c -2.05566,-7.8578 -9.65516,-12.96741 -17.70754,-11.90617 -8.052386,1.06111 -14.068911,7.96515 -14.018744,16.08704 0.05022,8.12187 6.151581,14.95141 14.216434,15.91266 0.50405,0.0601 1.00614,0.0962 1.50484,0.10899 0.11687,0.004 0.23353,0.005 0.35003,0.006 z" />
          <path
             id="path28298"
             style="color:#000000;fill:#000000;fill-opacity:0.922661;stroke:none;stroke-width:0.1839;stroke-linecap:round;stroke-linejoin:round;-inkscape-stroke:none"
             d="m 104.81298,203.66055 c -5.269505,-0.0206 -10.004195,3.39067 -11.623047,8.45116 a 1.2345756,1.2345756 0 0 0 -0.839813,1.16889 1.2345756,1.2345756 0 0 0 1.234567,1.23457 1.2345756,1.2345756 0 0 0 1.234567,-1.23457 1.2345756,1.2345756 0 0 0 -0.252119,-0.74742 c 1.559443,-4.8518 6.345795,-7.968 11.474615,-7.35658 5.37304,0.64043 9.41906,5.16958 9.45251,10.58065 0.0334,5.4111 -3.9563,9.98935 -9.32108,10.69631 -5.33441,0.70302 -10.34693,-2.64342 -11.750019,-7.82803 a 1.2345756,1.2345756 0 0 0 0.396093,-0.90605 1.2345756,1.2345756 0 0 0 -1.234567,-1.23456 1.2345756,1.2345756 0 0 0 -1.234567,1.23456 1.2345756,1.2345756 0 0 0 0.64594,1.08433 0.71996577,0.71996577 0 0 0 0.0097,0.0977 c 1.550423,5.92648 7.28208,9.78023 13.3553,8.97982 6.07323,-0.80031 10.61099,-6.00744 10.57315,-12.13309 -0.0379,-6.12564 -4.63961,-11.27659 -10.72224,-12.00157 -0.38017,-0.0453 -0.75885,-0.0726 -1.13497,-0.0822 -0.0882,-0.003 -0.17614,-0.004 -0.264,-0.005 z" />
          <path
             id="path28300"
             style="color:#000000;fill:#000000;fill-opacity:0.922661;stroke:none;stroke-width:0.131272;stroke-linecap:round;stroke-linejoin:round;-inkscape-stroke:none"
             d="m 104.52066,224.50427 c 3.76149,0.0147 7.1412,-2.42033 8.29677,-6.03261 a 0.88126596,0.88126596 0 0 0 0.59948,-0.83438 0.88126596,0.88126596 0 0 0 -0.88126,-0.88127 0.88126596,0.88126596 0 0 0 -0.88126,0.88127 0.88126596,0.88126596 0 0 0 0.17997,0.53352 c -1.11317,3.46332 -4.52976,5.68773 -8.19082,5.25128 -3.835384,-0.45715 -6.723524,-3.69015 -6.747398,-7.55268 -0.02382,-3.86257 2.824087,-7.13062 6.653588,-7.63526 3.80781,-0.50183 7.38585,1.88692 8.3874,5.58782 a 0.88126596,0.88126596 0 0 0 -0.28274,0.64675 0.88126596,0.88126596 0 0 0 0.88126,0.88126 0.88126596,0.88126596 0 0 0 0.88126,-0.88126 0.88126596,0.88126596 0 0 0 -0.46109,-0.77402 0.51392665,0.51392665 0 0 0 -0.007,-0.0697 c -1.10673,-4.23044 -5.19809,-6.98133 -9.53329,-6.40999 -4.335192,0.57128 -7.574344,4.28824 -7.547331,8.66086 0.02705,4.37261 3.311846,8.04946 7.653761,8.56697 0.27137,0.0324 0.54168,0.0518 0.81017,0.0586 0.063,0.002 0.12573,0.003 0.18845,0.004 z" />
          <path
             id="path28302"
             style="color:#000000;fill:#000000;fill-opacity:0.922661;stroke:none;stroke-width:0.0853274;stroke-linecap:round;stroke-linejoin:round;-inkscape-stroke:none"
             d="m 104.72151,210.17984 c -2.44499,-0.01 -4.64182,1.57322 -5.392947,3.92123 a 0.57282908,0.57282908 0 0 0 -0.389667,0.54236 0.57282908,0.57282908 0 0 0 0.572822,0.57283 0.57282908,0.57282908 0 0 0 0.572832,-0.57283 0.57282908,0.57282908 0 0 0 -0.116981,-0.3468 c 0.723561,-2.25118 2.944371,-3.69706 5.324081,-3.41337 2.49303,0.29716 4.37034,2.39863 4.38586,4.9093 0.0155,2.5107 -1.83568,4.63495 -4.32487,4.96297 -2.47511,0.3262 -4.80086,-1.22652 -5.451874,-3.63211 a 0.57282908,0.57282908 0 0 0 0.183784,-0.4204 0.57282908,0.57282908 0 0 0 -0.572832,-0.57283 0.57282908,0.57282908 0 0 0 -0.572822,0.57283 0.57282908,0.57282908 0 0 0 0.29971,0.50312 0.33405595,0.33405595 0 0 0 0.0046,0.0453 c 0.71938,2.74982 3.378784,4.53791 6.196704,4.16654 2.8179,-0.37134 4.92336,-2.78739 4.90581,-5.62962 -0.0176,-2.84223 -2.15272,-5.23221 -4.97499,-5.5686 -0.1764,-0.0211 -0.3521,-0.0337 -0.52662,-0.0381 -0.0409,-9.2e-4 -0.0817,-0.002 -0.1225,-0.003 z" />
          <path
             id="path28304"
             style="color:#000000;fill:#000000;fill-opacity:0.922661;stroke:none;stroke-width:0.184641;stroke-linecap:round;stroke-linejoin:round;stroke-miterlimit:4;stroke-dasharray:none"
             d="m 104.59151,219.43377 c 1.5646,0.006 2.9704,-1.00675 3.45106,-2.50929 a 0.36656615,0.36656615 0 0 0 0.24936,-0.34707 0.36656615,0.36656615 0 0 0 -0.36656,-0.36656 0.36656615,0.36656615 0 0 0 -0.36657,0.36656 0.36656615,0.36656615 0 0 0 0.0749,0.22192 c -0.46302,1.44058 -1.88417,2.36584 -3.407,2.1843 -1.59534,-0.19016 -2.79667,-1.53494 -2.80661,-3.14157 -0.01,-1.60665 1.17469,-2.96601 2.76758,-3.17592 1.58388,-0.20874 3.07218,0.78487 3.48878,2.32427 a 0.36656615,0.36656615 0 0 0 -0.11761,0.26903 0.36656615,0.36656615 0 0 0 0.36657,0.36655 0.36656615,0.36656615 0 0 0 0.36656,-0.36655 0.36656615,0.36656615 0 0 0 -0.19179,-0.32196 0.21376988,0.21376988 0 0 0 -0.003,-0.029 c -0.46034,-1.75967 -2.16216,-2.90391 -3.96541,-2.66626 -1.80324,0.23763 -3.15057,1.78371 -3.13934,3.60252 0.0113,1.81881 1.37758,3.3482 3.18361,3.56346 0.11288,0.0135 0.22532,0.0216 0.337,0.0244 0.0262,5.9e-4 0.0523,9.2e-4 0.0784,0.002 z" />
          <path
             id="path28306"
             style="color:#000000;fill:#000000;fill-opacity:0.922661;stroke:none;stroke-width:0.166184;stroke-linecap:round;stroke-linejoin:round;stroke-miterlimit:4;stroke-dasharray:none"
             d="m 104.67076,213.79128 c -0.88014,-0.004 -1.67095,0.56632 -1.94133,1.41155 a 0.20620408,0.20620408 0 0 0 -0.14028,0.19523 0.20620408,0.20620408 0 0 0 0.20621,0.20621 0.20620408,0.20620408 0 0 0 0.2062,-0.20621 0.20620408,0.20620408 0 0 0 -0.0421,-0.12483 c 0.26046,-0.81037 1.0599,-1.33085 1.91653,-1.22873 0.89743,0.10697 1.57322,0.86344 1.5788,1.76722 0.006,0.90379 -0.66079,1.66847 -1.55683,1.78655 -0.89099,0.11742 -1.7282,-0.44152 -1.96255,-1.30747 a 0.20620408,0.20620408 0 0 0 0.0661,-0.15133 0.20620408,0.20620408 0 0 0 -0.20621,-0.2062 0.20620408,0.20620408 0 0 0 -0.2062,0.2062 0.20620408,0.20620408 0 0 0 0.10789,0.18111 0.12025175,0.12025175 0 0 0 0.002,0.0162 c 0.25896,0.98986 1.21628,1.63353 2.23065,1.49984 1.01439,-0.13367 1.7723,-1.00339 1.76599,-2.02652 -0.006,-1.02313 -0.77494,-1.88346 -1.79088,-2.00455 -0.0635,-0.007 -0.12675,-0.0121 -0.18958,-0.0137 -0.0148,-3.3e-4 -0.0294,-5.1e-4 -0.0441,-8.3e-4 z" />
          <path
             id="path28308"
             style="color:#000000;fill:#000000;fill-opacity:0.922661;stroke:none;stroke-width:0.834354;stroke-linecap:round;stroke-linejoin:round;stroke-miterlimit:4;stroke-dasharray:none"
             d="m 104.6655,215.33891 c -0.20951,-8.3e-4 -0.39775,0.13481 -0.46211,0.336 a 0.04908422,0.04908422 42.681159 0 0 -0.0334,0.0465 0.04908422,0.04908422 42.681159 0 0 0.0491,0.0491 0.04908422,0.04908422 42.681159 0 0 0.0491,-0.0491 0.04908422,0.04908422 42.681159 0 0 -0.01,-0.0297 c 0.062,-0.19289 0.2523,-0.31678 0.45621,-0.29248 0.21362,0.0255 0.37448,0.20554 0.37581,0.42067 0.002,0.21513 -0.15729,0.39716 -0.37058,0.42526 -0.21209,0.028 -0.41138,-0.1051 -0.46716,-0.31122 a 0.04908422,0.04908422 42.681159 0 0 0.0158,-0.036 0.04908422,0.04908422 42.681159 0 0 -0.0491,-0.0491 0.04908422,0.04908422 42.681159 0 0 -0.0491,0.0491 0.04908422,0.04908422 42.681159 0 0 0.0257,0.0431 0.02862438,0.02862438 42.634398 0 0 4.7e-4,0.004 c 0.0617,0.23562 0.28952,0.38884 0.53098,0.35701 0.24147,-0.0318 0.42187,-0.23884 0.42037,-0.48238 -0.002,-0.24355 -0.18446,-0.44833 -0.42629,-0.47716 -0.0151,-0.002 -0.0302,-0.002 -0.0451,-0.003 -0.003,-7e-5 -0.007,-1.1e-4 -0.0105,-2e-4 z" />
        </g>
      </g>
      <g
         id="g28340"
         transform="matrix(-0.22078737,0.08860011,-0.08860011,-0.22078737,166.28863,206.62858)"
         style="fill:#000000;stroke:none">
        <g
           id="g28338"
           transform="rotate(-132.70589,104.64227,215.82279)"
           style="fill:#000000;stroke:none">
          <path
             id="path28314"
             style="color:#000000;fill:#000000;fill-opacity:0.922661;stroke:none;stroke-width:0.923207;stroke-linecap:round;stroke-linejoin:round;-inkscape-stroke:none"
             d="m 105.49923,154.7634 c -26.45387,-0.10311 -50.222792,17.02174 -58.349747,42.42624 a 6.1977825,6.1977825 0 0 0 -4.215954,5.86809 6.1977825,6.1977825 0 0 0 6.197745,6.19775 6.1977825,6.1977825 0 0 0 6.197747,-6.19775 6.1977825,6.1977825 0 0 0 -1.265693,-3.75224 c 7.828694,-24.35685 31.856953,-40.0007 57.604552,-36.93124 26.97357,3.21502 47.28529,25.95214 47.45324,53.11666 0.16783,27.16467 -19.86129,50.1482 -46.79344,53.69727 -26.779693,3.52931 -51.943366,-13.27037 -58.987128,-39.29804 a 6.1977825,6.1977825 0 0 0 1.988469,-4.54848 6.1977825,6.1977825 0 0 0 -6.197747,-6.19775 6.1977825,6.1977825 0 0 0 -6.197745,6.19775 6.1977825,6.1977825 0 0 0 3.242712,5.44348 3.614352,3.614352 0 0 0 0.04866,0.49044 c 7.783396,29.7519 36.557229,49.0984 67.045969,45.08024 30.48864,-4.01772 53.26895,-30.15841 53.07896,-60.91023 -0.19012,-30.75173 -23.29163,-56.61035 -53.8275,-60.24996 -1.90853,-0.22752 -3.80957,-0.36429 -5.69777,-0.41267 -0.44255,-0.0113 -0.88422,-0.0178 -1.32533,-0.0196 z" />
          <path
             id="path28316"
             style="color:#000000;fill:#000000;fill-opacity:0.922661;stroke:none;stroke-width:0.73372;stroke-linecap:round;stroke-linejoin:round;-inkscape-stroke:none"
             d="m 103.96122,264.34981 c 21.02424,0.0819 39.91463,-13.52806 46.37354,-33.71833 a 4.9256958,4.9256958 0 0 0 3.35062,-4.66366 4.9256958,4.9256958 0 0 0 -4.92565,-4.92568 4.9256958,4.9256958 0 0 0 -4.92568,4.92568 4.9256958,4.9256958 0 0 0 1.00592,2.98209 c -6.22188,19.35765 -25.31836,31.79062 -45.781292,29.35115 -21.437281,-2.55514 -37.580051,-20.62549 -37.713516,-42.21453 -0.133386,-21.58917 15.784782,-39.85536 37.189138,-42.67598 21.28319,-2.80492 41.28205,10.54665 46.8801,31.23217 a 4.9256958,4.9256958 0 0 0 -1.58035,3.6149 4.9256958,4.9256958 0 0 0 4.92568,4.92568 4.9256958,4.9256958 0 0 0 4.92565,-4.92568 4.9256958,4.9256958 0 0 0 -2.57715,-4.3262 2.8725111,2.8725111 0 0 0 -0.0386,-0.38979 c -6.18586,-23.64535 -29.0539,-39.02101 -53.284862,-35.82756 -24.230891,3.19308 -42.335572,23.96843 -42.184581,48.40847 0.151108,24.43999 18.511056,44.99116 42.779485,47.88374 1.5168,0.18083 3.027658,0.28953 4.528298,0.32798 0.35171,0.009 0.70274,0.0142 1.05332,0.0156 z" />
          <path
             id="path28318"
             style="color:#000000;fill:#000000;fill-opacity:0.922661;stroke:none;stroke-width:0.559749;stroke-linecap:round;stroke-linejoin:round;-inkscape-stroke:none"
             d="m 105.16183,178.80183 c -16.039245,-0.0625 -30.450592,10.32046 -35.378042,25.72348 a 3.7577795,3.7577795 0 0 0 -2.556181,3.55787 3.7577795,3.7577795 0 0 0 3.757755,3.75776 3.7577795,3.7577795 0 0 0 3.757763,-3.75776 3.7577795,3.7577795 0 0 0 -0.767405,-2.27502 c 4.74662,-14.76782 19.3152,-24.25283 34.92623,-22.39179 16.35436,1.94931 28.66958,15.73506 28.77139,32.20518 0.10175,16.47024 -12.04211,30.40538 -28.37134,32.55722 -16.236804,2.13985 -31.493799,-8.04596 -35.764511,-23.82681 a 3.7577795,3.7577795 0 0 0 1.205636,-2.75779 3.7577795,3.7577795 0 0 0 -3.757763,-3.75776 3.7577795,3.7577795 0 0 0 -3.757755,3.75776 3.7577795,3.7577795 0 0 0 1.966088,3.30044 2.191419,2.191419 0 0 0 0.02954,0.29736 c 4.719143,18.03889 22.165023,29.76887 40.650655,27.33262 18.48558,-2.43599 32.29752,-18.28536 32.18233,-36.93051 -0.11528,-18.6451 -14.12195,-34.32345 -32.63618,-36.53018 -1.15715,-0.13795 -2.30978,-0.22087 -3.45461,-0.25021 -0.26832,-0.007 -0.5361,-0.0109 -0.80356,-0.0119 z" />
          <path
             id="path28320"
             style="color:#000000;fill:#000000;fill-opacity:0.922661;stroke:none;stroke-width:0.429622;stroke-linecap:round;stroke-linejoin:round;-inkscape-stroke:none"
             d="m 104.24349,244.23725 c 12.3105,0.048 23.37154,-7.92119 27.15349,-19.74338 a 2.8841852,2.8841852 0 0 0 1.96193,-2.73075 2.8841852,2.8841852 0 0 0 -2.88418,-2.88418 2.8841852,2.8841852 0 0 0 -2.88416,2.88418 2.8841852,2.8841852 0 0 0 0.589,1.74613 c -3.64314,11.33465 -14.82488,18.61463 -26.80671,17.18623 -12.552368,-1.49613 -22.004587,-12.07702 -22.082727,-24.71825 -0.07808,-12.64129 9.242598,-23.33685 21.775667,-24.98843 12.46214,-1.64239 24.17224,6.17547 27.45012,18.28764 a 2.8841852,2.8841852 0 0 0 -0.92535,2.11667 2.8841852,2.8841852 0 0 0 2.88416,2.88417 2.8841852,2.8841852 0 0 0 2.88418,-2.88417 2.8841852,2.8841852 0 0 0 -1.50902,-2.53316 1.6819663,1.6819663 0 0 0 -0.0226,-0.22823 c -3.62205,-13.84528 -17.01218,-22.84832 -31.20034,-20.97843 -14.18812,1.86967 -24.789105,14.03443 -24.700708,28.34504 0.08851,14.31055 10.838947,26.34406 25.049048,28.03777 0.88814,0.10588 1.77281,0.16953 2.6515,0.19205 0.20594,0.006 0.41147,0.008 0.61675,0.009 z" />
          <path
             id="path28322"
             style="color:#000000;fill:#000000;fill-opacity:0.922661;stroke:none;stroke-width:0.329958;stroke-linecap:round;stroke-linejoin:round;-inkscape-stroke:none"
             d="m 104.94859,194.00012 c -9.454723,-0.0368 -17.949844,6.08364 -20.854454,15.16334 a 2.2151149,2.2151149 0 0 0 -1.506811,2.09726 2.2151149,2.2151149 0 0 0 2.215104,2.21512 2.2151149,2.2151149 0 0 0 2.215104,-2.21512 2.2151149,2.2151149 0 0 0 -0.452362,-1.34105 c 2.798007,-8.70526 11.385819,-14.29643 20.588119,-13.1994 9.64047,1.14907 16.89998,9.27542 16.95999,18.98414 0.0599,9.70878 -7.09851,17.9232 -16.72417,19.19165 -9.571182,1.26138 -18.564789,-4.74289 -21.082261,-14.04529 a 2.2151149,2.2151149 0 0 0 0.710684,-1.62566 2.2151149,2.2151149 0 0 0 -2.215104,-2.2151 2.2151149,2.2151149 0 0 0 -2.215104,2.2151 2.2151149,2.2151149 0 0 0 1.158965,1.94553 1.2917855,1.2917855 0 0 0 0.01736,0.17528 c 2.781814,10.63347 13.065721,17.54799 23.96251,16.11188 10.89678,-1.43595 19.03856,-10.77875 18.97067,-21.76958 -0.068,-10.99082 -8.32454,-20.2328 -19.23819,-21.53361 -0.68211,-0.0813 -1.36156,-0.1302 -2.03641,-0.14749 -0.15817,-0.005 -0.31602,-0.006 -0.47368,-0.007 z" />
          <path
             id="path28324"
             style="color:#000000;fill:#000000;fill-opacity:0.922661;stroke:none;stroke-width:0.243829;stroke-linecap:round;stroke-linejoin:round;-inkscape-stroke:none"
             d="m 104.41595,231.94918 c 6.98674,0.0272 13.26438,-4.49561 15.41079,-11.20523 a 1.6369008,1.6369008 0 0 0 1.11348,-1.54981 1.6369008,1.6369008 0 0 0 -1.63689,-1.6369 1.6369008,1.6369008 0 0 0 -1.63689,1.6369 1.6369008,1.6369008 0 0 0 0.33429,0.991 c -2.06764,6.43291 -8.41377,10.56461 -15.21398,9.75394 -7.124014,-0.84913 -12.488561,-6.85424 -12.532912,-14.02868 -0.04431,-7.17449 5.245583,-13.24469 12.358652,-14.18204 7.0728,-0.93212 13.71879,3.50485 15.57913,10.37904 a 1.6369008,1.6369008 0 0 0 -0.52518,1.2013 1.6369008,1.6369008 0 0 0 1.63689,1.6369 1.6369008,1.6369008 0 0 0 1.63689,-1.6369 1.6369008,1.6369008 0 0 0 -0.85644,-1.43768 0.95458918,0.95458918 0 0 0 -0.0128,-0.12953 c -2.05566,-7.8578 -9.65516,-12.96741 -17.70754,-11.90617 -8.052386,1.06111 -14.068911,7.96515 -14.018744,16.08704 0.05022,8.12187 6.151581,14.95141 14.216434,15.91266 0.50405,0.0601 1.00614,0.0962 1.50484,0.10899 0.11687,0.004 0.23353,0.005 0.35003,0.006 z" />
          <path
             id="path28326"
             style="color:#000000;fill:#000000;fill-opacity:0.922661;stroke:none;stroke-width:0.1839;stroke-linecap:round;stroke-linejoin:round;-inkscape-stroke:none"
             d="m 104.81298,203.66055 c -5.269505,-0.0206 -10.004195,3.39067 -11.623047,8.45116 a 1.2345756,1.2345756 0 0 0 -0.839813,1.16889 1.2345756,1.2345756 0 0 0 1.234567,1.23457 1.2345756,1.2345756 0 0 0 1.234567,-1.23457 1.2345756,1.2345756 0 0 0 -0.252119,-0.74742 c 1.559443,-4.8518 6.345795,-7.968 11.474615,-7.35658 5.37304,0.64043 9.41906,5.16958 9.45251,10.58065 0.0334,5.4111 -3.9563,9.98935 -9.32108,10.69631 -5.33441,0.70302 -10.34693,-2.64342 -11.750019,-7.82803 a 1.2345756,1.2345756 0 0 0 0.396093,-0.90605 1.2345756,1.2345756 0 0 0 -1.234567,-1.23456 1.2345756,1.2345756 0 0 0 -1.234567,1.23456 1.2345756,1.2345756 0 0 0 0.64594,1.08433 0.71996577,0.71996577 0 0 0 0.0097,0.0977 c 1.550423,5.92648 7.28208,9.78023 13.3553,8.97982 6.07323,-0.80031 10.61099,-6.00744 10.57315,-12.13309 -0.0379,-6.12564 -4.63961,-11.27659 -10.72224,-12.00157 -0.38017,-0.0453 -0.75885,-0.0726 -1.13497,-0.0822 -0.0882,-0.003 -0.17614,-0.004 -0.264,-0.005 z" />
          <path
             id="path28328"
             style="color:#000000;fill:#000000;fill-opacity:0.922661;stroke:none;stroke-width:0.131272;stroke-linecap:round;stroke-linejoin:round;-inkscape-stroke:none"
             d="m 104.52066,224.50427 c 3.76149,0.0147 7.1412,-2.42033 8.29677,-6.03261 a 0.88126596,0.88126596 0 0 0 0.59948,-0.83438 0.88126596,0.88126596 0 0 0 -0.88126,-0.88127 0.88126596,0.88126596 0 0 0 -0.88126,0.88127 0.88126596,0.88126596 0 0 0 0.17997,0.53352 c -1.11317,3.46332 -4.52976,5.68773 -8.19082,5.25128 -3.835384,-0.45715 -6.723524,-3.69015 -6.747398,-7.55268 -0.02382,-3.86257 2.824087,-7.13062 6.653588,-7.63526 3.80781,-0.50183 7.38585,1.88692 8.3874,5.58782 a 0.88126596,0.88126596 0 0 0 -0.28274,0.64675 0.88126596,0.88126596 0 0 0 0.88126,0.88126 0.88126596,0.88126596 0 0 0 0.88126,-0.88126 0.88126596,0.88126596 0 0 0 -0.46109,-0.77402 0.51392665,0.51392665 0 0 0 -0.007,-0.0697 c -1.10673,-4.23044 -5.19809,-6.98133 -9.53329,-6.40999 -4.335192,0.57128 -7.574344,4.28824 -7.547331,8.66086 0.02705,4.37261 3.311846,8.04946 7.653761,8.56697 0.27137,0.0324 0.54168,0.0518 0.81017,0.0586 0.063,0.002 0.12573,0.003 0.18845,0.004 z" />
          <path
             id="path28330"
             style="color:#000000;fill:#000000;fill-opacity:0.922661;stroke:none;stroke-width:0.0853274;stroke-linecap:round;stroke-linejoin:round;-inkscape-stroke:none"
             d="m 104.72151,210.17984 c -2.44499,-0.01 -4.64182,1.57322 -5.392947,3.92123 a 0.57282908,0.57282908 0 0 0 -0.389667,0.54236 0.57282908,0.57282908 0 0 0 0.572822,0.57283 0.57282908,0.57282908 0 0 0 0.572832,-0.57283 0.57282908,0.57282908 0 0 0 -0.116981,-0.3468 c 0.723561,-2.25118 2.944371,-3.69706 5.324081,-3.41337 2.49303,0.29716 4.37034,2.39863 4.38586,4.9093 0.0155,2.5107 -1.83568,4.63495 -4.32487,4.96297 -2.47511,0.3262 -4.80086,-1.22652 -5.451874,-3.63211 a 0.57282908,0.57282908 0 0 0 0.183784,-0.4204 0.57282908,0.57282908 0 0 0 -0.572832,-0.57283 0.57282908,0.57282908 0 0 0 -0.572822,0.57283 0.57282908,0.57282908 0 0 0 0.29971,0.50312 0.33405595,0.33405595 0 0 0 0.0046,0.0453 c 0.71938,2.74982 3.378784,4.53791 6.196704,4.16654 2.8179,-0.37134 4.92336,-2.78739 4.90581,-5.62962 -0.0176,-2.84223 -2.15272,-5.23221 -4.97499,-5.5686 -0.1764,-0.0211 -0.3521,-0.0337 -0.52662,-0.0381 -0.0409,-9.2e-4 -0.0817,-0.002 -0.1225,-0.003 z" />
          <path
             id="path28332"
             style="color:#000000;fill:#000000;fill-opacity:0.922661;stroke:none;stroke-width:0.184641;stroke-linecap:round;stroke-linejoin:round;stroke-miterlimit:4;stroke-dasharray:none"
             d="m 104.59151,219.43377 c 1.5646,0.006 2.9704,-1.00675 3.45106,-2.50929 a 0.36656615,0.36656615 0 0 0 0.24936,-0.34707 0.36656615,0.36656615 0 0 0 -0.36656,-0.36656 0.36656615,0.36656615 0 0 0 -0.36657,0.36656 0.36656615,0.36656615 0 0 0 0.0749,0.22192 c -0.46302,1.44058 -1.88417,2.36584 -3.407,2.1843 -1.59534,-0.19016 -2.79667,-1.53494 -2.80661,-3.14157 -0.01,-1.60665 1.17469,-2.96601 2.76758,-3.17592 1.58388,-0.20874 3.07218,0.78487 3.48878,2.32427 a 0.36656615,0.36656615 0 0 0 -0.11761,0.26903 0.36656615,0.36656615 0 0 0 0.36657,0.36655 0.36656615,0.36656615 0 0 0 0.36656,-0.36655 0.36656615,0.36656615 0 0 0 -0.19179,-0.32196 0.21376988,0.21376988 0 0 0 -0.003,-0.029 c -0.46034,-1.75967 -2.16216,-2.90391 -3.96541,-2.66626 -1.80324,0.23763 -3.15057,1.78371 -3.13934,3.60252 0.0113,1.81881 1.37758,3.3482 3.18361,3.56346 0.11288,0.0135 0.22532,0.0216 0.337,0.0244 0.0262,5.9e-4 0.0523,9.2e-4 0.0784,0.002 z" />
          <path
             id="path28334"
             style="color:#000000;fill:#000000;fill-opacity:0.922661;stroke:none;stroke-width:0.166184;stroke-linecap:round;stroke-linejoin:round;stroke-miterlimit:4;stroke-dasharray:none"
             d="m 104.67076,213.79128 c -0.88014,-0.004 -1.67095,0.56632 -1.94133,1.41155 a 0.20620408,0.20620408 0 0 0 -0.14028,0.19523 0.20620408,0.20620408 0 0 0 0.20621,0.20621 0.20620408,0.20620408 0 0 0 0.2062,-0.20621 0.20620408,0.20620408 0 0 0 -0.0421,-0.12483 c 0.26046,-0.81037 1.0599,-1.33085 1.91653,-1.22873 0.89743,0.10697 1.57322,0.86344 1.5788,1.76722 0.006,0.90379 -0.66079,1.66847 -1.55683,1.78655 -0.89099,0.11742 -1.7282,-0.44152 -1.96255,-1.30747 a 0.20620408,0.20620408 0 0 0 0.0661,-0.15133 0.20620408,0.20620408 0 0 0 -0.20621,-0.2062 0.20620408,0.20620408 0 0 0 -0.2062,0.2062 0.20620408,0.20620408 0 0 0 0.10789,0.18111 0.12025175,0.12025175 0 0 0 0.002,0.0162 c 0.25896,0.98986 1.21628,1.63353 2.23065,1.49984 1.01439,-0.13367 1.7723,-1.00339 1.76599,-2.02652 -0.006,-1.02313 -0.77494,-1.88346 -1.79088,-2.00455 -0.0635,-0.007 -0.12675,-0.0121 -0.18958,-0.0137 -0.0148,-3.3e-4 -0.0294,-5.1e-4 -0.0441,-8.3e-4 z" />
          <path
             id="path28336"
             style="color:#000000;fill:#000000;fill-opacity:0.922661;stroke:none;stroke-width:0.834354;stroke-linecap:round;stroke-linejoin:round;stroke-miterlimit:4;stroke-dasharray:none"
             d="m 104.6655,215.33891 c -0.20951,-8.3e-4 -0.39775,0.13481 -0.46211,0.336 a 0.04908422,0.04908422 42.681159 0 0 -0.0334,0.0465 0.04908422,0.04908422 42.681159 0 0 0.0491,0.0491 0.04908422,0.04908422 42.681159 0 0 0.0491,-0.0491 0.04908422,0.04908422 42.681159 0 0 -0.01,-0.0297 c 0.062,-0.19289 0.2523,-0.31678 0.45621,-0.29248 0.21362,0.0255 0.37448,0.20554 0.37581,0.42067 0.002,0.21513 -0.15729,0.39716 -0.37058,0.42526 -0.21209,0.028 -0.41138,-0.1051 -0.46716,-0.31122 a 0.04908422,0.04908422 42.681159 0 0 0.0158,-0.036 0.04908422,0.04908422 42.681159 0 0 -0.0491,-0.0491 0.04908422,0.04908422 42.681159 0 0 -0.0491,0.0491 0.04908422,0.04908422 42.681159 0 0 0.0257,0.0431 0.02862438,0.02862438 42.634398 0 0 4.7e-4,0.004 c 0.0617,0.23562 0.28952,0.38884 0.53098,0.35701 0.24147,-0.0318 0.42187,-0.23884 0.42037,-0.48238 -0.002,-0.24355 -0.18446,-0.44833 -0.42629,-0.47716 -0.0151,-0.002 -0.0302,-0.002 -0.0451,-0.003 -0.003,-7e-5 -0.007,-1.1e-4 -0.0105,-2e-4 z" />
        </g>
      </g>
    </g>
  </g>
</svg>
