  0
SECTION
  2
HEADER
  9
$ACADVER
  1
AC1014
  9
$HANDSEED
  5
FFFF
  9
$MEASUREMENT
 70
     1
  0
ENDSEC
  0
SECTION
  2
TABLES
  0
TABLE
  2
VPORT
  5
8
330
0
100
AcDbSymbolTable
 70
     4
  0
VPORT
  5
2E
330
8
100
AcDbSymbolTableRecord
100
AcDbViewportTableRecord
  2
*ACTIVE
 70
     0
 10
0.0
 20
0.0
 11
1.0
 21
1.0
 12
210.0
 22
148.5
 13
0.0
 23
0.0
 14
10.0
 24
10.0
 15
10.0
 25
10.0
 16
0.0
 26
0.0
 36
1.0
 17
0.0
 27
0.0
 37
0.0
 40
341.0
 41
1.24
 42
50.0
 43
0.0
 44
0.0
 50
0.0
 51
0.0
 71
     0
 72
   100
 73
     1
 74
     3
 75
     0
 76
     0
 77
     0
 78
     0
  0
ENDTAB
  0
TABLE
  2
LTYPE
  5
5
330
0
100
AcDbSymbolTable
 70
     1
  0
LTYPE
  5
14
330
5
100
AcDbSymbolTableRecord
100
AcDbLinetypeTableRecord
  2
BYBLOCK
 70
     0
  3

 72
    65
 73
     0
 40
0.0
  0
LTYPE
  5
15
330
5
100
AcDbSymbolTableRecord
100
AcDbLinetypeTableRecord
  2
BYLAYER
 70
     0
  3

 72
    65
 73
     0
 40
0.0
  0
LTYPE
  5
16
330
5
100
AcDbSymbolTableRecord
100
AcDbLinetypeTableRecord
  2
CONTINUOUS
 70
     0
  3
Solid line
 72
    65
 73
     0
 40
0.0
  0
ENDTAB
  0
TABLE
  2
LAYER
  5
2
100
AcDbSymbolTable
 70
4
  0
LAYER
  5
50
100
AcDbSymbolTableRecord
100
AcDbLayerTableRecord
  2
0
 70
0
  6
CONTINUOUS
  0
LAYER
  5
51
100
AcDbSymbolTableRecord
100
AcDbLayerTableRecord
  2
base
 70
0
  6
CONTINUOUS
  0
LAYER
  5
52
100
AcDbSymbolTableRecord
100
AcDbLayerTableRecord
  2
other
 70
0
  6
CONTINUOUS
  0
LAYER
  5
53
100
AcDbSymbolTableRecord
100
AcDbLayerTableRecord
  2
wall
 70
0
  6
CONTINUOUS
  0
ENDTAB
  0
TABLE
  2
STYLE
  5
3
330
0
100
AcDbSymbolTable
 70
     1
  0
STYLE
  5
11
330
3
100
AcDbSymbolTableRecord
100
AcDbTextStyleTableRecord
  2
STANDARD
 70
     0
 40
0.0
 41
1.0
 50
0.0
 71
     0
 42
2.5
  3
txt
  4

  0
ENDTAB
  0
TABLE
  2
VIEW
  5
6
330
0
100
AcDbSymbolTable
 70
     0
  0
ENDTAB
  0
TABLE
  2
UCS
  5
7
330
0
100
AcDbSymbolTable
 70
     0
  0
ENDTAB
  0
TABLE
  2
APPID
  5
9
330
0
100
AcDbSymbolTable
 70
     2
  0
APPID
  5
12
330
9
100
AcDbSymbolTableRecord
100
AcDbRegAppTableRecord
  2
ACAD
 70
     0
  0
ENDTAB
  0
TABLE
  2
DIMSTYLE
  5
A
330
0
100
AcDbSymbolTable
 70
     1
  0
DIMSTYLE
105
27
330
A
100
AcDbSymbolTableRecord
100
AcDbDimStyleTableRecord
  2
ISO-25
 70
     0
  3

  4

  5

  6

  7

 40
1.0
 41
2.5
 42
0.625
 43
3.75
 44
1.25
 45
0.0
 46
0.0
 47
0.0
 48
0.0
140
2.5
141
2.5
142
0.0
143
0.03937007874016
144
1.0
145
0.0
146
1.0
147
0.625
 71
     0
 72
     0
 73
     0
 74
     0
 75
     0
 76
     0
 77
     1
 78
     8
170
     0
171
     3
172
     1
173
     0
174
     0
175
     0
176
     0
177
     0
178
     0
270
     2
271
     2
272
     2
273
     2
274
     3
340
11
275
     0
280
     0
281
     0
282
     0
283
     0
284
     8
285
     0
286
     0
287
     3
288
     0
  0
ENDTAB
  0
TABLE
  2
BLOCK_RECORD
  5
1
330
0
100
AcDbSymbolTable
 70
     1
  0
BLOCK_RECORD
  5
1F
330
1
100
AcDbSymbolTableRecord
100
AcDbBlockTableRecord
  2
*MODEL_SPACE
  0
BLOCK_RECORD
  5
1B
330
1
100
AcDbSymbolTableRecord
100
AcDbBlockTableRecord
  2
*PAPER_SPACE
  0
ENDTAB
  0
ENDSEC
  0
SECTION
  2
BLOCKS
  0
BLOCK
  5
20
330
1F
100
AcDbEntity
  8
0
100
AcDbBlockBegin
  2
*MODEL_SPACE
 70
     0
 10
0.0
 20
0.0
 30
0.0
  3
*MODEL_SPACE
  1

  0
ENDBLK
  5
21
330
1F
100
AcDbEntity
  8
0
100
AcDbBlockEnd
  0
BLOCK
  5
1C
330
1B
100
AcDbEntity
 67
     1
  8
0
100
AcDbBlockBegin
  2
*PAPER_SPACE
  1

  0
ENDBLK
  5
1D
330
1B
100
AcDbEntity
 67
     1
  8
0
100
AcDbBlockEnd
  0
ENDSEC
  0
SECTION
  2
ENTITIES
  0
LWPOLYLINE
  5
100
100
AcDbEntity
  8
base
 62
3
100
AcDbPolyline
 90
264
 70
1
 10
49.073334
 20
20.489400
 30
0.0
 10
51.341214
 20
20.373760
 30
0.0
 10
53.585684
 20
20.032460
 30
0.0
 10
55.786794
 20
19.473770
 30
0.0
 10
57.924614
 20
18.705930
 30
0.0
 10
59.979224
 20
17.737190
 30
0.0
 10
61.930684
 20
16.575810
 30
0.0
 10
63.759064
 20
15.230050
 30
0.0
 10
65.444434
 20
13.708150
 30
0.0
 10
66.966334
 20
12.022780
 30
0.0
 10
68.312104
 20
10.194400
 30
0.0
 10
69.473474
 20
8.242950
 30
0.0
 10
70.442214
 20
6.188340
 30
0.0
 10
71.210054
 20
4.050510
 30
0.0
 10
71.768744
 20
1.849400
 30
0.0
 10
72.110044
 20
-0.395060
 30
0.0
 10
72.225684
 20
-2.662940
 30
0.0
 10
72.110044
 20
-4.930830
 30
0.0
 10
71.768744
 20
-7.175290
 30
0.0
 10
71.210044
 20
-9.376400
 30
0.0
 10
70.442204
 20
-11.514220
 30
0.0
 10
69.473474
 20
-13.568830
 30
0.0
 10
68.312094
 20
-15.520290
 30
0.0
 10
66.966334
 20
-17.348670
 30
0.0
 10
65.444434
 20
-19.034040
 30
0.0
 10
63.759064
 20
-20.555940
 30
0.0
 10
61.930684
 20
-21.901710
 30
0.0
 10
59.979224
 20
-23.063090
 30
0.0
 10
57.924624
 20
-24.031820
 30
0.0
 10
55.786794
 20
-24.799660
 30
0.0
 10
53.585684
 20
-25.358360
 30
0.0
 10
51.341224
 20
-25.699650
 30
0.0
 10
49.073334
 20
-25.815290
 30
0.0
 10
46.927234
 20
-25.711700
 30
0.0
 10
44.801134
 20
-25.405730
 30
0.0
 10
42.711914
 20
-24.904360
 30
0.0
 10
40.676464
 20
-24.214580
 30
0.0
 10
38.711664
 20
-23.343380
 30
0.0
 10
36.834384
 20
-22.297740
 30
0.0
 10
35.061514
 20
-21.084670
 30
0.0
 10
33.409924
 20
-19.711140
 30
0.0
 10
33.201214
 20
-19.549300
 30
0.0
 10
33.033764
 20
-19.426480
 30
0.0
 10
32.898444
 20
-19.339780
 30
0.0
 10
32.786114
 20
-19.286380
 30
0.0
 10
32.687614
 20
-19.263480
 30
0.0
 10
32.593914
 20
-19.268480
 30
0.0
 10
32.495814
 20
-19.297780
 30
0.0
 10
32.384134
 20
-19.348980
 30
0.0
 10
32.289634
 20
-19.398880
 30
0.0
 10
32.218934
 20
-19.447180
 30
0.0
 10
32.168534
 20
-19.503980
 30
0.0
 10
32.134934
 20
-19.579380
 30
0.0
 10
32.114834
 20
-19.683440
 30
0.0
 10
32.104734
 20
-19.826310
 30
0.0
 10
32.100734
 20
-20.018080
 30
0.0
 10
32.100324
 20
-20.268860
 30
0.0
 10
32.009424
 20
-22.050900
 30
0.0
 10
31.741084
 20
-23.814490
 30
0.0
 10
31.301864
 20
-25.543980
 30
0.0
 10
30.698264
 20
-27.223710
 30
0.0
 10
29.936794
 20
-28.838040
 30
0.0
 10
29.023964
 20
-30.371320
 30
0.0
 10
27.966294
 20
-31.807910
 30
0.0
 10
26.770284
 20
-33.132150
 30
0.0
 10
25.445924
 20
-34.327980
 30
0.0
 10
24.009284
 20
-35.385430
 30
0.0
 10
22.475994
 20
-36.298010
 30
0.0
 10
20.861684
 20
-37.059220
 30
0.0
 10
19.182004
 20
-37.662540
 30
0.0
 10
17.452574
 20
-38.101500
 30
0.0
 10
15.689024
 20
-38.369570
 30
0.0
 10
13.907004
 20
-38.460270
 30
0.0
 10
12.125074
 20
-38.369370
 30
0.0
 10
10.361534
 20
-38.101210
 30
0.0
 10
8.632044
 20
-37.662230
 30
0.0
 10
6.952284
 20
-37.058940
 30
0.0
 10
5.337904
 20
-36.297800
 30
0.0
 10
3.804574
 20
-35.385300
 30
0.0
 10
2.367964
 20
-34.327910
 30
0.0
 10
1.043724
 20
-33.132130
 30
0.0
 10
0.611414
 20
-32.679770
 30
0.0
 10
0.223364
 20
-32.250030
 30
0.0
 10
-0.136196
 20
-31.854800
 30
0.0
 10
-0.483046
 20
-31.505960
 30
0.0
 10
-0.832946
 20
-31.215430
 30
0.0
 10
-1.201686
 20
-30.995080
 30
0.0
 10
-1.605026
 20
-30.856810
 30
0.0
 10
-2.058756
 20
-30.812510
 30
0.0
 10
-2.492066
 20
-30.866810
 30
0.0
 10
-2.869816
 20
-31.009760
 30
0.0
 10
-3.210216
 20
-31.230690
 30
0.0
 10
-3.531496
 20
-31.518960
 30
0.0
 10
-3.851846
 20
-31.863890
 30
0.0
 10
-4.189486
 20
-32.254830
 30
0.0
 10
-4.562626
 20
-32.681130
 30
0.0
 10
-4.989476
 20
-33.132120
 30
0.0
 10
-6.313706
 20
-34.327910
 30
0.0
 10
-7.750326
 20
-35.385300
 30
0.0
 10
-9.283652
 20
-36.297800
 30
0.0
 10
-10.898032
 20
-37.058940
 30
0.0
 10
-12.577797
 20
-37.662230
 30
0.0
 10
-14.307283
 20
-38.101200
 30
0.0
 10
-16.070823
 20
-38.369360
 30
0.0
 10
-17.852754
 20
-38.460260
 30
0.0
 10
-19.634779
 20
-38.369560
 30
0.0
 10
-21.398323
 20
-38.101490
 30
0.0
 10
-23.127753
 20
-37.662530
 30
0.0
 10
-24.807437
 20
-37.059200
 30
0.0
 10
-26.421740
 20
-36.298000
 30
0.0
 10
-27.955029
 20
-35.385420
 30
0.0
 10
-29.391672
 20
-34.327970
 30
0.0
 10
-30.716034
 20
-33.132140
 30
0.0
 10
-31.912049
 20
-31.807900
 30
0.0
 10
-32.969723
 20
-30.371310
 30
0.0
 10
-33.882548
 20
-28.838030
 30
0.0
 10
-34.644014
 20
-27.223700
 30
0.0
 10
-35.247613
 20
-25.543970
 30
0.0
 10
-35.686835
 20
-23.814480
 30
0.0
 10
-35.955172
 20
-22.050890
 30
0.0
 10
-36.046112
 20
-20.268850
 30
0.0
 10
-36.045012
 20
-20.011020
 30
0.0
 10
-36.045135
 20
-19.802610
 30
0.0
 10
-36.051335
 20
-19.636630
 30
0.0
 10
-36.068445
 20
-19.506090
 30
0.0
 10
-36.101375
 20
-19.403990
 30
0.0
 10
-36.155005
 20
-19.323390
 30
0.0
 10
-36.234215
 20
-19.257190
 30
0.0
 10
-36.343880
 20
-19.198490
 30
0.0
 10
-36.456981
 20
-19.155690
 30
0.0
 10
-36.556871
 20
-19.138990
 30
0.0
 10
-36.651281
 20
-19.149790
 30
0.0
 10
-36.747931
 20
-19.189490
 30
0.0
 10
-36.854558
 20
-19.259390
 30
0.0
 10
-36.978888
 20
-19.360900
 30
0.0
 10
-37.128650
 20
-19.495400
 30
0.0
 10
-37.311573
 20
-19.664250
 30
0.0
 10
-38.965894
 20
-21.048180
 30
0.0
 10
-40.742976
 20
-22.270550
 30
0.0
 10
-42.625733
 20
-23.324280
 30
0.0
 10
-44.597077
 20
-24.202300
 30
0.0
 10
-46.639919
 20
-24.897530
 30
0.0
 10
-48.737173
 20
-25.402910
 30
0.0
 10
-50.871750
 20
-25.711340
 30
0.0
 10
-53.026563
 20
-25.815770
 30
0.0
 10
-55.294620
 20
-25.700300
 30
0.0
 10
-57.539308
 20
-25.359090
 30
0.0
 10
-59.740678
 20
-24.800410
 30
0.0
 10
-61.878784
 20
-24.032540
 30
0.0
 10
-63.933678
 20
-23.063740
 30
0.0
 10
-65.885413
 20
-21.902290
 30
0.0
 10
-67.714040
 20
-20.556460
 30
0.0
 10
-69.399613
 20
-19.034520
 30
0.0
 10
-70.921652
 20
-17.349150
 30
0.0
 10
-72.267482
 20
-15.520800
 30
0.0
 10
-73.428867
 20
-13.569380
 30
0.0
 10
-74.397572
 20
-11.514820
 30
0.0
 10
-75.165360
 20
-9.377020
 30
0.0
 10
-75.723995
 20
-7.175910
 30
0.0
 10
-76.065241
 20
-4.931410
 30
0.0
 10
-76.180863
 20
-2.663420
 30
0.0
 10
-76.065238
 20
-0.395430
 30
0.0
 10
-75.723990
 20
1.849080
 30
0.0
 10
-75.165355
 20
4.050180
 30
0.0
 10
-74.397567
 20
6.187980
 30
0.0
 10
-73.428863
 20
8.242540
 30
0.0
 10
-72.267479
 20
10.193960
 30
0.0
 10
-70.921650
 20
12.022310
 30
0.0
 10
-69.399613
 20
13.707670
 30
0.0
 10
-67.714040
 20
15.229610
 30
0.0
 10
-65.885413
 20
16.575450
 30
0.0
 10
-63.933678
 20
17.736900
 30
0.0
 10
-61.878784
 20
18.705690
 30
0.0
 10
-59.740678
 20
19.473570
 30
0.0
 10
-57.539308
 20
20.032240
 30
0.0
 10
-55.294620
 20
20.373450
 30
0.0
 10
-53.026563
 20
20.488920
 30
0.0
 10
-52.559591
 20
21.248320
 30
0.0
 10
-52.092618
 20
22.007710
 30
0.0
 10
-51.625646
 20
22.767100
 30
0.0
 10
-51.158673
 20
23.526500
 30
0.0
 10
-50.691701
 20
24.285890
 30
0.0
 10
-50.224728
 20
25.045290
 30
0.0
 10
-49.757756
 20
25.804680
 30
0.0
 10
-49.290783
 20
26.564070
 30
0.0
 10
-49.479970
 20
26.657170
 30
0.0
 10
-49.958200
 20
26.914280
 30
0.0
 10
-50.591476
 20
27.301880
 30
0.0
 10
-51.245799
 20
27.786470
 30
0.0
 10
-51.787173
 20
28.334580
 30
0.0
 10
-52.081600
 20
28.912720
 30
0.0
 10
-51.995080
 20
29.487410
 30
0.0
 10
-51.393621
 20
30.025170
 30
0.0
 10
-50.126801
 20
30.840900
 30
0.0
 10
-48.859981
 20
31.656640
 30
0.0
 10
-47.593161
 20
32.472370
 30
0.0
 10
-46.326341
 20
33.288100
 30
0.0
 10
-45.059521
 20
34.103840
 30
0.0
 10
-43.792701
 20
34.919570
 30
0.0
 10
-42.525881
 20
35.735310
 30
0.0
 10
-41.259061
 20
36.551040
 30
0.0
 10
-38.017290
 20
36.551040
 30
0.0
 10
-34.775519
 20
36.551040
 30
0.0
 10
-31.533747
 20
36.551040
 30
0.0
 10
-28.291976
 20
36.551040
 30
0.0
 10
-25.050205
 20
36.551040
 30
0.0
 10
-21.808434
 20
36.551040
 30
0.0
 10
-18.566662
 20
36.551040
 30
0.0
 10
-15.324891
 20
36.551040
 30
0.0
 10
-15.153597
 20
36.418750
 30
0.0
 10
-14.982304
 20
36.286460
 30
0.0
 10
-14.811010
 20
36.154170
 30
0.0
 10
-14.639716
 20
36.021870
 30
0.0
 10
-14.468422
 20
35.889580
 30
0.0
 10
-14.297129
 20
35.757290
 30
0.0
 10
-14.125835
 20
35.625000
 30
0.0
 10
-13.954541
 20
35.492710
 30
0.0
 10
-11.092258
 20
35.492710
 30
0.0
 10
-8.229976
 20
35.492710
 30
0.0
 10
-5.367696
 20
35.492710
 30
0.0
 10
-2.505406
 20
35.492710
 30
0.0
 10
0.356874
 20
35.492710
 30
0.0
 10
3.219154
 20
35.492710
 30
0.0
 10
6.081444
 20
35.492710
 30
0.0
 10
8.943724
 20
35.492710
 30
0.0
 10
9.151914
 20
35.625000
 30
0.0
 10
9.360114
 20
35.757290
 30
0.0
 10
9.568304
 20
35.889580
 30
0.0
 10
9.776504
 20
36.021870
 30
0.0
 10
9.984694
 20
36.154170
 30
0.0
 10
10.192884
 20
36.286460
 30
0.0
 10
10.401084
 20
36.418750
 30
0.0
 10
10.609274
 20
36.551040
 30
0.0
 10
13.851044
 20
36.551040
 30
0.0
 10
17.092814
 20
36.551040
 30
0.0
 10
20.334584
 20
36.551040
 30
0.0
 10
23.576354
 20
36.551040
 30
0.0
 10
26.818134
 20
36.551040
 30
0.0
 10
30.059904
 20
36.551040
 30
0.0
 10
33.301674
 20
36.551040
 30
0.0
 10
36.543444
 20
36.551040
 30
0.0
 10
37.983964
 20
35.673240
 30
0.0
 10
39.424484
 20
34.795450
 30
0.0
 10
40.865004
 20
33.917650
 30
0.0
 10
42.305524
 20
33.039860
 30
0.0
 10
43.746044
 20
32.162060
 30
0.0
 10
45.186564
 20
31.284270
 30
0.0
 10
46.627084
 20
30.406470
 30
0.0
 10
48.067604
 20
29.528680
 30
0.0
 10
48.698364
 20
28.958530
 30
0.0
 10
48.786764
 20
28.414870
 30
0.0
 10
48.474044
 20
27.912950
 30
0.0
 10
47.901454
 20
27.468060
 30
0.0
 10
47.210244
 20
27.095450
 30
0.0
 10
46.541634
 20
26.810390
 30
0.0
 10
46.036894
 20
26.628170
 30
0.0
 10
45.837264
 20
26.564070
 30
0.0
 10
46.241734
 20
25.804670
 30
0.0
 10
46.646204
 20
25.045280
 30
0.0
 10
47.050674
 20
24.285880
 30
0.0
 10
47.455144
 20
23.526490
 30
0.0
 10
47.859624
 20
22.767100
 30
0.0
 10
48.264094
 20
22.007700
 30
0.0
 10
48.668564
 20
21.248310
 30
0.0
  0
LWPOLYLINE
  5
101
100
AcDbEntity
  8
other
 62
7
100
AcDbPolyline
 90
320
 70
1
 10
-53.004634
 20
20.429620
 30
0.0
 10
-55.366762
 20
20.310240
 30
0.0
 10
-57.660679
 20
19.960390
 30
0.0
 10
-59.875014
 20
19.390920
 30
0.0
 10
-61.997366
 20
18.614220
 30
0.0
 10
-64.016880
 20
17.641160
 30
0.0
 10
-65.921674
 20
16.484120
 30
0.0
 10
-67.700375
 20
15.153970
 30
0.0
 10
-69.341104
 20
13.663110
 30
0.0
 10
-70.831967
 20
12.022380
 30
0.0
 10
-72.162118
 20
10.243680
 30
0.0
 10
-73.319154
 20
8.338880
 30
0.0
 10
-74.292223
 20
6.319370
 30
0.0
 10
-75.068918
 20
4.197010
 30
0.0
 10
-75.638394
 20
1.982680
 30
0.0
 10
-75.988241
 20
-0.311240
 30
0.0
 10
-76.107614
 20
-2.673370
 30
0.0
 10
-75.988241
 20
-5.035500
 30
0.0
 10
-75.638394
 20
-7.329410
 30
0.0
 10
-75.068918
 20
-9.543230
 30
0.0
 10
-74.292223
 20
-11.666100
 30
0.0
 10
-73.319154
 20
-13.685610
 30
0.0
 10
-72.162118
 20
-15.590410
 30
0.0
 10
-70.831967
 20
-17.368590
 30
0.0
 10
-69.340585
 20
-19.009320
 30
0.0
 10
-67.700375
 20
-20.500190
 30
0.0
 10
-65.921674
 20
-21.830340
 30
0.0
 10
-64.016880
 20
-22.987370
 30
0.0
 10
-61.997366
 20
-23.960440
 30
0.0
 10
-59.874498
 20
-24.737140
 30
0.0
 10
-57.660679
 20
-25.306610
 30
0.0
 10
-55.366762
 20
-25.656460
 30
0.0
 10
-53.004634
 20
-25.775830
 30
0.0
 10
-51.791786
 20
-25.743230
 30
0.0
 10
-50.588242
 20
-25.648130
 30
0.0
 10
-49.396066
 20
-25.491030
 30
0.0
 10
-48.217845
 20
-25.272960
 30
0.0
 10
-47.055642
 20
-24.994420
 30
0.0
 10
-45.911009
 20
-24.656980
 30
0.0
 10
-44.787046
 20
-24.261650
 30
0.0
 10
-43.685821
 20
-23.809480
 30
0.0
 10
-42.608885
 20
-23.300470
 30
0.0
 10
-41.559336
 20
-22.736680
 30
0.0
 10
-40.538727
 20
-22.118630
 30
0.0
 10
-39.549640
 20
-21.447870
 30
0.0
 10
-38.594142
 20
-20.724400
 30
0.0
 10
-37.674818
 20
-19.949770
 30
0.0
 10
-36.793219
 20
-19.125010
 30
0.0
 10
-35.951926
 20
-18.250650
 30
0.0
 10
-35.965866
 20
-18.374160
 30
0.0
 10
-35.978776
 20
-18.498180
 30
0.0
 10
-35.991186
 20
-18.621690
 30
0.0
 10
-36.002566
 20
-18.745710
 30
0.0
 10
-36.013416
 20
-18.869730
 30
0.0
 10
-36.022716
 20
-18.993760
 30
0.0
 10
-36.032016
 20
-19.117780
 30
0.0
 10
-36.039816
 20
-19.242320
 30
0.0
 10
-36.047016
 20
-19.366340
 30
0.0
 10
-36.053216
 20
-19.490880
 30
0.0
 10
-36.058916
 20
-19.614910
 30
0.0
 10
-36.063616
 20
-19.739450
 30
0.0
 10
-36.067216
 20
-19.863990
 30
0.0
 10
-36.070316
 20
-19.988010
 30
0.0
 10
-36.072416
 20
-20.112550
 30
0.0
 10
-36.073516
 20
-20.237090
 30
0.0
 10
-35.979466
 20
-22.099510
 30
0.0
 10
-35.703514
 20
-23.907670
 30
0.0
 10
-35.254444
 20
-25.653300
 30
0.0
 10
-34.642079
 20
-27.326580
 30
0.0
 10
-33.875200
 20
-28.918730
 30
0.0
 10
-32.962597
 20
-30.420970
 30
0.0
 10
-31.914080
 20
-31.822950
 30
0.0
 10
-30.738441
 20
-33.116410
 30
0.0
 10
-29.444980
 20
-34.292050
 30
0.0
 10
-28.042998
 20
-35.340560
 30
0.0
 10
-26.541281
 20
-36.252650
 30
0.0
 10
-24.949133
 20
-37.019530
 30
0.0
 10
-23.275331
 20
-37.631900
 30
0.0
 10
-21.530219
 20
-38.080960
 30
0.0
 10
-19.721543
 20
-38.356920
 30
0.0
 10
-17.859125
 20
-38.450920
 30
0.0
 10
-16.630776
 20
-38.409020
 30
0.0
 10
-15.417415
 20
-38.285510
 30
0.0
 10
-14.223170
 20
-38.082940
 30
0.0
 10
-13.051151
 20
-37.802850
 30
0.0
 10
-11.905484
 20
-37.447840
 30
0.0
 10
-10.788238
 20
-37.018920
 30
0.0
 10
-9.704066
 20
-36.519210
 30
0.0
 10
-8.655551
 20
-35.949740
 30
0.0
 10
-7.646827
 20
-35.313080
 30
0.0
 10
-6.680995
 20
-34.611320
 30
0.0
 10
-5.761671
 20
-33.845990
 30
0.0
 10
-4.891441
 20
-33.019170
 30
0.0
 10
-4.074952
 20
-32.133430
 30
0.0
 10
-3.314794
 20
-31.190340
 30
0.0
 10
-2.614577
 20
-30.191950
 30
0.0
 10
-1.977923
 20
-29.140330
 30
0.0
 10
-1.341270
 20
-30.191950
 30
0.0
 10
-0.641055
 20
-31.190340
 30
0.0
 10
0.119106
 20
-32.133430
 30
0.0
 10
0.935594
 20
-33.019170
 30
0.0
 10
1.805309
 20
-33.845990
 30
0.0
 10
2.725149
 20
-34.611320
 30
0.0
 10
3.690981
 20
-35.313080
 30
0.0
 10
4.699705
 20
-35.949740
 30
0.0
 10
5.748220
 20
-36.519210
 30
0.0
 10
6.832392
 20
-37.018920
 30
0.0
 10
7.949635
 20
-37.447840
 30
0.0
 10
9.095818
 20
-37.802850
 30
0.0
 10
10.267840
 20
-38.082940
 30
0.0
 10
11.462082
 20
-38.285510
 30
0.0
 10
12.674929
 20
-38.409020
 30
0.0
 10
13.903794
 20
-38.450920
 30
0.0
 10
15.765696
 20
-38.356920
 30
0.0
 10
17.574370
 20
-38.080960
 30
0.0
 10
19.320000
 20
-37.631900
 30
0.0
 10
20.993284
 20
-37.019530
 30
0.0
 10
22.585435
 20
-36.252650
 30
0.0
 10
24.087152
 20
-35.340560
 30
0.0
 10
25.489134
 20
-34.292050
 30
0.0
 10
26.782594
 20
-33.116410
 30
0.0
 10
27.958233
 20
-31.822950
 30
0.0
 10
29.006748
 20
-30.420450
 30
0.0
 10
29.919354
 20
-28.918730
 30
0.0
 10
30.686230
 20
-27.326580
 30
0.0
 10
31.298598
 20
-25.653300
 30
0.0
 10
31.747665
 20
-23.907670
 30
0.0
 10
32.023617
 20
-22.099510
 30
0.0
 10
32.117667
 20
-20.237090
 30
0.0
 10
32.117137
 20
-20.120300
 30
0.0
 10
32.116037
 20
-20.003510
 30
0.0
 10
32.113937
 20
-19.886730
 30
0.0
 10
32.111337
 20
-19.769940
 30
0.0
 10
32.108237
 20
-19.653150
 30
0.0
 10
32.104137
 20
-19.536360
 30
0.0
 10
32.098937
 20
-19.419570
 30
0.0
 10
32.093237
 20
-19.303300
 30
0.0
 10
32.087037
 20
-19.186510
 30
0.0
 10
32.080337
 20
-19.069720
 30
0.0
 10
32.072037
 20
-18.953450
 30
0.0
 10
32.063237
 20
-18.837180
 30
0.0
 10
32.053937
 20
-18.720390
 30
0.0
 10
32.044137
 20
-18.604120
 30
0.0
 10
32.033287
 20
-18.487840
 30
0.0
 10
32.021407
 20
-18.371570
 30
0.0
 10
32.861665
 20
-19.232500
 30
0.0
 10
33.741199
 20
-20.044850
 30
0.0
 10
34.657938
 20
-20.807600
 30
0.0
 10
35.609302
 20
-21.520220
 30
0.0
 10
36.593738
 20
-22.180640
 30
0.0
 10
37.609179
 20
-22.788870
 30
0.0
 10
38.652527
 20
-23.343360
 30
0.0
 10
39.722745
 20
-23.843590
 30
0.0
 10
40.816736
 20
-24.289040
 30
0.0
 10
41.932947
 20
-24.677650
 30
0.0
 10
43.068796
 20
-25.009410
 30
0.0
 10
44.222728
 20
-25.282780
 30
0.0
 10
45.391649
 20
-25.496720
 30
0.0
 10
46.574006
 20
-25.651230
 30
0.0
 10
47.767732
 20
-25.744730
 30
0.0
 10
48.970242
 20
-25.775730
 30
0.0
 10
51.332373
 20
-25.656360
 30
0.0
 10
53.626290
 20
-25.306510
 30
0.0
 10
55.840624
 20
-24.737040
 30
0.0
 10
57.962977
 20
-23.960340
 30
0.0
 10
59.982491
 20
-22.987270
 30
0.0
 10
61.887285
 20
-21.830240
 30
0.0
 10
63.665986
 20
-20.500600
 30
0.0
 10
65.306712
 20
-19.009220
 30
0.0
 10
66.797578
 20
-17.368490
 30
0.0
 10
68.127729
 20
-15.590310
 30
0.0
 10
69.284765
 20
-13.685510
 30
0.0
 10
70.257831
 20
-11.666000
 30
0.0
 10
71.034529
 20
-9.543130
 30
0.0
 10
71.604005
 20
-7.329310
 30
0.0
 10
71.953852
 20
-5.035400
 30
0.0
 10
72.073225
 20
-2.673270
 30
0.0
 10
71.953852
 20
-0.311140
 30
0.0
 10
71.604005
 20
1.982780
 30
0.0
 10
71.034529
 20
4.196600
 30
0.0
 10
70.257831
 20
6.319470
 30
0.0
 10
69.284765
 20
8.338980
 30
0.0
 10
68.127729
 20
10.243780
 30
0.0
 10
66.797578
 20
12.022480
 30
0.0
 10
65.306712
 20
13.663210
 30
0.0
 10
63.665986
 20
15.154070
 30
0.0
 10
61.887285
 20
16.484220
 30
0.0
 10
59.982491
 20
17.641260
 30
0.0
 10
57.962977
 20
18.614320
 30
0.0
 10
55.840624
 20
19.391020
 30
0.0
 10
53.626290
 20
19.960490
 30
0.0
 10
51.332373
 20
20.310340
 30
0.0
 10
48.970242
 20
20.429720
 30
0.0
 10
46.608114
 20
20.310340
 30
0.0
 10
44.314197
 20
19.960490
 30
0.0
 10
42.100378
 20
19.391020
 30
0.0
 10
39.977510
 20
18.614320
 30
0.0
 10
37.957995
 20
17.641260
 30
0.0
 10
36.053202
 20
16.484220
 30
0.0
 10
34.274498
 20
15.154070
 30
0.0
 10
32.633772
 20
13.663210
 30
0.0
 10
31.142908
 20
12.022480
 30
0.0
 10
29.812755
 20
10.243780
 30
0.0
 10
28.655722
 20
8.338980
 30
0.0
 10
27.682653
 20
6.319470
 30
0.0
 10
26.905958
 20
4.196600
 30
0.0
 10
26.336482
 20
1.982780
 30
0.0
 10
25.986634
 20
-0.311140
 30
0.0
 10
25.867260
 20
-2.673270
 30
0.0
 10
25.869360
 20
-2.936820
 30
0.0
 10
25.874560
 20
-3.199850
 30
0.0
 10
25.883360
 20
-3.463400
 30
0.0
 10
25.894740
 20
-3.726430
 30
0.0
 10
25.909210
 20
-3.988950
 30
0.0
 10
25.926780
 20
-4.251980
 30
0.0
 10
25.947440
 20
-4.513980
 30
0.0
 10
25.970700
 20
-4.776500
 30
0.0
 10
25.997570
 20
-5.037980
 30
0.0
 10
26.027030
 20
-5.299980
 30
0.0
 10
26.059070
 20
-5.560950
 30
0.0
 10
26.094730
 20
-5.821910
 30
0.0
 10
26.132970
 20
-6.082360
 30
0.0
 10
26.174310
 20
-6.342290
 30
0.0
 10
26.218750
 20
-6.602220
 30
0.0
 10
26.265770
 20
-6.861120
 30
0.0
 10
25.622917
 20
-6.294230
 30
0.0
 10
24.956292
 20
-5.760420
 30
0.0
 10
24.267960
 20
-5.259670
 30
0.0
 10
23.558958
 20
-4.793030
 30
0.0
 10
22.830322
 20
-4.360500
 30
0.0
 10
22.083597
 20
-3.963110
 30
0.0
 10
21.320337
 20
-3.601380
 30
0.0
 10
20.541057
 20
-3.275300
 30
0.0
 10
19.747823
 20
-2.985910
 30
0.0
 10
18.941670
 20
-2.733730
 30
0.0
 10
18.123633
 20
-2.518240
 30
0.0
 10
17.295260
 20
-2.341500
 30
0.0
 10
16.457584
 20
-2.202490
 30
0.0
 10
15.612158
 20
-2.103290
 30
0.0
 10
14.760531
 20
-2.042790
 30
0.0
 10
13.903217
 20
-2.022590
 30
0.0
 10
12.675386
 20
-2.064490
 30
0.0
 10
11.462542
 20
-2.187480
 30
0.0
 10
10.268816
 20
-2.390050
 30
0.0
 10
9.097310
 20
-2.669620
 30
0.0
 10
7.951643
 20
-3.025150
 30
0.0
 10
6.834916
 20
-3.453040
 30
0.0
 10
5.750743
 20
-3.952750
 30
0.0
 10
4.702747
 20
-4.521700
 30
0.0
 10
3.694539
 20
-5.157840
 30
0.0
 10
2.728707
 20
-5.859610
 30
0.0
 10
1.808867
 20
-6.623900
 30
0.0
 10
0.939153
 20
-7.450210
 30
0.0
 10
0.122664
 20
-8.335420
 30
0.0
 10
-0.637497
 20
-9.278000
 30
0.0
 10
-1.337711
 20
-10.275360
 30
0.0
 10
-1.974881
 20
-11.326460
 30
0.0
 10
-2.612053
 20
-10.275360
 30
0.0
 10
-3.312268
 20
-9.276970
 30
0.0
 10
-4.072945
 20
-8.334390
 30
0.0
 10
-4.889949
 20
-7.448660
 30
0.0
 10
-5.760182
 20
-6.622870
 30
0.0
 10
-6.680022
 20
-5.858060
 30
0.0
 10
-7.646370
 20
-5.156290
 30
0.0
 10
-8.655094
 20
-4.520150
 30
0.0
 10
-9.703609
 20
-3.951200
 30
0.0
 10
-10.788297
 20
-3.451490
 30
0.0
 10
-11.905024
 20
-3.023600
 30
0.0
 10
-13.051726
 20
-2.668590
 30
0.0
 10
-14.223229
 20
-2.389020
 30
0.0
 10
-15.417474
 20
-2.186960
 30
0.0
 10
-16.630834
 20
-2.063970
 30
0.0
 10
-17.859699
 20
-2.022670
 30
0.0
 10
-18.725281
 20
-2.043370
 30
0.0
 10
-19.585693
 20
-2.105370
 30
0.0
 10
-20.438871
 20
-2.207170
 30
0.0
 10
-21.284815
 20
-2.348760
 30
0.0
 10
-22.120938
 20
-2.529120
 30
0.0
 10
-22.946211
 20
-2.748740
 30
0.0
 10
-23.759598
 20
-3.006610
 30
0.0
 10
-24.559550
 20
-3.301680
 30
0.0
 10
-25.345032
 20
-3.633960
 30
0.0
 10
-26.113977
 20
-4.002930
 30
0.0
 10
-26.865870
 20
-4.408070
 30
0.0
 10
-27.599157
 20
-4.848870
 30
0.0
 10
-28.312810
 20
-5.324300
 30
0.0
 10
-29.004756
 20
-5.834340
 30
0.0
 10
-29.673967
 20
-6.378490
 30
0.0
 10
-30.319405
 20
-6.955720
 30
0.0
 10
-30.269795
 20
-6.690620
 30
0.0
 10
-30.223285
 20
-6.425520
 30
0.0
 10
-30.180395
 20
-6.159380
 30
0.0
 10
-30.140085
 20
-5.893250
 30
0.0
 10
-30.102875
 20
-5.626600
 30
0.0
 10
-30.069285
 20
-5.359430
 30
0.0
 10
-30.038275
 20
-5.092270
 30
0.0
 10
-30.010885
 20
-4.824070
 30
0.0
 10
-29.986095
 20
-4.556380
 30
0.0
 10
-29.964905
 20
-4.287670
 30
0.0
 10
-29.946805
 20
-4.018950
 30
0.0
 10
-29.931305
 20
-3.750230
 30
0.0
 10
-29.919425
 20
-3.481510
 30
0.0
 10
-29.910625
 20
-3.212280
 30
0.0
 10
-29.904925
 20
-2.943050
 30
0.0
 10
-29.902325
 20
-2.673290
 30
0.0
 10
-30.021181
 20
-0.311160
 30
0.0
 10
-30.371548
 20
1.982750
 30
0.0
 10
-30.941021
 20
4.196570
 30
0.0
 10
-31.717719
 20
6.319440
 30
0.0
 10
-32.690269
 20
8.338950
 30
0.0
 10
-33.847821
 20
10.243750
 30
0.0
 10
-35.177455
 20
12.022450
 30
0.0
 10
-36.668838
 20
13.663180
 30
0.0
 10
-38.309564
 20
15.154040
 30
0.0
 10
-40.087749
 20
16.484190
 30
0.0
 10
-41.993058
 20
17.641230
 30
0.0
 10
-44.012575
 20
18.614300
 30
0.0
 10
-46.134925
 20
19.390990
 30
0.0
 10
-48.349260
 20
19.960470
 30
0.0
 10
-50.643177
 20
20.310320
 30
0.0
  0
LWPOLYLINE
  5
102
100
AcDbEntity
  8
other
 62
7
100
AcDbPolyline
 90
33
 70
0
 10
-53.004105
 20
18.505190
 30
0.0
 10
-50.835762
 20
18.395630
 30
0.0
 10
-48.734597
 20
18.075240
 30
0.0
 10
-46.705264
 20
17.553820
 30
0.0
 10
-44.759648
 20
16.842760
 30
0.0
 10
-42.910147
 20
15.952370
 30
0.0
 10
-41.164001
 20
14.889900
 30
0.0
 10
-39.533093
 20
13.668790
 30
0.0
 10
-38.027241
 20
12.304010
 30
0.0
 10
-36.661951
 20
10.798160
 30
0.0
 10
-35.441354
 20
9.167250
 30
0.0
 10
-34.378885
 20
7.421110
 30
0.0
 10
-33.488502
 20
5.571610
 30
0.0
 10
-32.779500
 20
3.625990
 30
0.0
 10
-32.256017
 20
1.598720
 30
0.0
 10
-31.935625
 20
-0.505020
 30
0.0
 10
-31.824003
 20
-2.713670
 30
0.0
 10
-31.826103
 20
-2.915210
 30
0.0
 10
-31.830203
 20
-3.154990
 30
0.0
 10
-31.840003
 20
-3.405100
 30
0.0
 10
-31.849803
 20
-3.653150
 30
0.0
 10
-31.865303
 20
-3.899130
 30
0.0
 10
-31.880803
 20
-4.149250
 30
0.0
 10
-31.900433
 20
-4.395230
 30
0.0
 10
-31.921623
 20
-4.637590
 30
0.0
 10
-31.949013
 20
-4.883570
 30
0.0
 10
-31.976403
 20
-5.129550
 30
0.0
 10
-32.007923
 20
-5.368290
 30
0.0
 10
-32.043063
 20
-5.622020
 30
0.0
 10
-32.078203
 20
-5.865940
 30
0.0
 10
-32.116963
 20
-6.104160
 30
0.0
 10
-32.160373
 20
-6.350660
 30
0.0
 10
-32.206883
 20
-6.608530
 30
0.0
  0
SPLINE
  5
103
100
AcDbEntity
  8
other
 62
7
100
AcDbSpline
 70
0
 71
3
 72
13
 73
9
 74
7
 40
0.000000
 40
0.000000
 40
0.000000
 40
0.000000
 40
0.794413
 40
1.573268
 40
2.367682
 40
3.162095
 40
3.940950
 40
4.735363
 40
4.735363
 40
4.735363
 40
4.735363
 10
-32.206883
 20
-6.608530
 30
0.0
 10
-32.222914
 20
-6.876741
 30
0.0
 10
-32.254662
 20
-7.407909
 30
0.0
 10
-31.891171
 20
-8.145240
 30
0.0
 10
-31.283877
 20
-8.680345
 30
0.0
 10
-30.510407
 20
-8.918853
 30
0.0
 10
-29.691776
 20
-8.843841
 30
0.0
 10
-29.255352
 20
-8.539404
 30
0.0
 10
-29.034982
 20
-8.385680
 30
0.0
 11
-32.206883
 21
-6.608530
 31
0.0
 11
-32.185298
 21
-7.402650
 31
0.0
 11
-31.853856
 21
-8.107463
 31
0.0
 11
-31.255999
 21
-8.630588
 31
0.0
 11
-30.497673
 21
-8.867304
 31
0.0
 11
-29.723511
 21
-8.781938
 31
0.0
 11
-29.034982
 21
-8.385680
 31
0.0
  0
LWPOLYLINE
  5
104
100
AcDbEntity
  8
other
 62
7
100
AcDbPolyline
 90
33
 70
0
 10
-29.034982
 20
-8.385680
 30
0.0
 10
-28.427784
 20
-7.840490
 30
0.0
 10
-27.828339
 20
-7.354220
 30
0.0
 10
-27.207187
 20
-6.897400
 30
0.0
 10
-26.572084
 20
-6.471580
 30
0.0
 10
-25.914243
 20
-6.078840
 30
0.0
 10
-25.240383
 20
-5.715560
 30
0.0
 10
-24.552570
 20
-5.385860
 30
0.0
 10
-23.851321
 20
-5.088720
 30
0.0
 10
-23.136636
 20
-4.825170
 30
0.0
 10
-22.407998
 20
-4.594700
 30
0.0
 10
-21.670059
 20
-4.397290
 30
0.0
 10
-20.923852
 20
-4.235030
 30
0.0
 10
-20.165757
 20
-4.110490
 30
0.0
 10
-19.402498
 20
-4.018490
 30
0.0
 10
-18.633034
 20
-3.963690
 30
0.0
 10
-17.867189
 20
-3.944090
 30
0.0
 10
-16.759763
 20
-3.981290
 30
0.0
 10
-15.675593
 20
-4.090850
 30
0.0
 10
-14.607441
 20
-4.272230
 30
0.0
 10
-13.558407
 20
-4.522340
 30
0.0
 10
-12.533147
 20
-4.840670
 30
0.0
 10
-11.533210
 20
-5.223590
 30
0.0
 10
-10.564277
 20
-5.670590
 30
0.0
 10
-9.626866
 20
-6.178570
 30
0.0
 10
-8.724594
 20
-6.749080
 30
0.0
 10
-7.859531
 20
-7.375920
 30
0.0
 10
-7.035293
 20
-8.059600
 30
0.0
 10
-6.257561
 20
-8.797540
 30
0.0
 10
-5.527375
 20
-9.590770
 30
0.0
 10
-4.847829
 20
-10.432580
 30
0.0
 10
-4.220479
 20
-11.325030
 30
0.0
 10
-3.618964
 20
-12.321350
 30
0.0
  0
SPLINE
  5
105
100
AcDbEntity
  8
other
 62
7
100
AcDbSpline
 70
0
 71
3
 72
13
 73
9
 74
7
 40
0.000000
 40
0.000000
 40
0.000000
 40
0.000000
 40
0.657145
 40
1.305234
 40
1.962378
 40
2.619523
 40
3.267612
 40
3.924757
 40
3.924757
 40
3.924757
 40
3.924757
 10
-3.618964
 20
-12.321350
 30
0.0
 10
-3.486190
 20
-12.498315
 30
0.0
 10
-3.222472
 20
-12.849807
 30
0.0
 10
-2.631075
 20
-13.170722
 30
0.0
 10
-1.975982
 20
-13.287465
 30
0.0
 10
-1.320748
 20
-13.171520
 30
0.0
 10
-0.728960
 20
-12.851324
 30
0.0
 10
-0.464815
 20
-12.500153
 30
0.0
 10
-0.331826
 20
-12.323350
 30
0.0
 11
-3.618964
 21
-12.321350
 31
0.0
 11
-3.187782
 21
-12.817255
 31
0.0
 11
-2.623359
 21
-13.135761
 31
0.0
 11
-1.975959
 21
-13.248505
 31
0.0
 11
-1.328421
 21
-13.136548
 31
0.0
 11
-0.763611
 21
-12.818729
 31
0.0
 11
-0.331826
 21
-12.323350
 31
0.0
  0
LWPOLYLINE
  5
106
100
AcDbEntity
  8
other
 62
7
100
AcDbPolyline
 90
33
 70
0
 10
-0.331826
 20
-12.323350
 30
0.0
 10
0.271239
 20
-11.327540
 30
0.0
 10
0.898590
 20
-10.435090
 30
0.0
 10
1.578135
 20
-9.591220
 30
0.0
 10
2.308840
 20
-8.800050
 30
0.0
 10
3.086054
 20
-8.062110
 30
0.0
 10
3.908225
 20
-7.378430
 30
0.0
 10
4.773288
 20
-6.749530
 30
0.0
 10
5.675560
 20
-6.181090
 30
0.0
 10
6.613487
 20
-5.671040
 30
0.0
 10
7.583970
 20
-5.226110
 30
0.0
 10
8.580291
 20
-4.841120
 30
0.0
 10
9.605551
 20
-4.524860
 30
0.0
 10
10.654066
 20
-4.272680
 30
0.0
 10
11.720667
 20
-4.093360
 30
0.0
 10
12.806906
 20
-3.983810
 30
0.0
 10
13.914333
 20
-3.944510
 30
0.0
 10
14.669843
 20
-3.964110
 30
0.0
 10
15.435687
 20
-4.016810
 30
0.0
 10
16.187580
 20
-4.104610
 30
0.0
 10
16.935337
 20
-4.229670
 30
0.0
 10
17.677927
 20
-4.387800
 30
0.0
 10
18.410183
 20
-4.581070
 30
0.0
 10
19.131069
 20
-4.805860
 30
0.0
 10
19.838002
 20
-5.065800
 30
0.0
 10
20.539251
 20
-5.358800
 30
0.0
 10
21.222413
 20
-5.680750
 30
0.0
 10
21.886972
 20
-6.034210
 30
0.0
 10
22.541197
 20
-6.423340
 30
0.0
 10
23.175784
 20
-6.839330
 30
0.0
 10
23.791250
 20
-7.288400
 30
0.0
 10
24.385012
 20
-7.764850
 30
0.0
 10
24.992209
 20
-8.301770
 30
0.0
  0
SPLINE
  5
107
100
AcDbEntity
  8
other
 62
7
100
AcDbSpline
 70
0
 71
3
 72
13
 73
9
 74
7
 40
0.000000
 40
0.000000
 40
0.000000
 40
0.000000
 40
0.791867
 40
1.568317
 40
2.360184
 40
3.152052
 40
3.928502
 40
4.720369
 40
4.720369
 40
4.720369
 40
4.720369
 10
24.992209
 20
-8.301770
 30
0.0
 10
25.212691
 20
-8.453777
 30
0.0
 10
25.649363
 20
-8.754831
 30
0.0
 10
26.465481
 20
-8.826422
 30
0.0
 10
27.235759
 20
-8.586724
 30
0.0
 10
27.840360
 20
-8.052645
 30
0.0
 10
28.202648
 20
-7.317852
 30
0.0
 10
28.171887
 20
-6.788352
 30
0.0
 10
28.156356
 20
-6.521000
 30
0.0
 11
24.992209
 21
-8.301770
 31
0.0
 11
25.680585
 21
-8.693168
 31
0.0
 11
26.452684
 21
-8.775254
 31
0.0
 11
27.207966
 21
-8.537340
 31
0.0
 11
27.803261
 21
-8.015154
 31
0.0
 11
28.133735
 21
-7.312544
 31
0.0
 11
28.156356
 21
-6.521000
 31
0.0
  0
LWPOLYLINE
  5
108
100
AcDbEntity
  8
other
 62
7
100
AcDbPolyline
 90
85
 70
0
 10
28.156356
 20
-6.521000
 30
0.0
 10
28.111396
 20
-6.268820
 30
0.0
 10
28.070576
 20
-6.028530
 30
0.0
 10
28.033366
 20
-5.798050
 30
0.0
 10
27.998226
 20
-5.552070
 30
0.0
 10
27.998226
 20
-5.551540
 30
0.0
 10
27.998226
 20
-5.551010
 30
0.0
 10
27.998226
 20
-5.550480
 30
0.0
 10
27.998226
 20
-5.549950
 30
0.0
 10
27.963086
 20
-5.311730
 30
0.0
 10
27.935696
 20
-5.079180
 30
0.0
 10
27.908306
 20
-4.831130
 30
0.0
 10
27.882986
 20
-4.590840
 30
0.0
 10
27.861296
 20
-4.358810
 30
0.0
 10
27.843726
 20
-4.116450
 30
0.0
 10
27.828226
 20
-3.868400
 30
0.0
 10
27.812716
 20
-3.626040
 30
0.0
 10
27.802916
 20
-3.391950
 30
0.0
 10
27.795116
 20
-3.151650
 30
0.0
 10
27.791016
 20
-2.907220
 30
0.0
 10
27.788916
 20
-2.713950
 30
0.0
 10
27.900538
 20
-0.506850
 30
0.0
 10
28.222480
 20
1.598450
 30
0.0
 10
28.743897
 20
3.625710
 30
0.0
 10
29.454965
 20
5.571330
 30
0.0
 10
30.347418
 20
7.420830
 30
0.0
 10
31.406267
 20
9.166980
 30
0.0
 10
32.626864
 20
10.797890
 30
0.0
 10
33.994223
 20
12.301670
 30
0.0
 10
35.500072
 20
13.668510
 30
0.0
 10
37.128914
 20
14.889630
 30
0.0
 10
38.877129
 20
15.952090
 30
0.0
 10
40.728694
 20
16.842480
 30
0.0
 10
42.669662
 20
17.553550
 30
0.0
 10
44.698995
 20
18.074960
 30
0.0
 10
46.802742
 20
18.395360
 30
0.0
 10
48.970568
 20
18.504910
 30
0.0
 10
51.138913
 20
18.395360
 30
0.0
 10
53.242142
 20
18.074960
 30
0.0
 10
55.271477
 20
17.553550
 30
0.0
 10
57.212961
 20
16.842480
 30
0.0
 10
59.064525
 20
15.952090
 30
0.0
 10
60.812741
 20
14.889630
 30
0.0
 10
62.441582
 20
13.668510
 30
0.0
 10
63.947432
 20
12.301670
 30
0.0
 10
65.314275
 20
10.797890
 30
0.0
 10
66.535388
 20
9.166980
 30
0.0
 10
67.593721
 20
7.420830
 30
0.0
 10
68.486174
 20
5.571330
 30
0.0
 10
69.197241
 20
3.625710
 30
0.0
 10
69.718656
 20
1.598450
 30
0.0
 10
70.041117
 20
-0.506850
 30
0.0
 10
70.150154
 20
-2.673130
 30
0.0
 10
70.041117
 20
-4.840950
 30
0.0
 10
69.718656
 20
-6.944700
 30
0.0
 10
69.197241
 20
-8.974030
 30
0.0
 10
68.486174
 20
-10.919140
 30
0.0
 10
67.595787
 20
-12.768630
 30
0.0
 10
66.533321
 20
-14.514780
 30
0.0
 10
65.314275
 20
-16.143620
 30
0.0
 10
63.947432
 20
-17.649470
 30
0.0
 10
62.441582
 20
-19.016830
 30
0.0
 10
60.810672
 20
-20.237430
 30
0.0
 10
59.064525
 20
-21.296280
 30
0.0
 10
57.215027
 20
-22.188730
 30
0.0
 10
55.269408
 20
-22.899800
 30
0.0
 10
53.242142
 20
-23.421210
 30
0.0
 10
51.136844
 20
-23.743160
 30
0.0
 10
48.947314
 20
-23.854780
 30
0.0
 10
47.867277
 20
-23.825280
 30
0.0
 10
46.773288
 20
-23.739480
 30
0.0
 10
45.691182
 20
-23.598920
 30
0.0
 10
44.617347
 20
-23.401520
 30
0.0
 10
43.558498
 20
-23.151400
 30
0.0
 10
42.519283
 20
-22.848580
 30
0.0
 10
41.494023
 20
-22.489430
 30
0.0
 10
40.492016
 20
-22.083250
 30
0.0
 10
39.511714
 20
-21.624360
 30
0.0
 10
38.554668
 20
-21.114320
 30
0.0
 10
37.622941
 20
-20.557760
 30
0.0
 10
36.720672
 20
-19.952110
 30
0.0
 10
35.849407
 20
-19.299960
 30
0.0
 10
35.007598
 20
-18.600780
 30
0.0
 10
34.200929
 20
-17.856640
 30
0.0
 10
33.396325
 20
-17.030330
 30
0.0
  0
SPLINE
  5
109
100
AcDbEntity
  8
other
 62
7
100
AcDbSpline
 70
0
 71
3
 72
13
 73
9
 74
7
 40
0.000000
 40
0.000000
 40
0.000000
 40
0.000000
 40
0.790878
 40
1.566393
 40
2.357271
 40
3.148149
 40
3.923664
 40
4.714542
 40
4.714542
 40
4.714542
 40
4.714542
 10
33.396325
 20
-17.030330
 30
0.0
 10
33.187911
 20
-16.862706
 30
0.0
 10
32.775131
 20
-16.530714
 30
0.0
 10
31.967667
 20
-16.398848
 30
0.0
 10
31.182636
 20
-16.580008
 30
0.0
 10
30.540355
 20
-17.066392
 30
0.0
 10
30.123942
 20
-17.770656
 30
0.0
 10
30.114137
 20
-18.300287
 30
0.0
 10
30.109187
 20
-18.567700
 30
0.0
 11
33.396325
 21
-17.030330
 31
0.0
 11
32.739529
 21
-16.589754
 31
0.0
 11
31.976584
 21
-16.450694
 31
0.0
 11
31.206582
 21
-16.631210
 31
0.0
 11
30.574430
 21
-17.106470
 31
0.0
 11
30.192078
 21
-17.781178
 31
0.0
 11
30.109187
 21
-18.567700
 31
0.0
  0
LWPOLYLINE
  5
10a
100
AcDbEntity
  8
other
 62
7
100
AcDbPolyline
 90
5
 70
0
 10
30.109187
 20
-18.567700
 30
0.0
 10
30.121067
 20
-18.680870
 30
0.0
 10
30.130867
 20
-18.780570
 30
0.0
 10
30.138667
 20
-18.864270
 30
0.0
 10
30.146467
 20
-18.963970
 30
0.0
  0
SPLINE
  5
10b
100
AcDbEntity
  8
other
 62
7
100
AcDbSpline
 70
0
 71
3
 72
10
 73
6
 74
4
 40
0.000000
 40
0.000000
 40
0.000000
 40
0.000000
 40
0.011056
 40
0.022111
 40
0.033167
 40
0.033167
 40
0.033167
 40
0.033167
 10
30.146467
 20
-18.963970
 30
0.0
 10
30.146675
 20
-18.967649
 30
0.0
 10
30.147091
 20
-18.975008
 30
0.0
 10
30.147791
 20
-18.986042
 30
0.0
 10
30.148308
 20
-18.993394
 30
0.0
 10
30.148567
 20
-18.997070
 30
0.0
 11
30.146467
 21
-18.963970
 31
0.0
 11
30.147104
 21
-18.975007
 31
0.0
 11
30.147804
 21
-18.986041
 31
0.0
 11
30.148567
 21
-18.997070
 31
0.0
  0
LWPOLYLINE
  5
10c
100
AcDbEntity
  8
other
 62
7
100
AcDbPolyline
 90
7
 70
0
 10
30.148567
 20
-18.997070
 30
0.0
 10
30.156367
 20
-19.098870
 30
0.0
 10
30.164167
 20
-19.198070
 30
0.0
 10
30.170367
 20
-19.297770
 30
0.0
 10
30.176067
 20
-19.399570
 30
0.0
 10
30.179667
 20
-19.500860
 30
0.0
 10
30.183767
 20
-19.600560
 30
0.0
  0
SPLINE
  5
10d
100
AcDbEntity
  8
other
 62
7
100
AcDbSpline
 70
0
 71
3
 72
10
 73
6
 74
4
 40
0.000000
 40
0.000000
 40
0.000000
 40
0.000000
 40
0.010357
 40
0.020714
 40
0.031071
 40
0.031071
 40
0.031071
 40
0.031071
 10
30.183767
 20
-19.600560
 30
0.0
 10
30.183978
 20
-19.604006
 30
0.0
 10
30.184400
 20
-19.610898
 30
0.0
 10
30.185100
 20
-19.621231
 30
0.0
 10
30.185611
 20
-19.628117
 30
0.0
 10
30.185867
 20
-19.631560
 30
0.0
 11
30.183767
 21
-19.600560
 31
0.0
 11
30.184411
 21
-19.610897
 31
0.0
 11
30.185111
 21
-19.621230
 31
0.0
 11
30.185867
 21
-19.631560
 31
0.0
  0
LWPOLYLINE
  5
10e
100
AcDbEntity
  8
other
 62
7
100
AcDbPolyline
 90
3
 70
0
 10
30.185867
 20
-19.631560
 30
0.0
 10
30.189467
 20
-19.717860
 30
0.0
 10
30.189467
 20
-19.801560
 30
0.0
  0
SPLINE
  5
10f
100
AcDbEntity
  8
other
 62
7
100
AcDbSpline
 70
0
 71
3
 72
10
 73
6
 74
4
 40
0.000000
 40
0.000000
 40
0.000000
 40
0.000000
 40
0.011222
 40
0.022444
 40
0.033666
 40
0.033666
 40
0.033666
 40
0.033666
 10
30.189467
 20
-19.801560
 30
0.0
 10
30.189674
 20
-19.805295
 30
0.0
 10
30.190088
 20
-19.812765
 30
0.0
 10
30.190789
 20
-19.823965
 30
0.0
 10
30.191308
 20
-19.831428
 30
0.0
 10
30.191567
 20
-19.835160
 30
0.0
 11
30.189467
 21
-19.801560
 31
0.0
 11
30.190102
 21
-19.812764
 31
0.0
 11
30.190802
 21
-19.823964
 31
0.0
 11
30.191567
 21
-19.835160
 31
0.0
  0
LWPOLYLINE
  5
110
100
AcDbEntity
  8
other
 62
7
100
AcDbPolyline
 90
37
 70
0
 10
30.191567
 20
-19.835160
 30
0.0
 10
30.195667
 20
-19.936450
 30
0.0
 10
30.195667
 20
-20.018650
 30
0.0
 10
30.195667
 20
-20.119930
 30
0.0
 10
30.195667
 20
-20.188630
 30
0.0
 10
30.109367
 20
-21.905320
 30
0.0
 10
29.863389
 20
-23.522280
 30
0.0
 10
29.462894
 20
-25.082910
 30
0.0
 10
28.914093
 20
-26.578940
 30
0.0
 10
28.228862
 20
-28.001080
 30
0.0
 10
27.414443
 20
-29.344660
 30
0.0
 10
26.476516
 20
-30.598850
 30
0.0
 10
25.423866
 20
-31.756920
 30
0.0
 10
24.265798
 20
-32.809570
 30
0.0
 10
23.012128
 20
-33.746980
 30
0.0
 10
21.668023
 20
-34.563470
 30
0.0
 10
20.246404
 20
-35.249210
 30
0.0
 10
18.750370
 20
-35.793880
 30
0.0
 10
17.189744
 20
-36.196440
 30
0.0
 10
15.572270
 20
-36.442420
 30
0.0
 10
13.888652
 20
-36.526120
 30
0.0
 10
12.804998
 20
-36.491020
 30
0.0
 10
11.720825
 20
-36.381980
 30
0.0
 10
10.652676
 20
-36.200080
 30
0.0
 10
9.603643
 20
-35.949970
 30
0.0
 10
8.580449
 20
-35.631640
 30
0.0
 10
7.579993
 20
-35.247160
 30
0.0
 10
6.609509
 20
-34.799650
 30
0.0
 10
5.672101
 20
-34.292180
 30
0.0
 10
4.769830
 20
-33.721680
 30
0.0
 10
3.904251
 20
-33.094840
 30
0.0
 10
3.084145
 20
-32.411160
 30
0.0
 10
2.304863
 20
-31.671160
 30
0.0
 10
1.576227
 20
-30.879990
 30
0.0
 10
0.894615
 20
-30.034050
 30
0.0
 10
0.267780
 20
-29.141590
 30
0.0
 10
-0.333734
 20
-28.145270
 30
0.0
  0
SPLINE
  5
111
100
AcDbEntity
  8
other
 62
7
100
AcDbSpline
 70
0
 71
3
 72
13
 73
9
 74
7
 40
0.000000
 40
0.000000
 40
0.000000
 40
0.000000
 40
0.657809
 40
1.306536
 40
1.964345
 40
2.622154
 40
3.270881
 40
3.928690
 40
3.928690
 40
3.928690
 40
3.928690
 10
-0.333734
 20
-28.145270
 30
0.0
 10
-0.466587
 20
-27.968079
 30
0.0
 10
-0.730458
 20
-27.616143
 30
0.0
 10
-1.322513
 20
-27.294947
 30
0.0
 10
-1.978336
 20
-27.178368
 30
0.0
 10
-2.634160
 20
-27.294947
 30
0.0
 10
-3.226215
 20
-27.616143
 30
0.0
 10
-3.490086
 20
-27.968079
 30
0.0
 10
-3.622939
 20
-28.145270
 30
0.0
 11
-0.333734
 21
-28.145270
 31
0.0
 11
-0.765225
 21
-27.648754
 31
0.0
 11
-1.330232
 21
-27.329985
 31
0.0
 11
-1.978336
 21
-27.217407
 31
0.0
 11
-2.626441
 21
-27.329985
 31
0.0
 11
-3.191447
 21
-27.648754
 31
0.0
 11
-3.622939
 21
-28.145270
 31
0.0
  0
LWPOLYLINE
  5
112
100
AcDbEntity
  8
other
 62
7
100
AcDbPolyline
 90
61
 70
0
 10
-3.622939
 20
-28.145270
 30
0.0
 10
-4.226520
 20
-29.143660
 30
0.0
 10
-4.851288
 20
-30.036110
 30
0.0
 10
-5.529283
 20
-30.877920
 30
0.0
 10
-6.259472
 20
-31.669090
 30
0.0
 10
-7.038752
 20
-32.409090
 30
0.0
 10
-7.860923
 20
-33.092780
 30
0.0
 10
-8.726505
 20
-33.723740
 30
0.0
 10
-9.628774
 20
-34.292180
 30
0.0
 10
-10.564118
 20
-34.799650
 30
0.0
 10
-11.537185
 20
-35.247160
 30
0.0
 10
-12.535058
 20
-35.631640
 30
0.0
 10
-13.558249
 20
-35.949970
 30
0.0
 10
-14.607282
 20
-36.200080
 30
0.0
 10
-15.675434
 20
-36.381980
 30
0.0
 10
-16.759604
 20
-36.491020
 30
0.0
 10
-17.843777
 20
-36.526120
 30
0.0
 10
-19.527395
 20
-36.442420
 30
0.0
 10
-21.144351
 20
-36.196440
 30
0.0
 10
-22.704980
 20
-35.793880
 30
0.0
 10
-24.201011
 20
-35.249210
 30
0.0
 10
-25.622630
 20
-34.563470
 30
0.0
 10
-26.966734
 20
-33.746980
 30
0.0
 10
-28.220404
 20
-32.809570
 30
0.0
 10
-29.378991
 20
-31.756920
 30
0.0
 10
-30.431638
 20
-30.598850
 30
0.0
 10
-31.369049
 20
-29.344660
 30
0.0
 10
-32.185537
 20
-28.001080
 30
0.0
 10
-32.870766
 20
-26.578940
 30
0.0
 10
-33.415953
 20
-25.082910
 30
0.0
 10
-33.817995
 20
-23.522280
 30
0.0
 10
-34.064492
 20
-21.903260
 30
0.0
 10
-34.152342
 20
-20.202070
 30
0.0
 10
-34.150242
 20
-20.141570
 30
0.0
 10
-34.150242
 20
-20.034080
 30
0.0
 10
-34.146142
 20
-19.924530
 30
0.0
 10
-34.142542
 20
-19.799990
 30
0.0
 10
-34.138442
 20
-19.690430
 30
0.0
 10
-34.132742
 20
-19.582940
 30
0.0
 10
-34.132742
 20
-19.582420
 30
0.0
 10
-34.132742
 20
-19.581890
 30
0.0
 10
-34.132742
 20
-19.581360
 30
0.0
 10
-34.132742
 20
-19.580830
 30
0.0
 10
-34.128642
 20
-19.471790
 30
0.0
 10
-34.120842
 20
-19.364300
 30
0.0
 10
-34.120842
 20
-19.363770
 30
0.0
 10
-34.120842
 20
-19.363250
 30
0.0
 10
-34.120842
 20
-19.362720
 30
0.0
 10
-34.120842
 20
-19.362190
 30
0.0
 10
-34.113042
 20
-19.237130
 30
0.0
 10
-34.107342
 20
-19.129640
 30
0.0
 10
-34.099542
 20
-19.036140
 30
0.0
 10
-34.089742
 20
-18.926580
 30
0.0
 10
-34.077862
 20
-18.803590
 30
0.0
 10
-34.065982
 20
-18.680600
 30
0.0
 10
-34.065982
 20
-18.680070
 30
0.0
 10
-34.065982
 20
-18.679540
 30
0.0
 10
-34.065982
 20
-18.679020
 30
0.0
 10
-34.065982
 20
-18.678490
 30
0.0
 10
-34.056182
 20
-18.584990
 30
0.0
 10
-34.044802
 20
-18.492990
 30
0.0
  0
LWPOLYLINE
  5
113
100
AcDbEntity
  8
other
 62
7
100
AcDbPolyline
 90
49
 70
0
 10
-37.334006
 20
-16.916860
 30
0.0
 10
-38.142227
 20
-17.754530
 30
0.0
 10
-38.948896
 20
-18.512630
 30
0.0
 10
-39.792771
 20
-19.221630
 30
0.0
 10
-40.667653
 20
-19.885670
 30
0.0
 10
-41.576127
 20
-20.500620
 30
0.0
 10
-42.511468
 20
-21.066990
 30
0.0
 10
-43.474200
 20
-21.582720
 30
0.0
 10
-44.462770
 20
-22.051430
 30
0.0
 10
-45.470462
 20
-22.465870
 30
0.0
 10
-46.499856
 20
-22.829160
 30
0.0
 10
-47.548370
 20
-23.137670
 30
0.0
 10
-48.617038
 20
-23.391400
 30
0.0
 10
-49.697078
 20
-23.592420
 30
0.0
 10
-50.789000
 20
-23.735050
 30
0.0
 10
-51.892291
 20
-23.822950
 30
0.0
 10
-52.982147
 20
-23.854450
 30
0.0
 10
-55.171678
 20
-23.742830
 30
0.0
 10
-57.275425
 20
-23.420880
 30
0.0
 10
-59.304242
 20
-22.899470
 30
0.0
 10
-61.249860
 20
-22.188400
 30
0.0
 10
-63.099359
 20
-21.295950
 30
0.0
 10
-64.845506
 20
-20.237100
 30
0.0
 10
-66.474347
 20
-19.018570
 30
0.0
 10
-67.980199
 20
-17.649140
 30
0.0
 10
-69.349624
 20
-16.143290
 30
0.0
 10
-70.568155
 20
-14.514450
 30
0.0
 10
-71.626488
 20
-12.766240
 30
0.0
 10
-72.519457
 20
-10.916740
 30
0.0
 10
-73.232075
 20
-8.973700
 30
0.0
 10
-73.753489
 20
-6.944370
 30
0.0
 10
-74.073884
 20
-4.842690
 30
0.0
 10
-74.183437
 20
-2.672800
 30
0.0
 10
-74.073884
 20
-0.504970
 30
0.0
 10
-73.753489
 20
1.598780
 30
0.0
 10
-73.230006
 20
3.626050
 30
0.0
 10
-72.521007
 20
5.571660
 30
0.0
 10
-71.628554
 20
7.421160
 30
0.0
 10
-70.568155
 20
9.167310
 30
0.0
 10
-69.347558
 20
10.798220
 30
0.0
 10
-67.982265
 20
12.304070
 30
0.0
 10
-66.476413
 20
13.668840
 30
0.0
 10
-64.845506
 20
14.889960
 30
0.0
 10
-63.099359
 20
15.952420
 30
0.0
 10
-61.249860
 20
16.842810
 30
0.0
 10
-59.304242
 20
17.553880
 30
0.0
 10
-57.275425
 20
18.075290
 30
0.0
 10
-55.173744
 20
18.395690
 30
0.0
 10
-53.004105
 20
18.505190
 30
0.0
  0
LWPOLYLINE
  5
114
100
AcDbEntity
  8
other
 62
7
100
AcDbPolyline
 90
264
 70
1
 10
-41.259087
 20
36.551630
 30
0.0
 10
-42.525676
 20
35.735660
 30
0.0
 10
-43.792781
 20
34.920200
 30
0.0
 10
-45.059371
 20
34.104230
 30
0.0
 10
-46.326476
 20
33.288780
 30
0.0
 10
-47.593066
 20
32.472810
 30
0.0
 10
-48.860171
 20
31.657350
 30
0.0
 10
-50.126761
 20
30.841380
 30
0.0
 10
-51.393866
 20
30.025930
 30
0.0
 10
-51.994865
 20
29.487980
 30
0.0
 10
-52.081685
 20
28.913340
 30
0.0
 10
-51.787129
 20
28.335080
 30
0.0
 10
-51.245562
 20
27.786790
 30
0.0
 10
-50.591337
 20
27.302580
 30
0.0
 10
-49.958300
 20
26.915010
 30
0.0
 10
-49.479778
 20
26.657660
 30
0.0
 10
-49.290643
 20
26.564660
 30
0.0
 10
-49.757796
 20
25.805020
 30
0.0
 10
-50.224953
 20
25.045890
 30
0.0
 10
-50.691590
 20
24.286250
 30
0.0
 10
-51.158744
 20
23.527120
 30
0.0
 10
-51.625900
 20
22.767480
 30
0.0
 10
-52.092538
 20
22.008350
 30
0.0
 10
-52.559692
 20
21.248710
 30
0.0
 10
-53.026332
 20
20.489580
 30
0.0
 10
-55.294409
 20
20.373830
 30
0.0
 10
-57.539235
 20
20.032760
 30
0.0
 10
-59.740650
 20
19.474140
 30
0.0
 10
-61.879020
 20
18.706230
 30
0.0
 10
-63.933677
 20
17.737290
 30
0.0
 10
-65.885495
 20
16.576120
 30
0.0
 10
-67.713805
 20
15.229950
 30
0.0
 10
-69.399492
 20
13.708080
 30
0.0
 10
-70.921878
 20
12.022910
 30
0.0
 10
-72.267533
 20
10.194600
 30
0.0
 10
-73.428702
 20
8.243300
 30
0.0
 10
-74.397635
 20
6.188650
 30
0.0
 10
-75.165548
 20
4.050790
 30
0.0
 10
-75.724171
 20
1.849380
 30
0.0
 10
-76.065235
 20
-0.394930
 30
0.0
 10
-76.180990
 20
-2.663010
 30
0.0
 10
-76.065235
 20
-4.931090
 30
0.0
 10
-75.724171
 20
-7.175400
 30
0.0
 10
-75.165548
 20
-9.376300
 30
0.0
 10
-74.397635
 20
-11.514150
 30
0.0
 10
-73.428702
 20
-13.568800
 30
0.0
 10
-72.267533
 20
-15.520110
 30
0.0
 10
-70.921878
 20
-17.348420
 30
0.0
 10
-69.399492
 20
-19.034100
 30
0.0
 10
-67.713805
 20
-20.555970
 30
0.0
 10
-65.885495
 20
-21.901630
 30
0.0
 10
-63.933677
 20
-23.063320
 30
0.0
 10
-61.879020
 20
-24.032250
 30
0.0
 10
-59.740650
 20
-24.799640
 30
0.0
 10
-57.539235
 20
-25.358780
 30
0.0
 10
-55.294409
 20
-25.699850
 30
0.0
 10
-53.026332
 20
-25.815090
 30
0.0
 10
-50.871941
 20
-25.710700
 30
0.0
 10
-48.737187
 20
-25.402190
 30
0.0
 10
-46.640158
 20
-24.896790
 30
0.0
 10
-44.596871
 20
-24.201750
 30
0.0
 10
-42.625932
 20
-23.323760
 30
0.0
 10
-40.742842
 20
-22.270080
 30
0.0
 10
-38.965691
 20
-21.047420
 30
0.0
 10
-37.311529
 20
-19.663520
 30
0.0
 10
-37.128594
 20
-19.495060
 30
0.0
 10
-36.978731
 20
-19.360180
 30
0.0
 10
-36.854708
 20
-19.258900
 30
0.0
 10
-36.747739
 20
-19.189100
 30
0.0
 10
-36.651099
 20
-19.149300
 30
0.0
 10
-36.557049
 20
-19.138500
 30
0.0
 10
-36.456798
 20
-19.155000
 30
0.0
 10
-36.343625
 20
-19.197900
 30
0.0
 10
-36.234072
 20
-19.256800
 30
0.0
 10
-36.155002
 20
-19.322900
 30
0.0
 10
-36.101262
 20
-19.403500
 30
0.0
 10
-36.068192
 20
-19.505300
 30
0.0
 10
-36.051122
 20
-19.636040
 30
0.0
 10
-36.044922
 20
-19.801920
 30
0.0
 10
-36.044922
 20
-20.010180
 30
0.0
 10
-36.046022
 20
-20.268040
 30
0.0
 10
-35.955072
 20
-22.050360
 30
0.0
 10
-35.686872
 20
-23.814080
 30
0.0
 10
-35.247621
 20
-25.543170
 30
0.0
 10
-34.644040
 20
-27.223170
 30
0.0
 10
-33.882847
 20
-28.837550
 30
0.0
 10
-32.969725
 20
-30.370790
 30
0.0
 10
-31.911908
 20
-31.807390
 30
0.0
 10
-30.716116
 20
-33.131340
 30
0.0
 10
-29.391649
 20
-34.327130
 30
0.0
 10
-27.955043
 20
-35.384950
 30
0.0
 10
-26.421804
 20
-36.297560
 30
0.0
 10
-24.807433
 20
-37.058750
 30
0.0
 10
-23.127948
 20
-37.661810
 30
0.0
 10
-21.398338
 20
-38.101060
 30
0.0
 10
-19.634622
 20
-38.368750
 30
0.0
 10
-17.852818
 20
-38.459650
 30
0.0
 10
-16.071016
 20
-38.368750
 30
0.0
 10
-14.307298
 20
-38.100550
 30
0.0
 10
-12.577688
 20
-37.661810
 30
0.0
 10
-10.898205
 20
-37.058230
 30
0.0
 10
-9.283832
 20
-36.297040
 30
0.0
 10
-7.750592
 20
-35.384950
 30
0.0
 10
-6.313987
 20
-34.327130
 30
0.0
 10
-4.989522
 20
-33.131340
 30
0.0
 10
-4.562673
 20
-32.680720
 30
0.0
 10
-4.189571
 20
-32.254390
 30
0.0
 10
-3.852124
 20
-31.863200
 30
0.0
 10
-3.531729
 20
-31.518520
 30
0.0
 10
-3.210303
 20
-31.230160
 30
0.0
 10
-2.869755
 20
-31.008990
 30
0.0
 10
-2.491999
 20
-30.866360
 30
0.0
 10
-2.058950
 20
-30.812060
 30
0.0
 10
-1.605232
 20
-30.855960
 30
0.0
 10
-1.201639
 20
-30.994450
 30
0.0
 10
-0.833185
 20
-31.214590
 30
0.0
 10
-0.483338
 20
-31.505530
 30
0.0
 10
-0.136072
 20
-31.854350
 30
0.0
 10
0.223081
 20
-32.249150
 30
0.0
 10
0.611170
 20
-32.679100
 30
0.0
 10
1.043702
 20
-33.131270
 30
0.0
 10
2.368170
 20
-34.327060
 30
0.0
 10
3.804775
 20
-35.384880
 30
0.0
 10
5.338014
 20
-36.296970
 30
0.0
 10
6.952385
 20
-37.058160
 30
0.0
 10
8.631870
 20
-37.661740
 30
0.0
 10
10.361481
 20
-38.100480
 30
0.0
 10
12.125196
 20
-38.368680
 30
0.0
 10
13.907001
 20
-38.459580
 30
0.0
 10
15.688803
 20
-38.368680
 30
0.0
 10
17.452520
 20
-38.100990
 30
0.0
 10
19.182131
 20
-37.661740
 30
0.0
 10
20.861613
 20
-37.058680
 30
0.0
 10
22.475987
 20
-36.297490
 30
0.0
 10
24.009226
 20
-35.384880
 30
0.0
 10
25.445829
 20
-34.327580
 30
0.0
 10
26.770296
 20
-33.131270
 30
0.0
 10
27.966091
 20
-31.807320
 30
0.0
 10
29.023906
 20
-30.370720
 30
0.0
 10
29.936512
 20
-28.837480
 30
0.0
 10
30.698223
 20
-27.223100
 30
0.0
 10
31.301804
 20
-25.543100
 30
0.0
 10
31.741052
 20
-23.814010
 30
0.0
 10
32.009252
 20
-22.050290
 30
0.0
 10
32.100202
 20
-20.267970
 30
0.0
 10
32.100732
 20
-20.017340
 30
0.0
 10
32.104832
 20
-19.825620
 30
0.0
 10
32.114632
 20
-19.683000
 30
0.0
 10
32.134792
 20
-19.578610
 30
0.0
 10
32.168382
 20
-19.503210
 30
0.0
 10
32.219022
 20
-19.446910
 30
0.0
 10
32.289302
 20
-19.398310
 30
0.0
 10
32.383872
 20
-19.348710
 30
0.0
 10
32.495494
 20
-19.297510
 30
0.0
 10
32.593674
 20
-19.268010
 30
0.0
 10
32.687724
 20
-19.263010
 30
0.0
 10
32.785904
 20
-19.285710
 30
0.0
 10
32.898558
 20
-19.339410
 30
0.0
 10
33.033435
 20
-19.425710
 30
0.0
 10
33.200866
 20
-19.548700
 30
0.0
 10
33.409638
 20
-19.710450
 30
0.0
 10
35.061218
 20
-21.084000
 30
0.0
 10
36.834235
 20
-22.296850
 30
0.0
 10
38.711642
 20
-23.342780
 30
0.0
 10
40.676380
 20
-24.214050
 30
0.0
 10
42.711914
 20
-24.903930
 30
0.0
 10
44.801191
 20
-25.405190
 30
0.0
 10
46.927161
 20
-25.711110
 30
0.0
 10
49.073283
 20
-25.814470
 30
0.0
 10
51.341361
 20
-25.699230
 30
0.0
 10
53.585667
 20
-25.357640
 30
0.0
 10
55.786567
 20
-24.799020
 30
0.0
 10
57.924421
 20
-24.031110
 30
0.0
 10
59.979078
 20
-23.062700
 30
0.0
 10
61.930380
 20
-21.901010
 30
0.0
 10
63.759206
 20
-20.555350
 30
0.0
 10
65.444377
 20
-19.033480
 30
0.0
 10
66.966247
 20
-17.347800
 30
0.0
 10
68.311902
 20
-15.519490
 30
0.0
 10
69.473587
 20
-13.568180
 30
0.0
 10
70.442004
 20
-11.513530
 30
0.0
 10
71.209915
 20
-9.375680
 30
0.0
 10
71.768538
 20
-7.174780
 30
0.0
 10
72.110117
 20
-4.929950
 30
0.0
 10
72.225357
 20
-2.662390
 30
0.0
 10
72.110117
 20
-0.394310
 30
0.0
 10
71.768538
 20
1.850000
 30
0.0
 10
71.209915
 20
4.051410
 30
0.0
 10
70.442004
 20
6.188750
 30
0.0
 10
69.473587
 20
8.243400
 30
0.0
 10
68.311902
 20
10.195220
 30
0.0
 10
66.966247
 20
12.023540
 30
0.0
 10
65.444377
 20
13.708700
 30
0.0
 10
63.759206
 20
15.230570
 30
0.0
 10
61.930380
 20
16.576230
 30
0.0
 10
59.979078
 20
17.737910
 30
0.0
 10
57.924421
 20
18.706330
 30
0.0
 10
55.786567
 20
19.474240
 30
0.0
 10
53.585667
 20
20.032860
 30
0.0
 10
51.341361
 20
20.374450
 30
0.0
 10
49.073283
 20
20.490200
 30
0.0
 10
48.668656
 20
21.249330
 30
0.0
 10
48.264029
 20
22.008970
 30
0.0
 10
47.859404
 20
22.768100
 30
0.0
 10
47.455293
 20
23.527740
 30
0.0
 10
47.050666
 20
24.286870
 30
0.0
 10
46.646041
 20
25.046510
 30
0.0
 10
46.241414
 20
25.805640
 30
0.0
 10
45.837305
 20
26.565280
 30
0.0
 10
46.036774
 20
26.629380
 30
0.0
 10
46.541655
 20
26.811800
 30
0.0
 10
47.210347
 20
27.096540
 30
0.0
 10
47.901261
 20
27.469120
 30
0.0
 10
48.473836
 20
27.914060
 30
0.0
 10
48.786478
 20
28.415840
 30
0.0
 10
48.698108
 20
28.959990
 30
0.0
 10
48.067654
 20
29.529980
 30
0.0
 10
46.626916
 20
30.407450
 30
0.0
 10
45.186693
 20
31.285430
 30
0.0
 10
43.745955
 20
32.163410
 30
0.0
 10
42.305217
 20
33.040880
 30
0.0
 10
40.864994
 20
33.918860
 30
0.0
 10
39.424256
 20
34.796840
 30
0.0
 10
37.984034
 20
35.674310
 30
0.0
 10
36.543293
 20
36.552290
 30
0.0
 10
33.301631
 20
36.552290
 30
0.0
 10
30.059969
 20
36.552290
 30
0.0
 10
26.817789
 20
36.552290
 30
0.0
 10
23.576127
 20
36.552290
 30
0.0
 10
20.334463
 20
36.552290
 30
0.0
 10
17.092801
 20
36.552290
 30
0.0
 10
13.851140
 20
36.552290
 30
0.0
 10
10.608959
 20
36.552290
 30
0.0
 10
10.401222
 20
36.420000
 30
0.0
 10
10.192965
 20
36.287710
 30
0.0
 10
9.984709
 20
36.155420
 30
0.0
 10
9.776453
 20
36.023120
 30
0.0
 10
9.568197
 20
35.890830
 30
0.0
 10
9.359941
 20
35.758540
 30
0.0
 10
9.151685
 20
35.626250
 30
0.0
 10
8.943428
 20
35.493960
 30
0.0
 10
6.081682
 20
35.493960
 30
0.0
 10
3.219324
 20
35.493960
 30
0.0
 10
0.356969
 20
35.493960
 30
0.0
 10
-2.505389
 20
35.493960
 30
0.0
 10
-5.367747
 20
35.493960
 30
0.0
 10
-8.230104
 20
35.493960
 30
0.0
 10
-11.092462
 20
35.493960
 30
0.0
 10
-13.954304
 20
35.493960
 30
0.0
 10
-14.125870
 20
35.626250
 30
0.0
 10
-14.296918
 20
35.758540
 30
0.0
 10
-14.468484
 20
35.890830
 30
0.0
 10
-14.639532
 20
36.023120
 30
0.0
 10
-14.811099
 20
36.155420
 30
0.0
 10
-14.982147
 20
36.287710
 30
0.0
 10
-15.153713
 20
36.420000
 30
0.0
 10
-15.324763
 20
36.552290
 30
0.0
 10
-18.566425
 20
36.552290
 30
0.0
 10
-21.808603
 20
36.552290
 30
0.0
 10
-25.050267
 20
36.552290
 30
0.0
 10
-28.291929
 20
36.552290
 30
0.0
 10
-31.533591
 20
36.552290
 30
0.0
 10
-34.775771
 20
36.552290
 30
0.0
 10
-38.017433
 20
36.552290
 30
0.0
  0
SPLINE
  5
115
100
AcDbEntity
  8
other
 62
7
100
AcDbSpline
 70
0
 71
3
 72
13
 73
9
 74
7
 40
0.000000
 40
0.000000
 40
0.000000
 40
0.000000
 40
0.800403
 40
1.584915
 40
2.385318
 40
3.185721
 40
3.970233
 40
4.770637
 40
4.770637
 40
4.770637
 40
4.770637
 10
-34.044802
 20
-18.492990
 30
0.0
 10
-34.043641
 20
-18.222217
 30
0.0
 10
-34.041341
 20
-17.686047
 30
0.0
 10
-34.451105
 20
-16.965772
 30
0.0
 10
-35.095548
 20
-16.465615
 30
0.0
 10
-35.889130
 20
-16.276695
 30
0.0
 10
-36.707241
 20
-16.408593
 30
0.0
 10
-37.123693
 20
-16.746309
 30
0.0
 10
-37.334006
 20
-16.916860
 30
0.0
 11
-34.044802
 21
-18.492990
 31
0.0
 11
-34.111343
 21
-17.695358
 31
0.0
 11
-34.486580
 21
-17.006405
 31
0.0
 11
-35.120570
 21
-16.517833
 31
0.0
 11
-35.898574
 21
-16.329802
 31
0.0
 11
-36.670640
 21
-16.468986
 31
0.0
 11
-37.334006
 21
-16.916860
 31
0.0
  0
LWPOLYLINE
  5
116
100
AcDbEntity
  8
other
 62
7
100
AcDbPolyline
 90
2
 70
0
 10
-16.542765
 20
34.600840
 30
0.0
 10
-16.381017
 20
34.475790
 30
0.0
  0
SPLINE
  5
117
100
AcDbEntity
  8
other
 62
7
100
AcDbSpline
 70
0
 71
3
 72
10
 73
6
 74
4
 40
0.000000
 40
0.000000
 40
0.000000
 40
0.000000
 40
0.005176
 40
0.010352
 40
0.015529
 40
0.015529
 40
0.015529
 40
0.015529
 10
-16.381017
 20
34.475790
 30
0.0
 10
-16.379700
 20
34.474675
 30
0.0
 10
-16.377066
 20
34.472446
 30
0.0
 10
-16.373106
 20
34.469113
 30
0.0
 10
-16.370460
 20
34.466898
 30
0.0
 10
-16.369137
 20
34.465790
 30
0.0
 11
-16.381017
 21
34.475790
 31
0.0
 11
-16.377065
 21
34.472448
 31
0.0
 11
-16.373105
 21
34.469114
 31
0.0
 11
-16.369137
 21
34.465790
 31
0.0
  0
LWPOLYLINE
  5
118
100
AcDbEntity
  8
other
 62
7
100
AcDbPolyline
 90
3
 70
0
 10
-16.369137
 20
34.465790
 30
0.0
 10
-16.208940
 20
34.342800
 30
0.0
 10
-16.048743
 20
34.219810
 30
0.0
  0
SPLINE
  5
119
100
AcDbEntity
  8
other
 62
7
100
AcDbSpline
 70
0
 71
3
 72
10
 73
6
 74
4
 40
0.000000
 40
0.000000
 40
0.000000
 40
0.000000
 40
0.004217
 40
0.008434
 40
0.012651
 40
0.012651
 40
0.012651
 40
0.012651
 10
-16.048743
 20
34.219810
 30
0.0
 10
-16.047656
 20
34.218919
 30
0.0
 10
-16.045482
 20
34.217136
 30
0.0
 10
-16.042216
 20
34.214469
 30
0.0
 10
-16.040034
 20
34.212696
 30
0.0
 10
-16.038943
 20
34.211810
 30
0.0
 11
-16.048743
 21
34.219810
 31
0.0
 11
-16.045481
 21
34.217137
 31
0.0
 11
-16.042215
 21
34.214471
 31
0.0
 11
-16.038943
 21
34.211810
 31
0.0
  0
LWPOLYLINE
  5
11a
100
AcDbEntity
  8
other
 62
7
100
AcDbPolyline
 90
3
 70
0
 10
-16.038943
 20
34.211810
 30
0.0
 10
-15.867379
 20
34.079000
 30
0.0
 10
-15.695297
 20
33.946190
 30
0.0
  0
SPLINE
  5
11b
100
AcDbEntity
  8
other
 62
7
100
AcDbSpline
 70
0
 71
3
 72
10
 73
6
 74
4
 40
0.000000
 40
0.000000
 40
0.000000
 40
0.000000
 40
0.005176
 40
0.010352
 40
0.015529
 40
0.015529
 40
0.015529
 40
0.015529
 10
-15.695297
 20
33.946190
 30
0.0
 10
-15.693980
 20
33.945075
 30
0.0
 10
-15.691346
 20
33.942846
 30
0.0
 10
-15.687386
 20
33.939513
 30
0.0
 10
-15.684740
 20
33.937298
 30
0.0
 10
-15.683417
 20
33.936190
 30
0.0
 11
-15.695297
 21
33.946190
 31
0.0
 11
-15.691345
 21
33.942848
 31
0.0
 11
-15.687385
 21
33.939514
 31
0.0
 11
-15.683417
 21
33.936190
 31
0.0
  0
LWPOLYLINE
  5
11c
100
AcDbEntity
  8
other
 62
7
100
AcDbPolyline
 90
3
 70
0
 10
-15.683417
 20
33.936190
 30
0.0
 10
-15.523738
 20
33.813200
 30
0.0
 10
-15.363541
 20
33.689690
 30
0.0
  0
SPLINE
  5
11d
100
AcDbEntity
  8
other
 62
7
100
AcDbSpline
 70
0
 71
3
 72
10
 73
6
 74
4
 40
0.000000
 40
0.000000
 40
0.000000
 40
0.000000
 40
0.505784
 40
1.008554
 40
1.514338
 40
1.514338
 40
1.514338
 40
1.514338
 10
-15.363541
 20
33.689690
 30
0.0
 10
-15.223813
 20
33.594534
 30
0.0
 10
-14.945190
 20
33.404790
 30
0.0
 10
-14.460365
 20
33.237372
 30
0.0
 10
-14.124028
 20
33.214760
 30
0.0
 10
-13.955357
 20
33.203420
 30
0.0
 11
-15.363541
 21
33.689690
 31
0.0
 11
-14.933223
 21
33.423901
 31
0.0
 11
-14.457989
 21
33.259794
 31
0.0
 11
-13.955357
 21
33.203420
 31
0.0
  0
LWPOLYLINE
  5
11e
100
AcDbEntity
  8
other
 62
7
100
AcDbPolyline
 90
9
 70
0
 10
-13.955357
 20
33.203420
 30
0.0
 10
-11.091967
 20
33.203420
 30
0.0
 10
-8.230644
 20
33.203420
 30
0.0
 10
-5.367252
 20
33.203420
 30
0.0
 10
-2.505929
 20
33.203420
 30
0.0
 10
0.357463
 20
33.203420
 30
0.0
 10
3.218787
 20
33.203420
 30
0.0
 10
6.082179
 20
33.203420
 30
0.0
 10
8.943502
 20
33.203420
 30
0.0
  0
SPLINE
  5
11f
100
AcDbEntity
  8
other
 62
7
100
AcDbSpline
 70
0
 71
3
 72
10
 73
6
 74
4
 40
0.000000
 40
0.000000
 40
0.000000
 40
0.000000
 40
0.431506
 40
0.861128
 40
1.292634
 40
1.292634
 40
1.292634
 40
1.292634
 10
8.943502
 20
33.203420
 30
0.0
 10
9.087381
 20
33.211685
 30
0.0
 10
9.374511
 20
33.228180
 30
0.0
 10
9.793026
 20
33.350225
 30
0.0
 10
10.044016
 20
33.490653
 30
0.0
 10
10.169785
 20
33.561020
 30
0.0
 11
8.943502
 21
33.203420
 31
0.0
 11
9.373049
 21
33.244489
 31
0.0
 11
9.785493
 21
33.364763
 31
0.0
 11
10.169785
 21
33.561020
 31
0.0
  0
LWPOLYLINE
  5
120
100
AcDbEntity
  8
other
 62
7
100
AcDbPolyline
 90
6
 70
0
 10
10.169785
 20
33.561020
 30
0.0
 10
10.377007
 20
33.691760
 30
0.0
 10
10.582162
 20
33.822500
 30
0.0
 10
10.585762
 20
33.824500
 30
0.0
 10
10.795052
 20
33.957310
 30
0.0
 10
11.003825
 20
34.090110
 30
0.0
  0
SPLINE
  5
121
100
AcDbEntity
  8
other
 62
7
100
AcDbSpline
 70
0
 71
3
 72
10
 73
6
 74
4
 40
0.000000
 40
0.000000
 40
0.000000
 40
0.000000
 40
0.003830
 40
0.007661
 40
0.011491
 40
0.011491
 40
0.011491
 40
0.011491
 10
11.003825
 20
34.090110
 30
0.0
 10
11.004915
 20
34.090774
 30
0.0
 10
11.007096
 20
34.092103
 30
0.0
 10
11.010362
 20
34.094103
 30
0.0
 10
11.012537
 20
34.095441
 30
0.0
 10
11.013625
 20
34.096110
 30
0.0
 11
11.003825
 21
34.090110
 31
0.0
 11
11.007095
 21
34.092105
 31
0.0
 11
11.010362
 21
34.094105
 31
0.0
 11
11.013625
 21
34.096110
 31
0.0
  0
LWPOLYLINE
  5
122
100
AcDbEntity
  8
other
 62
7
100
AcDbPolyline
 90
22
 70
0
 10
11.013625
 20
34.096110
 30
0.0
 10
11.208961
 20
34.220640
 30
0.0
 10
11.275111
 20
34.261940
 30
0.0
 10
13.851698
 20
34.261940
 30
0.0
 10
17.093878
 20
34.261940
 30
0.0
 10
20.333989
 20
34.261940
 30
0.0
 10
23.576169
 20
34.261940
 30
0.0
 10
26.818347
 20
34.261940
 30
0.0
 10
30.060527
 20
34.261940
 30
0.0
 10
33.300639
 20
34.261940
 30
0.0
 10
35.900482
 20
34.261940
 30
0.0
 10
36.792932
 20
33.718810
 30
0.0
 10
36.792932
 20
33.716810
 30
0.0
 10
38.232123
 20
32.839860
 30
0.0
 10
38.234223
 20
32.839860
 30
0.0
 10
39.673930
 20
31.964980
 30
0.0
 10
41.111051
 20
31.085960
 30
0.0
 10
41.115151
 20
31.083960
 30
0.0
 10
42.556407
 20
30.206500
 30
0.0
 10
43.996111
 20
29.329550
 30
0.0
 10
43.996111
 20
29.327550
 30
0.0
 10
45.072016
 20
28.673330
 30
0.0
  0
SPLINE
  5
123
100
AcDbEntity
  8
other
 62
7
100
AcDbSpline
 70
0
 71
3
 72
13
 73
9
 74
7
 40
0.000000
 40
0.000000
 40
0.000000
 40
0.000000
 40
0.644078
 40
1.282028
 40
1.926106
 40
2.570184
 40
3.208135
 40
3.852213
 40
3.852213
 40
3.852213
 40
3.852213
 10
45.072016
 20
28.673330
 30
0.0
 10
44.875829
 20
28.582625
 30
0.0
 10
44.485323
 20
28.402078
 30
0.0
 10
44.023655
 20
27.938088
 30
0.0
 10
43.700837
 20
27.374533
 30
0.0
 10
43.552745
 20
26.742177
 30
0.0
 10
43.574110
 20
26.087984
 30
0.0
 10
43.736675
 20
25.689656
 30
0.0
 10
43.818346
 20
25.489540
 30
0.0
 11
45.072016
 21
28.673330
 31
0.0
 11
44.504460
 21
28.368836
 31
0.0
 11
44.048008
 21
27.923154
 31
0.0
 11
43.730051
 21
27.363029
 31
0.0
 11
43.580742
 21
26.736497
 31
0.0
 11
43.610775
 21
26.099254
 31
0.0
 11
43.818346
 21
25.489540
 31
0.0
  0
LWPOLYLINE
  5
124
100
AcDbEntity
  8
other
 62
7
100
AcDbPolyline
 90
11
 70
0
 10
43.818346
 20
25.489540
 30
0.0
 10
44.222454
 20
24.729900
 30
0.0
 10
44.627082
 20
23.969740
 30
0.0
 10
45.031190
 20
23.210100
 30
0.0
 10
45.435302
 20
22.450450
 30
0.0
 10
45.839926
 20
21.690810
 30
0.0
 10
45.839926
 20
21.688810
 30
0.0
 10
46.244038
 20
20.931240
 30
0.0
 10
46.648146
 20
20.173140
 30
0.0
 10
46.650246
 20
20.169140
 30
0.0
 10
47.056424
 20
19.408980
 30
0.0
  0
SPLINE
  5
125
100
AcDbEntity
  8
other
 62
7
100
AcDbSpline
 70
0
 71
3
 72
10
 73
6
 74
4
 40
0.000000
 40
0.000000
 40
0.000000
 40
0.000000
 40
0.785025
 40
1.559170
 40
2.344194
 40
2.344194
 40
2.344194
 40
2.344194
 10
47.056424
 20
19.408980
 30
0.0
 10
47.203754
 20
19.190547
 30
0.0
 10
47.496373
 20
18.756709
 30
0.0
 10
48.181557
 20
18.322186
 30
0.0
 10
48.698748
 20
18.242467
 30
0.0
 10
48.959148
 20
18.202330
 30
0.0
 11
47.056424
 21
19.408980
 31
0.0
 11
47.539763
 21
18.790396
 31
0.0
 11
48.193529
 21
18.375797
 31
0.0
 11
48.959148
 21
18.202330
 31
0.0
  0
LWPOLYLINE
  5
126
100
AcDbEntity
  8
other
 62
7
100
AcDbPolyline
 90
41
 70
0
 10
48.959148
 20
18.202330
 30
0.0
 10
51.111473
 20
18.092780
 30
0.0
 10
53.130987
 20
17.784270
 30
0.0
 10
55.116913
 20
17.280420
 30
0.0
 10
57.047027
 20
16.586930
 30
0.0
 10
58.902211
 20
15.712040
 30
0.0
 10
60.665929
 20
14.663010
 30
0.0
 10
62.310272
 20
13.452230
 30
0.0
 10
63.824392
 20
12.084880
 30
0.0
 10
65.191232
 20
10.571270
 30
0.0
 10
66.402529
 20
8.926930
 30
0.0
 10
67.448978
 20
7.166830
 30
0.0
 10
68.324375
 20
5.309580
 30
0.0
 10
69.019422
 20
3.377910
 30
0.0
 10
69.523269
 20
1.393540
 30
0.0
 10
69.830228
 20
-0.628040
 30
0.0
 10
69.935648
 20
-2.665130
 30
0.0
 10
69.830228
 20
-4.702210
 30
0.0
 10
69.523269
 20
-6.723790
 30
0.0
 10
69.019422
 20
-8.708170
 30
0.0
 10
68.324375
 20
-10.639840
 30
0.0
 10
67.448978
 20
-12.497090
 30
0.0
 10
66.402529
 20
-14.256670
 30
0.0
 10
65.191232
 20
-15.901530
 30
0.0
 10
63.824392
 20
-17.415130
 30
0.0
 10
62.310272
 20
-18.782490
 30
0.0
 10
60.665929
 20
-19.993270
 30
0.0
 10
58.902211
 20
-21.042300
 30
0.0
 10
57.047027
 20
-21.917180
 30
0.0
 10
55.116913
 20
-22.610160
 30
0.0
 10
53.130987
 20
-23.114520
 30
0.0
 10
51.111473
 20
-23.423030
 30
0.0
 10
49.070255
 20
-23.526390
 30
0.0
 10
47.146340
 20
-23.432890
 30
0.0
 10
45.230180
 20
-23.157460
 30
0.0
 10
43.347606
 20
-22.706320
 30
0.0
 10
41.509477
 20
-22.083110
 30
0.0
 10
39.732323
 20
-21.294000
 30
0.0
 10
38.038887
 20
-20.352460
 30
0.0
 10
36.443119
 20
-19.258990
 30
0.0
 10
34.873187
 20
-17.954160
 30
0.0
  0
SPLINE
  5
127
100
AcDbEntity
  8
other
 62
7
100
AcDbSpline
 70
0
 71
3
 72
10
 73
6
 74
4
 40
0.000000
 40
0.000000
 40
0.000000
 40
0.000000
 40
0.025994
 40
0.051987
 40
0.077981
 40
0.077981
 40
0.077981
 40
0.077981
 10
34.873187
 20
-17.954160
 30
0.0
 10
34.866485
 20
-17.948668
 30
0.0
 10
34.853082
 20
-17.937684
 30
0.0
 10
34.832754
 20
-17.921482
 30
0.0
 10
34.819056
 20
-17.910867
 30
0.0
 10
34.812207
 20
-17.905560
 30
0.0
 11
34.873187
 21
-17.954160
 31
0.0
 11
34.853045
 21
-17.937729
 31
0.0
 11
34.832717
 21
-17.921529
 31
0.0
 11
34.812207
 21
-17.905560
 31
0.0
  0
LWPOLYLINE
  5
128
100
AcDbEntity
  8
other
 62
7
100
AcDbPolyline
 90
2
 70
0
 10
34.812207
 20
-17.905560
 30
0.0
 10
34.603432
 20
-17.743300
 30
0.0
  0
SPLINE
  5
129
100
AcDbEntity
  8
other
 62
7
100
AcDbSpline
 70
0
 71
3
 72
10
 73
6
 74
4
 40
0.000000
 40
0.000000
 40
0.000000
 40
0.000000
 40
0.020946
 40
0.041891
 40
0.062837
 40
0.062837
 40
0.062837
 40
0.062837
 10
34.603432
 20
-17.743300
 30
0.0
 10
34.597851
 20
-17.739105
 30
0.0
 10
34.586689
 20
-17.730715
 30
0.0
 10
34.569808
 20
-17.718314
 30
0.0
 10
34.558464
 20
-17.710171
 30
0.0
 10
34.552792
 20
-17.706100
 30
0.0
 11
34.603432
 21
-17.743300
 31
0.0
 11
34.586666
 21
-17.730746
 31
0.0
 11
34.569785
 21
-17.718345
 31
0.0
 11
34.552792
 21
-17.706100
 31
0.0
  0
LWPOLYLINE
  5
12a
100
AcDbEntity
  8
other
 62
7
100
AcDbPolyline
 90
2
 70
0
 10
34.552792
 20
-17.706100
 30
0.0
 10
34.384842
 20
-17.583110
 30
0.0
  0
SPLINE
  5
12b
100
AcDbEntity
  8
other
 62
7
100
AcDbSpline
 70
0
 71
3
 72
10
 73
6
 74
4
 40
0.000000
 40
0.000000
 40
0.000000
 40
0.000000
 40
0.049266
 40
0.098530
 40
0.147796
 40
0.147796
 40
0.147796
 40
0.147796
 10
34.384842
 20
-17.583110
 30
0.0
 10
34.371592
 20
-17.573407
 30
0.0
 10
34.345094
 20
-17.554002
 30
0.0
 10
34.304602
 20
-17.525927
 30
0.0
 10
34.277137
 20
-17.507916
 30
0.0
 10
34.263404
 20
-17.498910
 30
0.0
 11
34.384842
 21
-17.583110
 31
0.0
 11
34.344969
 21
-17.554173
 31
0.0
 11
34.304485
 21
-17.526104
 31
0.0
 11
34.263404
 21
-17.498910
 31
0.0
  0
LWPOLYLINE
  5
12c
100
AcDbEntity
  8
other
 62
7
100
AcDbPolyline
 90
2
 70
0
 10
34.263404
 20
-17.498910
 30
0.0
 10
34.129043
 20
-17.413110
 30
0.0
  0
SPLINE
  5
12d
100
AcDbEntity
  8
other
 62
7
100
AcDbSpline
 70
0
 71
3
 72
10
 73
6
 74
4
 40
0.000000
 40
0.000000
 40
0.000000
 40
0.000000
 40
0.084588
 40
0.169161
 40
0.253748
 40
0.253748
 40
0.253748
 40
0.253748
 10
34.129043
 20
-17.413110
 30
0.0
 10
34.105152
 20
-17.398132
 30
0.0
 10
34.057374
 20
-17.368179
 30
0.0
 10
33.983754
 20
-17.326455
 30
0.0
 10
33.933510
 20
-17.300852
 30
0.0
 10
33.908386
 20
-17.288050
 30
0.0
 11
34.129043
 21
-17.413110
 31
0.0
 11
34.057044
 21
-17.368711
 31
0.0
 11
33.983467
 21
-17.327010
 31
0.0
 11
33.908386
 21
-17.288050
 31
0.0
  0
LWPOLYLINE
  5
12e
100
AcDbEntity
  8
other
 62
7
100
AcDbPolyline
 90
2
 70
0
 10
33.908386
 20
-17.288050
 30
0.0
 10
33.796764
 20
-17.233250
 30
0.0
  0
SPLINE
  5
12f
100
AcDbEntity
  8
other
 62
7
100
AcDbSpline
 70
0
 71
3
 72
10
 73
6
 74
4
 40
0.000000
 40
0.000000
 40
0.000000
 40
0.000000
 40
0.172249
 40
0.344377
 40
0.516626
 40
0.516626
 40
0.516626
 40
0.516626
 10
33.796764
 20
-17.233250
 30
0.0
 10
33.744547
 20
-17.209334
 30
0.0
 10
33.640149
 20
-17.161518
 30
0.0
 10
33.477444
 20
-17.104115
 30
0.0
 10
33.366154
 20
-17.075835
 30
0.0
 10
33.310489
 20
-17.061690
 30
0.0
 11
33.796764
 21
-17.233250
 31
0.0
 11
33.639096
 21
-17.163891
 31
0.0
 11
33.476775
 21
-17.106623
 31
0.0
 11
33.310489
 21
-17.061690
 31
0.0
  0
LWPOLYLINE
  5
130
100
AcDbEntity
  8
other
 62
7
100
AcDbPolyline
 90
2
 70
0
 10
33.310489
 20
-17.061690
 30
0.0
 10
33.210749
 20
-17.037890
 30
0.0
  0
SPLINE
  5
131
100
AcDbEntity
  8
other
 62
7
100
AcDbSpline
 70
0
 71
3
 72
10
 73
6
 74
4
 40
0.000000
 40
0.000000
 40
0.000000
 40
0.000000
 40
0.223628
 40
0.446990
 40
0.670618
 40
0.670618
 40
0.670618
 40
0.670618
 10
33.210749
 20
-17.037890
 30
0.0
 10
33.137678
 20
-17.022956
 30
0.0
 10
32.991624
 20
-16.993107
 30
0.0
 10
32.768172
 20
-16.974221
 30
0.0
 10
32.619179
 20
-16.979133
 30
0.0
 10
32.544639
 20
-16.981590
 30
0.0
 11
33.210749
 21
-17.037890
 31
0.0
 11
32.990815
 21
-16.997410
 31
0.0
 11
32.768247
 21
-16.978598
 31
0.0
 11
32.544639
 21
-16.981590
 31
0.0
  0
LWPOLYLINE
  5
132
100
AcDbEntity
  8
other
 62
7
100
AcDbPolyline
 90
2
 70
0
 10
32.544639
 20
-16.981590
 30
0.0
 10
32.451109
 20
-16.987590
 30
0.0
  0
SPLINE
  5
133
100
AcDbEntity
  8
other
 62
7
100
AcDbSpline
 70
0
 71
3
 72
10
 73
6
 74
4
 40
0.000000
 40
0.000000
 40
0.000000
 40
0.000000
 40
0.175008
 40
0.349888
 40
0.524895
 40
0.524895
 40
0.524895
 40
0.524895
 10
32.451109
 20
-16.987590
 30
0.0
 10
32.392964
 20
-16.992530
 30
0.0
 10
32.276717
 20
-17.002406
 30
0.0
 10
32.104136
 20
-17.033193
 30
0.0
 10
31.991644
 20
-17.064121
 30
0.0
 10
31.935378
 20
-17.079590
 30
0.0
 11
32.451109
 21
-16.987590
 31
0.0
 11
32.276977
 21
-17.005073
 31
0.0
 11
32.104815
 21
-17.035785
 31
0.0
 11
31.935378
 21
-17.079590
 31
0.0
  0
LWPOLYLINE
  5
134
100
AcDbEntity
  8
other
 62
7
100
AcDbPolyline
 90
2
 70
0
 10
31.935378
 20
-17.079590
 30
0.0
 10
31.837708
 20
-17.109090
 30
0.0
  0
SPLINE
  5
135
100
AcDbEntity
  8
other
 62
7
100
AcDbSpline
 70
0
 71
3
 72
10
 73
6
 74
4
 40
0.000000
 40
0.000000
 40
0.000000
 40
0.000000
 40
0.103646
 40
0.207265
 40
0.310910
 40
0.310910
 40
0.310910
 40
0.310910
 10
31.837708
 20
-17.109090
 30
0.0
 10
31.804742
 20
-17.119440
 30
0.0
 10
31.738819
 20
-17.140136
 30
0.0
 10
31.641707
 20
-17.176529
 30
0.0
 10
31.578418
 20
-17.204255
 30
0.0
 10
31.546769
 20
-17.218120
 30
0.0
 11
31.837708
 21
-17.109090
 31
0.0
 11
31.739107
 21
-17.141030
 31
0.0
 11
31.642077
 21
-17.177392
 31
0.0
 11
31.546769
 21
-17.218120
 31
0.0
  0
LWPOLYLINE
  5
136
100
AcDbEntity
  8
other
 62
7
100
AcDbPolyline
 90
2
 70
0
 10
31.546769
 20
-17.218120
 30
0.0
 10
31.435666
 20
-17.268820
 30
0.0
  0
SPLINE
  5
137
100
AcDbEntity
  8
other
 62
7
100
AcDbSpline
 70
0
 71
3
 72
10
 73
6
 74
4
 40
0.000000
 40
0.000000
 40
0.000000
 40
0.000000
 40
0.045770
 40
0.091537
 40
0.137306
 40
0.137306
 40
0.137306
 40
0.137306
 10
31.435666
 20
-17.268820
 30
0.0
 10
31.421839
 20
-17.275269
 30
0.0
 10
31.394186
 20
-17.288167
 30
0.0
 10
31.353178
 20
-17.308505
 30
0.0
 10
31.326176
 20
-17.322715
 30
0.0
 10
31.312674
 20
-17.329820
 30
0.0
 11
31.435666
 21
-17.268820
 31
0.0
 11
31.394264
 21
-17.288332
 31
0.0
 11
31.353263
 21
-17.308668
 31
0.0
 11
31.312674
 21
-17.329820
 31
0.0
  0
LWPOLYLINE
  5
138
100
AcDbEntity
  8
other
 62
7
100
AcDbPolyline
 90
2
 70
0
 10
31.312674
 20
-17.329820
 30
0.0
 10
31.216554
 20
-17.380420
 30
0.0
  0
SPLINE
  5
139
100
AcDbEntity
  8
other
 62
7
100
AcDbSpline
 70
0
 71
3
 72
10
 73
6
 74
4
 40
0.000000
 40
0.000000
 40
0.000000
 40
0.000000
 40
0.076426
 40
0.152840
 40
0.229266
 40
0.229266
 40
0.229266
 40
0.229266
 10
31.216554
 20
-17.380420
 30
0.0
 10
31.194162
 20
-17.392572
 30
0.0
 10
31.149382
 20
-17.416875
 30
0.0
 10
31.083704
 20
-17.456004
 30
0.0
 10
31.041014
 20
-17.483814
 30
0.0
 10
31.019667
 20
-17.497720
 30
0.0
 11
31.216554
 21
-17.380420
 31
0.0
 11
31.149628
 21
-17.417322
 31
0.0
 11
31.083981
 21
-17.456433
 31
0.0
 11
31.019667
 21
-17.497720
 31
0.0
  0
LWPOLYLINE
  5
13a
100
AcDbEntity
  8
other
 62
7
100
AcDbPolyline
 90
2
 70
0
 10
31.019667
 20
-17.497720
 30
0.0
 10
30.949387
 20
-17.544220
 30
0.0
  0
SPLINE
  5
13b
100
AcDbEntity
  8
other
 62
7
100
AcDbSpline
 70
0
 71
3
 72
10
 73
6
 74
4
 40
0.000000
 40
0.000000
 40
0.000000
 40
0.000000
 40
0.192208
 40
0.384246
 40
0.576454
 40
0.576454
 40
0.576454
 40
0.576454
 10
30.949387
 20
-17.544220
 30
0.0
 10
30.897024
 20
-17.581181
 30
0.0
 10
30.792345
 20
-17.655071
 30
0.0
 10
30.646969
 20
-17.781410
 30
0.0
 10
30.559205
 20
-17.874763
 30
0.0
 10
30.515303
 20
-17.921460
 30
0.0
 11
30.949387
 21
-17.544220
 31
0.0
 11
30.794245
 21
-17.657687
 31
0.0
 11
30.649294
 21
-17.783656
 31
0.0
 11
30.515303
 21
-17.921460
 31
0.0
  0
LWPOLYLINE
  5
13c
100
AcDbEntity
  8
other
 62
7
100
AcDbPolyline
 90
2
 70
0
 10
30.515303
 20
-17.921460
 30
0.0
 10
30.464663
 20
-17.977760
 30
0.0
  0
SPLINE
  5
13d
100
AcDbEntity
  8
other
 62
7
100
AcDbSpline
 70
0
 71
3
 72
10
 73
6
 74
4
 40
0.000000
 40
0.000000
 40
0.000000
 40
0.000000
 40
0.244104
 40
0.487863
 40
0.731968
 40
0.731968
 40
0.731968
 40
0.731968
 10
30.464663
 20
-17.977760
 30
0.0
 10
30.412255
 20
-18.040068
 30
0.0
 10
30.307514
 20
-18.164596
 30
0.0
 10
30.175085
 20
-18.370617
 30
0.0
 10
30.105293
 20
-18.517611
 30
0.0
 10
30.070373
 20
-18.591160
 30
0.0
 11
30.464663
 21
-17.977760
 31
0.0
 11
30.311564
 21
-18.167886
 31
0.0
 11
30.179759
 21
-18.372936
 31
0.0
 11
30.070373
 21
-18.591160
 31
0.0
  0
LWPOLYLINE
  5
13e
100
AcDbEntity
  8
other
 62
7
100
AcDbPolyline
 90
2
 70
0
 10
30.070373
 20
-18.591160
 30
0.0
 10
30.036783
 20
-18.667660
 30
0.0
  0
SPLINE
  5
13f
100
AcDbEntity
  8
other
 62
7
100
AcDbSpline
 70
0
 71
3
 72
10
 73
6
 74
4
 40
0.000000
 40
0.000000
 40
0.000000
 40
0.000000
 40
0.171176
 40
0.342232
 40
0.513408
 40
0.513408
 40
0.513408
 40
0.513408
 10
30.036783
 20
-18.667660
 30
0.0
 10
30.015210
 20
-18.720502
 30
0.0
 10
29.972080
 20
-18.826149
 30
0.0
 10
29.921767
 20
-18.990055
 30
0.0
 10
29.898195
 20
-19.101705
 30
0.0
 10
29.886405
 20
-19.157550
 30
0.0
 11
30.036783
 21
-18.667660
 31
0.0
 11
29.974465
 21
-18.827089
 31
0.0
 11
29.924269
 21
-18.990614
 31
0.0
 11
29.886405
 21
-19.157550
 31
0.0
  0
LWPOLYLINE
  5
140
100
AcDbEntity
  8
other
 62
7
100
AcDbPolyline
 90
2
 70
0
 10
29.886405
 20
-19.157550
 30
0.0
 10
29.867275
 20
-19.261420
 30
0.0
  0
SPLINE
  5
141
100
AcDbEntity
  8
other
 62
7
100
AcDbSpline
 70
0
 71
3
 72
10
 73
6
 74
4
 40
0.000000
 40
0.000000
 40
0.000000
 40
0.000000
 40
0.089876
 40
0.179734
 40
0.269610
 40
0.269610
 40
0.269610
 40
0.269610
 10
29.867275
 20
-19.261420
 30
0.0
 10
29.861973
 20
-19.290908
 30
0.0
 10
29.851370
 20
-19.349879
 30
0.0
 10
29.839644
 20
-19.439027
 30
0.0
 10
29.834638
 20
-19.498734
 30
0.0
 10
29.832135
 20
-19.528590
 30
0.0
 11
29.867275
 21
-19.261420
 31
0.0
 11
29.852065
 21
-19.349999
 31
0.0
 11
29.840348
 21
-19.439090
 31
0.0
 11
29.832135
 21
-19.528590
 31
0.0
  0
LWPOLYLINE
  5
142
100
AcDbEntity
  8
other
 62
7
100
AcDbPolyline
 90
2
 70
0
 10
29.832135
 20
-19.528590
 30
0.0
 10
29.822335
 20
-19.671210
 30
0.0
  0
SPLINE
  5
143
100
AcDbEntity
  8
other
 62
7
100
AcDbSpline
 70
0
 71
3
 72
10
 73
6
 74
4
 40
0.000000
 40
0.000000
 40
0.000000
 40
0.000000
 40
0.036549
 40
0.073097
 40
0.109646
 40
0.109646
 40
0.109646
 40
0.109646
 10
29.822335
 20
-19.671210
 30
0.0
 10
29.821646
 20
-19.683374
 30
0.0
 10
29.820269
 20
-19.707701
 30
0.0
 10
29.818902
 20
-19.744227
 30
0.0
 10
29.818457
 20
-19.768589
 30
0.0
 10
29.818235
 20
-19.780770
 30
0.0
 11
29.822335
 21
-19.671210
 31
0.0
 11
29.820385
 21
-19.707707
 31
0.0
 11
29.819018
 21
-19.744229
 31
0.0
 11
29.818235
 21
-19.780770
 31
0.0
  0
LWPOLYLINE
  5
144
100
AcDbEntity
  8
other
 62
7
100
AcDbPolyline
 90
2
 70
0
 10
29.818235
 20
-19.780770
 30
0.0
 10
29.814635
 20
-19.974040
 30
0.0
  0
SPLINE
  5
145
100
AcDbEntity
  8
other
 62
7
100
AcDbSpline
 70
0
 71
3
 72
10
 73
6
 74
4
 40
0.000000
 40
0.000000
 40
0.000000
 40
0.000000
 40
0.009825
 40
0.019650
 40
0.029475
 40
0.029475
 40
0.029475
 40
0.029475
 10
29.814635
 20
-19.974040
 30
0.0
 10
29.814385
 20
-19.977305
 30
0.0
 10
29.813885
 20
-19.983836
 30
0.0
 10
29.813185
 20
-19.993636
 30
0.0
 10
29.812752
 20
-20.000172
 30
0.0
 10
29.812535
 20
-20.003440
 30
0.0
 11
29.814635
 21
-19.974040
 31
0.0
 11
29.813893
 21
-19.983837
 31
0.0
 11
29.813193
 21
-19.993637
 31
0.0
 11
29.812535
 21
-20.003440
 31
0.0
  0
LWPOLYLINE
  5
146
100
AcDbEntity
  8
other
 62
7
100
AcDbPolyline
 90
30
 70
0
 10
29.812535
 20
-20.003440
 30
0.0
 10
29.812535
 20
-20.204460
 30
0.0
 10
29.730365
 20
-21.821940
 30
0.0
 10
29.494206
 20
-23.360860
 30
0.0
 10
29.111282
 20
-24.878600
 30
0.0
 10
28.582116
 20
-26.349310
 30
0.0
 10
27.916006
 20
-27.763180
 30
0.0
 10
27.115022
 20
-29.106760
 30
0.0
 10
26.191563
 20
-30.360950
 30
0.0
 10
25.150285
 20
-31.513340
 30
0.0
 10
23.995833
 20
-32.554100
 30
0.0
 10
22.742161
 20
-33.480140
 30
0.0
 10
21.400125
 20
-34.276990
 30
0.0
 10
19.984192
 20
-34.944650
 30
0.0
 10
18.511413
 20
-35.473820
 30
0.0
 10
16.997811
 20
-35.856740
 30
0.0
 10
15.458886
 20
-36.093420
 30
0.0
 10
13.908075
 20
-36.171420
 30
0.0
 10
12.355199
 20
-36.091320
 30
0.0
 10
10.816276
 20
-35.856710
 30
0.0
 10
9.302672
 20
-35.472240
 30
0.0
 10
7.827826
 20
-34.942550
 30
0.0
 10
6.411892
 20
-34.276960
 30
0.0
 10
5.070373
 20
-33.480110
 30
0.0
 10
3.816184
 20
-32.554070
 30
0.0
 10
2.640545
 20
-31.493670
 30
0.0
 10
2.289147
 20
-31.124180
 30
0.0
 10
1.919662
 20
-30.716450
 30
0.0
 10
1.913972
 20
-30.710450
 30
0.0
 10
1.554865
 20
-30.313700
 30
0.0
  0
SPLINE
  5
147
100
AcDbEntity
  8
other
 62
7
100
AcDbSpline
 70
0
 71
3
 72
10
 73
6
 74
4
 40
0.000000
 40
0.000000
 40
0.000000
 40
0.000000
 40
0.031435
 40
0.062869
 40
0.094304
 40
0.094304
 40
0.094304
 40
0.094304
 10
1.554865
 20
-30.313700
 30
0.0
 10
1.547814
 20
-30.305949
 30
0.0
 10
1.533712
 20
-30.290447
 30
0.0
 10
1.512177
 20
-30.267544
 30
0.0
 10
1.497572
 20
-30.252515
 30
0.0
 10
1.490270
 20
-30.245000
 30
0.0
 11
1.554865
 21
-30.313700
 31
0.0
 11
1.533648
 21
-30.290505
 31
0.0
 11
1.512115
 21
-30.267604
 31
0.0
 11
1.490270
 21
-30.245000
 31
0.0
  0
LWPOLYLINE
  5
148
100
AcDbEntity
  8
other
 62
7
100
AcDbPolyline
 90
2
 70
0
 10
1.490270
 20
-30.245000
 30
0.0
 10
1.144554
 20
-29.895640
 30
0.0
  0
SPLINE
  5
149
100
AcDbEntity
  8
other
 62
7
100
AcDbSpline
 70
0
 71
3
 72
10
 73
6
 74
4
 40
0.000000
 40
0.000000
 40
0.000000
 40
0.000000
 40
0.076102
 40
0.152193
 40
0.228295
 40
0.228295
 40
0.228295
 40
0.228295
 10
1.144554
 20
-29.895640
 30
0.0
 10
1.126584
 20
-29.877733
 30
0.0
 10
1.090647
 20
-29.841921
 30
0.0
 10
1.034623
 20
-29.790380
 30
0.0
 10
0.995945
 20
-29.757547
 30
0.0
 10
0.976604
 20
-29.741130
 30
0.0
 11
1.144554
 21
-29.895640
 31
0.0
 11
1.090292
 21
-29.842282
 31
0.0
 11
1.034293
 21
-29.790764
 31
0.0
 11
0.976604
 21
-29.741130
 31
0.0
  0
LWPOLYLINE
  5
14a
100
AcDbEntity
  8
other
 62
7
100
AcDbPolyline
 90
2
 70
0
 10
0.976604
 20
-29.741130
 30
0.0
 10
0.626757
 20
-29.452250
 30
0.0
  0
SPLINE
  5
14b
100
AcDbEntity
  8
other
 62
7
100
AcDbSpline
 70
0
 71
3
 72
10
 73
6
 74
4
 40
0.000000
 40
0.000000
 40
0.000000
 40
0.000000
 40
0.116295
 40
0.232553
 40
0.348848
 40
0.348848
 40
0.348848
 40
0.348848
 10
0.626757
 20
-29.452250
 30
0.0
 10
0.596505
 20
-29.428001
 30
0.0
 10
0.536013
 20
-29.379511
 30
0.0
 10
0.440936
 20
-29.312389
 30
0.0
 10
0.374994
 20
-29.271618
 30
0.0
 10
0.342017
 20
-29.251230
 30
0.0
 11
0.626757
 21
-29.452250
 31
0.0
 11
0.535281
 21
-29.380439
 31
0.0
 11
0.440306
 21
-29.313389
 31
0.0
 11
0.342017
 21
-29.251230
 31
0.0
  0
LWPOLYLINE
  5
14c
100
AcDbEntity
  8
other
 62
7
100
AcDbPolyline
 90
2
 70
0
 10
0.342017
 20
-29.251230
 30
0.0
 10
-0.027468
 20
-29.030570
 30
0.0
  0
SPLINE
  5
14d
100
AcDbEntity
  8
other
 62
7
100
AcDbSpline
 70
0
 71
3
 72
10
 73
6
 74
4
 40
0.000000
 40
0.000000
 40
0.000000
 40
0.000000
 40
0.158744
 40
0.317392
 40
0.476136
 40
0.476136
 40
0.476136
 40
0.476136
 10
-0.027468
 20
-29.030570
 30
0.0
 10
-0.073498
 20
-29.004443
 30
0.0
 10
-0.165531
 20
-28.952205
 30
0.0
 10
-0.309826
 20
-28.885502
 30
0.0
 10
-0.409243
 20
-28.849237
 30
0.0
 10
-0.458966
 20
-28.831100
 30
0.0
 11
-0.027468
 21
-29.030570
 31
0.0
 11
-0.166598
 21
-28.954134
 31
0.0
 11
-0.310604
 21
-28.887564
 31
0.0
 11
-0.458966
 21
-28.831100
 31
0.0
  0
LWPOLYLINE
  5
14e
100
AcDbEntity
  8
other
 62
7
100
AcDbPolyline
 90
2
 70
0
 10
-0.458966
 20
-28.831100
 30
0.0
 10
-0.863075
 20
-28.692610
 30
0.0
  0
SPLINE
  5
14f
100
AcDbEntity
  8
other
 62
7
100
AcDbSpline
 70
0
 71
3
 72
10
 73
6
 74
4
 40
0.000000
 40
0.000000
 40
0.000000
 40
0.000000
 40
0.176393
 40
0.352656
 40
0.529049
 40
0.529049
 40
0.529049
 40
0.529049
 10
-0.863075
 20
-28.692610
 30
0.0
 10
-0.919115
 20
-28.674751
 30
0.0
 10
-1.031152
 20
-28.639046
 30
0.0
 10
-1.203744
 20
-28.601173
 30
0.0
 10
-1.320438
 20
-28.586686
 30
0.0
 10
-1.378806
 20
-28.579440
 30
0.0
 11
-0.863075
 21
-28.692610
 31
0.0
 11
-1.031947
 21
-28.641649
 31
0.0
 11
-1.204113
 21
-28.603870
 31
0.0
 11
-1.378806
 21
-28.579440
 31
0.0
  0
LWPOLYLINE
  5
150
100
AcDbEntity
  8
other
 62
7
100
AcDbPolyline
 90
2
 70
0
 10
-1.378806
 20
-28.579440
 30
0.0
 10
-1.832008
 20
-28.534440
 30
0.0
  0
SPLINE
  5
151
100
AcDbEntity
  8
other
 62
7
100
AcDbSpline
 70
0
 71
3
 72
10
 73
6
 74
4
 40
0.000000
 40
0.000000
 40
0.000000
 40
0.000000
 40
0.171604
 40
0.343087
 40
0.514691
 40
0.514691
 40
0.514691
 40
0.514691
 10
-1.832008
 20
-28.534440
 30
0.0
 10
-1.889069
 20
-28.530186
 30
0.0
 10
-2.003149
 20
-28.521681
 30
0.0
 10
-2.175013
 20
-28.524358
 30
0.0
 10
-2.288773
 20
-28.536411
 30
0.0
 10
-2.345673
 20
-28.542440
 30
0.0
 11
-1.832008
 21
-28.534440
 31
0.0
 11
-2.003310
 21
-28.524252
 31
0.0
 11
-2.174772
 21
-28.526923
 31
0.0
 11
-2.345673
 21
-28.542440
 31
0.0
  0
LWPOLYLINE
  5
152
100
AcDbEntity
  8
other
 62
7
100
AcDbPolyline
 90
2
 70
0
 10
-2.345673
 20
-28.542440
 30
0.0
 10
-2.779238
 20
-28.597240
 30
0.0
  0
SPLINE
  5
153
100
AcDbEntity
  8
other
 62
7
100
AcDbSpline
 70
0
 71
3
 72
10
 73
6
 74
4
 40
0.000000
 40
0.000000
 40
0.000000
 40
0.000000
 40
0.179432
 40
0.358726
 40
0.538158
 40
0.538158
 40
0.538158
 40
0.538158
 10
-2.779238
 20
-28.597240
 30
0.0
 10
-2.838416
 20
-28.606053
 30
0.0
 10
-2.956725
 20
-28.623673
 30
0.0
 10
-3.131243
 20
-28.666739
 30
0.0
 10
-3.244168
 20
-28.706181
 30
0.0
 10
-3.300652
 20
-28.725910
 30
0.0
 11
-2.779238
 21
-28.597240
 31
0.0
 11
-2.956276
 21
-28.626454
 31
0.0
 11
-3.130348
 21
-28.669410
 31
0.0
 11
-3.300652
 21
-28.725910
 31
0.0
  0
LWPOLYLINE
  5
154
100
AcDbEntity
  8
other
 62
7
100
AcDbPolyline
 90
2
 70
0
 10
-3.300652
 20
-28.725910
 30
0.0
 10
-3.677890
 20
-28.868540
 30
0.0
  0
SPLINE
  5
155
100
AcDbEntity
  8
other
 62
7
100
AcDbSpline
 70
0
 71
3
 72
10
 73
6
 74
4
 40
0.000000
 40
0.000000
 40
0.000000
 40
0.000000
 40
0.162156
 40
0.324211
 40
0.486367
 40
0.486367
 40
0.486367
 40
0.486367
 10
-3.677890
 20
-28.868540
 30
0.0
 10
-3.728061
 20
-28.888692
 30
0.0
 10
-3.828371
 20
-28.928983
 30
0.0
 10
-3.973377
 20
-29.002090
 30
0.0
 10
-4.065421
 20
-29.058778
 30
0.0
 10
-4.111457
 20
-29.087130
 30
0.0
 11
-3.677890
 21
-28.868540
 31
0.0
 11
-3.827489
 21
-28.931107
 31
0.0
 11
-3.972193
 21
-29.004062
 31
0.0
 11
-4.111457
 21
-29.087130
 31
0.0
  0
LWPOLYLINE
  5
156
100
AcDbEntity
  8
other
 62
7
100
AcDbPolyline
 90
2
 70
0
 10
-4.111457
 20
-29.087130
 30
0.0
 10
-4.453037
 20
-29.307790
 30
0.0
  0
SPLINE
  5
157
100
AcDbEntity
  8
other
 62
7
100
AcDbSpline
 70
0
 71
3
 72
10
 73
6
 74
4
 40
0.000000
 40
0.000000
 40
0.000000
 40
0.000000
 40
0.122264
 40
0.244485
 40
0.366749
 40
0.366749
 40
0.366749
 40
0.366749
 10
-4.453037
 20
-29.307790
 30
0.0
 10
-4.486924
 20
-29.330442
 30
0.0
 10
-4.554686
 20
-29.375739
 30
0.0
 10
-4.651850
 20
-29.450120
 30
0.0
 10
-4.713263
 20
-29.503710
 30
0.0
 10
-4.743975
 20
-29.530510
 30
0.0
 11
-4.453037
 21
-29.307790
 31
0.0
 11
-4.553950
 21
-29.376820
 31
0.0
 11
-4.650999
 21
-29.451113
 31
0.0
 11
-4.743975
 21
-29.530510
 31
0.0
  0
LWPOLYLINE
  5
158
100
AcDbEntity
  8
other
 62
7
100
AcDbPolyline
 90
2
 70
0
 10
-4.743975
 20
-29.530510
 30
0.0
 10
-5.064370
 20
-29.819390
 30
0.0
  0
SPLINE
  5
159
100
AcDbEntity
  8
other
 62
7
100
AcDbSpline
 70
0
 71
3
 72
10
 73
6
 74
4
 40
0.000000
 40
0.000000
 40
0.000000
 40
0.000000
 40
0.068231
 40
0.136454
 40
0.204685
 40
0.204685
 40
0.204685
 40
0.204685
 10
-5.064370
 20
-29.819390
 30
0.0
 10
-5.081018
 20
-29.834887
 30
0.0
 10
-5.114313
 20
-29.865880
 30
0.0
 10
-5.162572
 20
-29.914138
 30
0.0
 10
-5.193565
 20
-29.947432
 30
0.0
 10
-5.209063
 20
-29.964080
 30
0.0
 11
-5.064370
 21
-29.819390
 31
0.0
 11
-5.114034
 21
-29.866176
 31
0.0
 11
-5.162275
 21
-29.914417
 31
0.0
 11
-5.209063
 21
-29.964080
 31
0.0
  0
LWPOLYLINE
  5
15a
100
AcDbEntity
  8
other
 62
7
100
AcDbPolyline
 90
2
 70
0
 10
-5.209063
 20
-29.964080
 30
0.0
 10
-5.529457
 20
-30.309800
 30
0.0
  0
SPLINE
  5
15b
100
AcDbEntity
  8
other
 62
7
100
AcDbSpline
 70
0
 71
3
 72
10
 73
6
 74
4
 40
0.000000
 40
0.000000
 40
0.000000
 40
0.000000
 40
0.026348
 40
0.052696
 40
0.079045
 40
0.079045
 40
0.079045
 40
0.079045
 10
-5.529457
 20
-30.309800
 30
0.0
 10
-5.535404
 20
-30.316263
 30
0.0
 10
-5.547298
 20
-30.329190
 30
0.0
 10
-5.564869
 20
-30.348825
 30
0.0
 10
-5.576401
 20
-30.362075
 30
0.0
 10
-5.582167
 20
-30.368700
 30
0.0
 11
-5.529457
 21
-30.309800
 31
0.0
 11
-5.547253
 21
-30.329231
 31
0.0
 11
-5.564824
 21
-30.348865
 31
0.0
 11
-5.582167
 21
-30.368700
 31
0.0
  0
LWPOLYLINE
  5
15c
100
AcDbEntity
  8
other
 62
7
100
AcDbPolyline
 90
29
 70
0
 10
-5.582167
 20
-30.368700
 30
0.0
 10
-5.915997
 20
-30.753170
 30
0.0
 10
-6.253960
 20
-31.139710
 30
0.0
 10
-6.589857
 20
-31.493690
 30
0.0
 10
-7.763429
 20
-32.552030
 30
0.0
 10
-9.017618
 20
-33.478070
 30
0.0
 10
-10.357587
 20
-34.274920
 30
0.0
 10
-11.773521
 20
-34.940510
 30
0.0
 10
-13.247850
 20
-35.470190
 30
0.0
 10
-14.761968
 20
-35.854670
 30
0.0
 10
-16.300893
 20
-36.089280
 30
0.0
 10
-17.855320
 20
-36.169380
 30
0.0
 10
-19.404062
 20
-36.091380
 30
0.0
 10
-20.943503
 20
-35.854700
 30
0.0
 10
-22.457107
 20
-35.471770
 30
0.0
 10
-23.929884
 20
-34.942610
 30
0.0
 10
-25.345820
 20
-34.274950
 30
0.0
 10
-26.689406
 20
-33.478100
 30
0.0
 10
-27.943592
 20
-32.552060
 30
0.0
 10
-29.095461
 20
-31.511290
 30
0.0
 10
-30.136742
 20
-30.360460
 30
0.0
 10
-31.060717
 20
-29.104720
 30
0.0
 10
-31.861185
 20
-27.761130
 30
0.0
 10
-32.527292
 20
-26.347270
 30
0.0
 10
-33.056458
 20
-24.874490
 30
0.0
 10
-33.441448
 20
-23.358820
 30
0.0
 10
-33.675544
 20
-21.819890
 30
0.0
 10
-33.757704
 20
-20.217930
 30
0.0
 10
-33.755604
 20
-20.028790
 30
0.0
  0
SPLINE
  5
15d
100
AcDbEntity
  8
other
 62
7
100
AcDbSpline
 70
0
 71
3
 72
10
 73
6
 74
4
 40
0.000000
 40
0.000000
 40
0.000000
 40
0.000000
 40
0.005867
 40
0.011733
 40
0.017600
 40
0.017600
 40
0.017600
 40
0.017600
 10
-33.755604
 20
-20.028790
 30
0.0
 10
-33.755598
 20
-20.026834
 30
0.0
 10
-33.755586
 20
-20.022923
 30
0.0
 10
-33.755586
 20
-20.017057
 30
0.0
 10
-33.755598
 20
-20.013146
 30
0.0
 10
-33.755604
 20
-20.011190
 30
0.0
 11
-33.755604
 21
-20.028790
 31
0.0
 11
-33.755589
 21
-20.022923
 31
0.0
 11
-33.755589
 21
-20.017057
 31
0.0
 11
-33.755604
 21
-20.011190
 31
0.0
  0
LWPOLYLINE
  5
15e
100
AcDbEntity
  8
other
 62
7
100
AcDbPolyline
 90
2
 70
0
 10
-33.755604
 20
-20.011190
 30
0.0
 10
-33.755604
 20
-19.801900
 30
0.0
  0
SPLINE
  5
15f
100
AcDbEntity
  8
other
 62
7
100
AcDbSpline
 70
0
 71
3
 72
10
 73
6
 74
4
 40
0.000000
 40
0.000000
 40
0.000000
 40
0.000000
 40
0.026711
 40
0.053421
 40
0.080131
 40
0.080131
 40
0.080131
 40
0.080131
 10
-33.755604
 20
-19.801900
 30
0.0
 10
-33.755713
 20
-19.792997
 30
0.0
 10
-33.755930
 20
-19.775191
 30
0.0
 10
-33.756630
 20
-19.748489
 30
0.0
 10
-33.757346
 20
-19.730696
 30
0.0
 10
-33.757704
 20
-19.721800
 30
0.0
 11
-33.755604
 21
-19.801900
 31
0.0
 11
-33.755992
 21
-19.775192
 31
0.0
 11
-33.756692
 21
-19.748491
 31
0.0
 11
-33.757704
 21
-19.721800
 31
0.0
  0
LWPOLYLINE
  5
160
100
AcDbEntity
  8
other
 62
7
100
AcDbPolyline
 90
2
 70
0
 10
-33.757704
 20
-19.721800
 30
0.0
 10
-33.763904
 20
-19.555920
 30
0.0
  0
SPLINE
  5
161
100
AcDbEntity
  8
other
 62
7
100
AcDbSpline
 70
0
 71
3
 72
10
 73
6
 74
4
 40
0.000000
 40
0.000000
 40
0.000000
 40
0.000000
 40
0.075231
 40
0.150452
 40
0.225684
 40
0.225684
 40
0.225684
 40
0.225684
 10
-33.763904
 20
-19.555920
 30
0.0
 10
-33.765043
 20
-19.530867
 30
0.0
 10
-33.767322
 20
-19.480765
 30
0.0
 10
-33.773703
 20
-19.405781
 30
0.0
 10
-33.779924
 20
-19.356015
 30
0.0
 10
-33.783034
 20
-19.331130
 30
0.0
 11
-33.763904
 21
-19.555920
 31
0.0
 11
-33.767816
 21
-19.480790
 31
0.0
 11
-33.774194
 21
-19.405840
 31
0.0
 11
-33.783034
 21
-19.331130
 31
0.0
  0
LWPOLYLINE
  5
162
100
AcDbEntity
  8
other
 62
7
100
AcDbPolyline
 90
2
 70
0
 10
-33.783034
 20
-19.331130
 30
0.0
 10
-33.800604
 20
-19.200390
 30
0.0
  0
SPLINE
  5
163
100
AcDbEntity
  8
other
 62
7
100
AcDbSpline
 70
0
 71
3
 72
10
 73
6
 74
4
 40
0.000000
 40
0.000000
 40
0.000000
 40
0.000000
 40
0.139069
 40
0.278074
 40
0.417143
 40
0.417143
 40
0.417143
 40
0.417143
 10
-33.800604
 20
-19.200390
 30
0.0
 10
-33.807523
 20
-19.154544
 30
0.0
 10
-33.821357
 20
-19.062872
 30
0.0
 10
-33.852106
 20
-18.927092
 30
0.0
 10
-33.879116
 20
-18.838404
 30
0.0
 10
-33.892624
 20
-18.794050
 30
0.0
 11
-33.800604
 21
-19.200390
 31
0.0
 11
-33.823027
 21
-19.063141
 31
0.0
 11
-33.853728
 21
-18.927569
 31
0.0
 11
-33.892624
 21
-18.794050
 31
0.0
  0
LWPOLYLINE
  5
164
100
AcDbEntity
  8
other
 62
7
100
AcDbPolyline
 90
2
 70
0
 10
-33.892624
 20
-18.794050
 30
0.0
 10
-33.925694
 20
-18.692760
 30
0.0
  0
SPLINE
  5
165
100
AcDbEntity
  8
other
 62
7
100
AcDbSpline
 70
0
 71
3
 72
10
 73
6
 74
4
 40
0.000000
 40
0.000000
 40
0.000000
 40
0.000000
 40
0.203370
 40
0.406540
 40
0.609910
 40
0.609910
 40
0.609910
 40
0.609910
 10
-33.925694
 20
-18.692760
 30
0.0
 10
-33.948644
 20
-18.628943
 30
0.0
 10
-33.994523
 20
-18.501371
 30
0.0
 10
-34.083529
 20
-18.317992
 30
0.0
 10
-34.155373
 20
-18.203023
 30
0.0
 10
-34.191312
 20
-18.145510
 30
0.0
 11
-33.925694
 21
-18.692760
 31
0.0
 11
-33.997911
 21
-18.502644
 31
0.0
 11
-34.086626
 21
-18.319866
 31
0.0
 11
-34.191312
 21
-18.145510
 31
0.0
  0
LWPOLYLINE
  5
166
100
AcDbEntity
  8
other
 62
7
100
AcDbPolyline
 90
2
 70
0
 10
-34.191312
 20
-18.145510
 30
0.0
 10
-34.244022
 20
-18.065410
 30
0.0
  0
SPLINE
  5
167
100
AcDbEntity
  8
other
 62
7
100
AcDbSpline
 70
0
 71
3
 72
10
 73
6
 74
4
 40
0.000000
 40
0.000000
 40
0.000000
 40
0.000000
 40
0.225912
 40
0.451551
 40
0.677463
 40
0.677463
 40
0.677463
 40
0.677463
 10
-34.244022
 20
-18.065410
 30
0.0
 10
-34.287189
 20
-18.003658
 30
0.0
 10
-34.373471
 20
-17.880230
 30
0.0
 10
-34.524308
 20
-17.711190
 30
0.0
 10
-34.637152
 20
-17.611463
 30
0.0
 10
-34.693608
 20
-17.561570
 30
0.0
 11
-34.244022
 21
-18.065410
 31
0.0
 11
-34.377091
 21
-17.882848
 31
0.0
 11
-34.527320
 21
-17.714490
 31
0.0
 11
-34.693608
 21
-17.561570
 31
0.0
  0
LWPOLYLINE
  5
168
100
AcDbEntity
  8
other
 62
7
100
AcDbPolyline
 90
2
 70
0
 10
-34.693608
 20
-17.561570
 30
0.0
 10
-34.773708
 20
-17.495470
 30
0.0
  0
SPLINE
  5
169
100
AcDbEntity
  8
other
 62
7
100
AcDbSpline
 70
0
 71
3
 72
10
 73
6
 74
4
 40
0.000000
 40
0.000000
 40
0.000000
 40
0.000000
 40
0.153185
 40
0.306285
 40
0.459471
 40
0.459471
 40
0.459471
 40
0.459471
 10
-34.773708
 20
-17.495470
 30
0.0
 10
-34.813685
 20
-17.463683
 30
0.0
 10
-34.893616
 20
-17.400126
 30
0.0
 10
-35.020947
 20
-17.314605
 30
0.0
 10
-35.110015
 20
-17.264653
 30
0.0
 10
-35.154562
 20
-17.239670
 30
0.0
 11
-34.773708
 21
-17.495470
 31
0.0
 11
-34.894876
 21
-17.401746
 31
0.0
 11
-35.021970
 21
-17.316384
 31
0.0
 11
-35.154562
 21
-17.239670
 31
0.0
  0
LWPOLYLINE
  5
16a
100
AcDbEntity
  8
other
 62
7
100
AcDbPolyline
 90
2
 70
0
 10
-35.154562
 20
-17.239670
 30
0.0
 10
-35.263600
 20
-17.180770
 30
0.0
  0
SPLINE
  5
16b
100
AcDbEntity
  8
other
 62
7
100
AcDbSpline
 70
0
 71
3
 72
10
 73
6
 74
4
 40
0.000000
 40
0.000000
 40
0.000000
 40
0.000000
 40
0.097977
 40
0.195931
 40
0.293908
 40
0.293908
 40
0.293908
 40
0.293908
 10
-35.263600
 20
-17.180770
 30
0.0
 10
-35.292636
 20
-17.165813
 30
0.0
 10
-35.350702
 20
-17.135903
 30
0.0
 10
-35.440039
 20
-17.095547
 30
0.0
 10
-35.500867
 20
-17.071750
 30
0.0
 10
-35.531284
 20
-17.059850
 30
0.0
 11
-35.263600
 21
-17.180770
 31
0.0
 11
-35.351081
 21
-17.136651
 31
0.0
 11
-35.440350
 21
-17.096326
 31
0.0
 11
-35.531284
 21
-17.059850
 31
0.0
  0
LWPOLYLINE
  5
16c
100
AcDbEntity
  8
other
 62
7
100
AcDbPolyline
 90
2
 70
0
 10
-35.531284
 20
-17.059850
 30
0.0
 10
-35.644454
 20
-17.016950
 30
0.0
  0
SPLINE
  5
16d
100
AcDbEntity
  8
other
 62
7
100
AcDbSpline
 70
0
 71
3
 72
10
 73
6
 74
4
 40
0.000000
 40
0.000000
 40
0.000000
 40
0.000000
 40
0.143435
 40
0.286800
 40
0.430236
 40
0.430236
 40
0.430236
 40
0.430236
 10
-35.644454
 20
-17.016950
 30
0.0
 10
-35.689430
 20
-17.000698
 30
0.0
 10
-35.779359
 20
-16.968203
 30
0.0
 10
-35.917697
 20
-16.929689
 30
0.0
 10
-36.011481
 20
-16.911038
 30
0.0
 10
-36.058384
 20
-16.901710
 30
0.0
 11
-35.644454
 21
-17.016950
 31
0.0
 11
-35.779953
 21
-16.969901
 31
0.0
 11
-35.918066
 21
-16.931450
 31
0.0
 11
-36.058384
 21
-16.901710
 31
0.0
  0
LWPOLYLINE
  5
16e
100
AcDbEntity
  8
other
 62
7
100
AcDbPolyline
 90
2
 70
0
 10
-36.058384
 20
-16.901710
 30
0.0
 10
-36.158124
 20
-16.884110
 30
0.0
  0
SPLINE
  5
16f
100
AcDbEntity
  8
other
 62
7
100
AcDbSpline
 70
0
 71
3
 72
10
 73
6
 74
4
 40
0.000000
 40
0.000000
 40
0.000000
 40
0.000000
 40
0.228128
 40
0.455974
 40
0.684102
 40
0.684102
 40
0.684102
 40
0.684102
 10
-36.158124
 20
-16.884110
 30
0.0
 10
-36.233404
 20
-16.873083
 30
0.0
 10
-36.383871
 20
-16.851041
 30
0.0
 10
-36.612582
 20
-16.845136
 30
0.0
 10
-36.763986
 20
-16.859382
 30
0.0
 10
-36.839735
 20
-16.866510
 30
0.0
 11
-36.158124
 21
-16.884110
 31
0.0
 11
-36.384458
 21
-16.855560
 31
0.0
 11
-36.612229
 21
-16.849678
 31
0.0
 11
-36.839735
 21
-16.866510
 31
0.0
  0
LWPOLYLINE
  5
170
100
AcDbEntity
  8
other
 62
7
100
AcDbPolyline
 90
2
 70
0
 10
-36.839735
 20
-16.866510
 30
0.0
 10
-36.933785
 20
-16.877910
 30
0.0
  0
SPLINE
  5
171
100
AcDbEntity
  8
other
 62
7
100
AcDbSpline
 70
0
 71
3
 72
10
 73
6
 74
4
 40
0.000000
 40
0.000000
 40
0.000000
 40
0.000000
 40
0.195562
 40
0.390946
 40
0.586507
 40
0.586507
 40
0.586507
 40
0.586507
 10
-36.933785
 20
-16.877910
 30
0.0
 10
-36.998256
 20
-16.887719
 30
0.0
 10
-37.127139
 20
-16.907329
 30
0.0
 10
-37.316851
 20
-16.956487
 30
0.0
 10
-37.439038
 20
-17.001935
 30
0.0
 10
-37.500160
 20
-17.024670
 30
0.0
 11
-36.933785
 21
-16.877910
 31
0.0
 11
-37.126590
 21
-16.910630
 31
0.0
 11
-37.315727
 21
-16.959640
 31
0.0
 11
-37.500160
 21
-17.024670
 31
0.0
  0
LWPOLYLINE
  5
172
100
AcDbEntity
  8
other
 62
7
100
AcDbPolyline
 90
2
 70
0
 10
-37.500160
 20
-17.024670
 30
0.0
 10
-37.597830
 20
-17.063470
 30
0.0
  0
SPLINE
  5
173
100
AcDbEntity
  8
other
 62
7
100
AcDbSpline
 70
0
 71
3
 72
10
 73
6
 74
4
 40
0.000000
 40
0.000000
 40
0.000000
 40
0.000000
 40
0.152266
 40
0.304448
 40
0.456714
 40
0.456714
 40
0.456714
 40
0.456714
 10
-37.597830
 20
-17.063470
 30
0.0
 10
-37.644550
 20
-17.083335
 30
0.0
 10
-37.737963
 20
-17.123053
 30
0.0
 10
-37.873064
 20
-17.193711
 30
0.0
 10
-37.958973
 20
-17.247779
 30
0.0
 10
-38.001939
 20
-17.274820
 30
0.0
 11
-37.597830
 21
-17.063470
 31
0.0
 11
-37.737150
 21
-17.124911
 31
0.0
 11
-37.872002
 21
-17.195439
 31
0.0
 11
-38.001939
 21
-17.274820
 31
0.0
  0
LWPOLYLINE
  5
174
100
AcDbEntity
  8
other
 62
7
100
AcDbPolyline
 90
2
 70
0
 10
-38.001939
 20
-17.274820
 30
0.0
 10
-38.109426
 20
-17.345120
 30
0.0
  0
SPLINE
  5
175
100
AcDbEntity
  8
other
 62
7
100
AcDbSpline
 70
0
 71
3
 72
10
 73
6
 74
4
 40
0.000000
 40
0.000000
 40
0.000000
 40
0.000000
 40
0.083868
 40
0.167722
 40
0.251590
 40
0.251590
 40
0.251590
 40
0.251590
 10
-38.109426
 20
-17.345120
 30
0.0
 10
-38.132707
 20
-17.360600
 30
0.0
 10
-38.179267
 20
-17.391557
 30
0.0
 10
-38.247024
 20
-17.441038
 30
0.0
 10
-38.290683
 20
-17.475965
 30
0.0
 10
-38.312515
 20
-17.493430
 30
0.0
 11
-38.109426
 21
-17.345120
 31
0.0
 11
-38.178923
 21
-17.392067
 31
0.0
 11
-38.246642
 21
-17.441520
 31
0.0
 11
-38.312515
 21
-17.493430
 31
0.0
  0
LWPOLYLINE
  5
176
100
AcDbEntity
  8
other
 62
7
100
AcDbPolyline
 90
2
 70
0
 10
-38.312515
 20
-17.493430
 30
0.0
 10
-38.435504
 20
-17.594720
 30
0.0
  0
SPLINE
  5
177
100
AcDbEntity
  8
other
 62
7
100
AcDbSpline
 70
0
 71
3
 72
10
 73
6
 74
4
 40
0.000000
 40
0.000000
 40
0.000000
 40
0.000000
 40
0.031022
 40
0.062044
 40
0.093066
 40
0.093066
 40
0.093066
 40
0.093066
 10
-38.435504
 20
-17.594720
 30
0.0
 10
-38.443423
 20
-17.601370
 30
0.0
 10
-38.459260
 20
-17.614671
 30
0.0
 10
-38.482690
 20
-17.635007
 30
0.0
 10
-38.498086
 20
-17.648816
 30
0.0
 10
-38.505784
 20
-17.655720
 30
0.0
 11
-38.435504
 21
-17.594720
 31
0.0
 11
-38.459206
 21
-17.614735
 31
0.0
 11
-38.482634
 21
-17.635070
 31
0.0
 11
-38.505784
 21
-17.655720
 31
0.0
  0
LWPOLYLINE
  5
178
100
AcDbEntity
  8
other
 62
7
100
AcDbPolyline
 90
2
 70
0
 10
-38.505784
 20
-17.655720
 30
0.0
 10
-38.656162
 20
-17.790080
 30
0.0
  0
SPLINE
  5
179
100
AcDbEntity
  8
other
 62
7
100
AcDbSpline
 70
0
 71
3
 72
10
 73
6
 74
4
 40
0.000000
 40
0.000000
 40
0.000000
 40
0.000000
 40
0.008290
 40
0.016579
 40
0.024869
 40
0.024869
 40
0.024869
 40
0.024869
 10
-38.656162
 20
-17.790080
 30
0.0
 10
-38.658123
 20
-17.792027
 30
0.0
 10
-38.662044
 20
-17.795921
 30
0.0
 10
-38.667901
 20
-17.801788
 30
0.0
 10
-38.671788
 20
-17.805716
 30
0.0
 10
-38.673732
 20
-17.807680
 30
0.0
 11
-38.656162
 21
-17.790080
 31
0.0
 11
-38.662040
 21
-17.795925
 31
0.0
 11
-38.667897
 21
-17.801792
 31
0.0
 11
-38.673732
 21
-17.807680
 31
0.0
  0
LWPOLYLINE
  5
17a
100
AcDbEntity
  8
other
 62
7
100
AcDbPolyline
 90
42
 70
0
 10
-38.673732
 20
-17.807680
 30
0.0
 10
-38.820493
 20
-17.940490
 30
0.0
 10
-40.353733
 20
-19.224130
 30
0.0
 10
-41.951051
 20
-20.325350
 30
0.0
 10
-43.650690
 20
-21.274650
 30
0.0
 10
-45.433526
 20
-22.069430
 30
0.0
 10
-47.279408
 20
-22.698330
 30
0.0
 10
-49.168183
 20
-23.153600
 30
0.0
 10
-51.090029
 20
-23.429040
 30
0.0
 10
-53.025311
 20
-23.524640
 30
0.0
 10
-55.064463
 20
-23.421290
 30
0.0
 10
-57.083977
 20
-23.112780
 30
0.0
 10
-59.070421
 20
-22.608420
 30
0.0
 10
-61.002086
 20
-21.915440
 30
0.0
 10
-62.857270
 20
-21.040550
 30
0.0
 10
-64.619435
 20
-19.991520
 30
0.0
 10
-66.267397
 20
-18.780740
 30
0.0
 10
-67.779448
 20
-17.413390
 30
0.0
 10
-69.146291
 20
-15.899780
 30
0.0
 10
-70.359652
 20
-14.253370
 30
0.0
 10
-71.406100
 20
-12.493270
 30
0.0
 10
-72.281501
 20
-10.638090
 30
0.0
 10
-72.974481
 20
-8.706420
 30
0.0
 10
-73.478325
 20
-6.722050
 30
0.0
 10
-73.785284
 20
-4.700470
 30
0.0
 10
-73.890704
 20
-2.663380
 30
0.0
 10
-73.785284
 20
-0.626300
 30
0.0
 10
-73.478325
 20
1.395280
 30
0.0
 10
-72.974481
 20
3.379660
 30
0.0
 10
-72.281501
 20
5.311320
 30
0.0
 10
-71.406100
 20
7.166510
 30
0.0
 10
-70.359652
 20
8.926610
 30
0.0
 10
-69.146291
 20
10.573020
 30
0.0
 10
-67.779448
 20
12.086620
 30
0.0
 10
-66.267397
 20
13.453980
 30
0.0
 10
-64.619435
 20
14.664760
 30
0.0
 10
-62.857270
 20
15.713790
 30
0.0
 10
-61.002086
 20
16.588670
 30
0.0
 10
-59.070421
 20
17.282170
 30
0.0
 10
-57.083977
 20
17.786020
 30
0.0
 10
-55.064463
 20
18.094530
 30
0.0
 10
-52.912141
 20
18.204080
 30
0.0
  0
SPLINE
  5
17b
100
AcDbEntity
  8
other
 62
7
100
AcDbSpline
 70
0
 71
3
 72
10
 73
6
 74
4
 40
0.000000
 40
0.000000
 40
0.000000
 40
0.000000
 40
0.737759
 40
1.466425
 40
2.204185
 40
2.204185
 40
2.204185
 40
2.204185
 10
-52.912141
 20
18.204080
 30
0.0
 10
-52.667404
 20
18.240275
 30
0.0
 10
-52.180946
 20
18.312218
 30
0.0
 10
-51.527110
 20
18.698984
 30
0.0
 10
-51.229792
 20
19.090672
 30
0.0
 10
-51.080211
 20
19.287730
 30
0.0
 11
-52.912141
 21
18.204080
 31
0.0
 11
-52.190956
 21
18.359583
 31
0.0
 11
-51.563800
 21
18.730567
 31
0.0
 11
-51.080211
 21
19.287730
 31
0.0
  0
LWPOLYLINE
  5
17c
100
AcDbEntity
  8
other
 62
7
100
AcDbPolyline
 90
14
 70
0
 10
-51.080211
 20
19.287730
 30
0.0
 10
-50.611504
 20
20.047380
 30
0.0
 10
-50.609404
 20
20.051380
 30
0.0
 10
-50.142767
 20
20.808950
 30
0.0
 10
-49.675610
 20
21.567050
 30
0.0
 10
-49.675610
 20
21.567580
 30
0.0
 10
-49.675610
 20
21.568100
 30
0.0
 10
-49.675610
 20
21.568630
 30
0.0
 10
-49.675610
 20
21.569160
 30
0.0
 10
-49.208973
 20
22.328810
 30
0.0
 10
-48.742335
 20
23.088450
 30
0.0
 10
-48.275181
 20
23.848090
 30
0.0
 10
-47.808541
 20
24.608250
 30
0.0
 10
-47.341903
 20
25.367900
 30
0.0
  0
LWPOLYLINE
  5
17d
100
AcDbEntity
  8
other
 62
7
100
AcDbPolyline
 90
24
 70
0
 10
-48.292750
 20
28.623510
 30
0.0
 10
-48.437445
 20
28.693810
 30
0.0
 10
-48.818300
 20
28.898970
 30
0.0
 10
-48.868940
 20
28.930470
 30
0.0
 10
-47.620954
 20
29.733010
 30
0.0
 10
-47.619354
 20
29.733010
 30
0.0
 10
-46.355350
 20
30.549490
 30
0.0
 10
-45.089792
 20
31.361850
 30
0.0
 10
-45.087692
 20
31.363850
 30
0.0
 10
-43.820067
 20
32.180340
 30
0.0
 10
-43.818467
 20
32.180340
 30
0.0
 10
-42.554462
 20
32.996830
 30
0.0
 10
-41.288907
 20
33.809180
 30
0.0
 10
-41.285307
 20
33.811180
 30
0.0
 10
-40.585608
 20
34.262320
 30
0.0
 10
-38.017287
 20
34.262320
 30
0.0
 10
-34.775109
 20
34.262320
 30
0.0
 10
-31.532929
 20
34.262320
 30
0.0
 10
-28.290749
 20
34.262320
 30
0.0
 10
-25.050638
 20
34.262320
 30
0.0
 10
-21.808457
 20
34.262320
 30
0.0
 10
-18.566280
 20
34.262320
 30
0.0
 10
-16.113198
 20
34.262320
 30
0.0
 10
-16.542765
 20
34.600840
 30
0.0
  0
LWPOLYLINE
  5
17e
100
AcDbEntity
  8
wall
 62
7
100
AcDbPolyline
 90
384
 70
1
 10
-20.798323
 20
-38.199920
 30
0.0
 10
-22.171704
 20
-37.917530
 30
0.0
 10
-23.500917
 20
-37.538380
 30
0.0
 10
-24.785940
 20
-37.062480
 30
0.0
 10
-26.026751
 20
-36.489840
 30
0.0
 10
-27.223327
 20
-35.820480
 30
0.0
 10
-28.375646
 20
-35.054410
 30
0.0
 10
-29.483686
 20
-34.191640
 30
0.0
 10
-30.547422
 20
-33.232180
 30
0.0
 10
-31.657318
 20
-32.058300
 30
0.0
 10
-32.648026
 20
-30.801550
 30
0.0
 10
-33.517198
 20
-29.466920
 30
0.0
 10
-34.262479
 20
-28.059380
 30
0.0
 10
-34.881519
 20
-26.583880
 30
0.0
 10
-35.371970
 20
-25.045400
 30
0.0
 10
-35.731477
 20
-23.448910
 30
0.0
 10
-35.957691
 20
-21.799380
 30
0.0
 10
-35.993521
 20
-21.415240
 30
0.0
 10
-36.026951
 20
-21.044500
 30
0.0
 10
-36.057251
 20
-20.696170
 30
0.0
 10
-36.083681
 20
-20.379240
 30
0.0
 10
-36.105511
 20
-20.102700
 30
0.0
 10
-36.122021
 20
-19.875570
 30
0.0
 10
-36.132471
 20
-19.706830
 30
0.0
 10
-36.136171
 20
-19.605490
 30
0.0
 10
-36.161231
 20
-19.397600
 30
0.0
 10
-36.237201
 20
-19.266210
 30
0.0
 10
-36.365569
 20
-19.211810
 30
0.0
 10
-36.547825
 20
-19.234710
 30
0.0
 10
-36.785455
 20
-19.335490
 30
0.0
 10
-37.079950
 20
-19.514530
 30
0.0
 10
-37.432793
 20
-19.772280
 30
0.0
 10
-37.845476
 20
-20.109170
 30
0.0
 10
-40.216521
 20
-21.892160
 30
0.0
 10
-42.734201
 20
-23.346310
 30
0.0
 10
-45.372258
 20
-24.465860
 30
0.0
 10
-48.104444
 20
-25.245060
 30
0.0
 10
-50.904503
 20
-25.678160
 30
0.0
 10
-53.746186
 20
-25.759360
 30
0.0
 10
-56.603241
 20
-25.483000
 30
0.0
 10
-59.449412
 20
-24.843280
 30
0.0
 10
-64.286768
 20
-22.826020
 30
0.0
 10
-68.400388
 20
-19.894480
 30
0.0
 10
-71.716400
 20
-16.215900
 30
0.0
 10
-74.160943
 20
-11.957520
 30
0.0
 10
-75.660149
 20
-7.286600
 30
0.0
 10
-76.140151
 20
-2.370370
 30
0.0
 10
-75.527082
 20
2.623910
 30
0.0
 10
-73.747077
 20
7.529010
 30
0.0
 10
-72.313948
 20
10.030710
 30
0.0
 10
-70.625623
 20
12.296810
 30
0.0
 10
-68.698822
 20
14.315270
 30
0.0
 10
-66.550259
 20
16.074040
 30
0.0
 10
-64.196651
 20
17.561060
 30
0.0
 10
-61.654709
 20
18.764300
 30
0.0
 10
-58.941155
 20
19.671680
 30
0.0
 10
-56.072701
 20
20.271170
 30
0.0
 10
-55.800633
 20
20.309370
 30
0.0
 10
-55.512237
 20
20.344970
 30
0.0
 10
-55.216301
 20
20.377270
 30
0.0
 10
-54.921605
 20
20.405370
 30
0.0
 10
-54.636937
 20
20.428670
 30
0.0
 10
-54.371081
 20
20.446270
 30
0.0
 10
-54.132819
 20
20.457370
 30
0.0
 10
-53.930939
 20
20.461370
 30
0.0
 10
-53.821386
 20
20.461370
 30
0.0
 10
-53.711832
 20
20.461370
 30
0.0
 10
-53.602282
 20
20.461370
 30
0.0
 10
-53.492728
 20
20.461370
 30
0.0
 10
-53.383175
 20
20.461370
 30
0.0
 10
-53.273624
 20
20.461370
 30
0.0
 10
-53.164071
 20
20.461370
 30
0.0
 10
-53.054517
 20
20.461370
 30
0.0
 10
-52.820946
 20
20.840760
 30
0.0
 10
-52.587377
 20
21.220150
 30
0.0
 10
-52.353805
 20
21.599540
 30
0.0
 10
-52.120234
 20
21.978930
 30
0.0
 10
-51.886662
 20
22.358310
 30
0.0
 10
-51.653094
 20
22.737700
 30
0.0
 10
-51.419522
 20
23.117090
 30
0.0
 10
-51.185950
 20
23.496480
 30
0.0
 10
-50.637879
 20
24.391330
 30
0.0
 10
-50.213358
 20
25.097970
 30
0.0
 10
-49.900824
 20
25.640010
 30
0.0
 10
-49.688710
 20
26.041050
 30
0.0
 10
-49.565454
 20
26.324710
 30
0.0
 10
-49.519494
 20
26.514600
 30
0.0
 10
-49.539254
 20
26.634340
 30
0.0
 10
-49.613174
 20
26.707540
 30
0.0
 10
-50.293958
 20
27.131730
 30
0.0
 10
-50.857676
 20
27.525690
 30
0.0
 10
-51.306807
 20
27.892320
 30
0.0
 10
-51.643817
 20
28.234540
 30
0.0
 10
-51.871181
 20
28.555240
 30
0.0
 10
-51.991374
 20
28.857330
 30
0.0
 10
-52.006854
 20
29.143710
 30
0.0
 10
-51.920114
 20
29.417290
 30
0.0
 10
-51.776120
 20
29.569400
 30
0.0
 10
-51.448032
 20
29.834670
 30
0.0
 10
-50.950419
 20
30.202970
 30
0.0
 10
-50.297845
 20
30.664170
 30
0.0
 10
-49.504879
 20
31.208150
 30
0.0
 10
-48.586081
 20
31.824770
 30
0.0
 10
-47.556021
 20
32.503900
 30
0.0
 10
-46.429264
 20
33.235420
 30
0.0
 10
-45.769459
 20
33.660720
 30
0.0
 10
-45.109655
 20
34.086030
 30
0.0
 10
-44.449850
 20
34.511340
 30
0.0
 10
-43.790045
 20
34.936640
 30
0.0
 10
-43.130241
 20
35.361950
 30
0.0
 10
-42.470436
 20
35.787260
 30
0.0
 10
-41.810631
 20
36.212560
 30
0.0
 10
-41.150827
 20
36.637870
 30
0.0
 10
-39.542829
 20
36.638660
 30
0.0
 10
-37.934830
 20
36.639460
 30
0.0
 10
-36.326832
 20
36.640250
 30
0.0
 10
-34.718832
 20
36.641040
 30
0.0
 10
-33.110835
 20
36.641840
 30
0.0
 10
-31.502835
 20
36.642630
 30
0.0
 10
-29.894838
 20
36.643430
 30
0.0
 10
-28.286838
 20
36.644220
 30
0.0
 10
-26.678841
 20
36.645010
 30
0.0
 10
-25.070841
 20
36.645810
 30
0.0
 10
-23.462844
 20
36.646600
 30
0.0
 10
-21.854844
 20
36.647390
 30
0.0
 10
-20.246847
 20
36.648190
 30
0.0
 10
-18.638849
 20
36.648980
 30
0.0
 10
-17.030849
 20
36.649780
 30
0.0
 10
-15.422852
 20
36.650570
 30
0.0
 10
-15.339822
 20
36.584570
 30
0.0
 10
-15.256802
 20
36.518570
 30
0.0
 10
-15.173772
 20
36.452570
 30
0.0
 10
-15.090742
 20
36.386570
 30
0.0
 10
-15.007712
 20
36.320570
 30
0.0
 10
-14.924692
 20
36.254570
 30
0.0
 10
-14.841662
 20
36.188570
 30
0.0
 10
-14.758632
 20
36.122570
 30
0.0
 10
-14.675602
 20
36.056570
 30
0.0
 10
-14.592582
 20
35.990570
 30
0.0
 10
-14.509552
 20
35.924570
 30
0.0
 10
-14.426522
 20
35.858570
 30
0.0
 10
-14.343492
 20
35.792570
 30
0.0
 10
-14.260472
 20
35.726570
 30
0.0
 10
-14.177442
 20
35.660570
 30
0.0
 10
-14.094412
 20
35.594570
 30
0.0
 10
-12.646196
 20
35.594570
 30
0.0
 10
-11.197981
 20
35.594570
 30
0.0
 10
-9.749766
 20
35.594570
 30
0.0
 10
-8.301556
 20
35.594570
 30
0.0
 10
-6.853336
 20
35.594570
 30
0.0
 10
-5.405126
 20
35.594570
 30
0.0
 10
-3.956906
 20
35.594570
 30
0.0
 10
-2.508696
 20
35.594570
 30
0.0
 10
-1.060476
 20
35.594570
 30
0.0
 10
0.387734
 20
35.594570
 30
0.0
 10
1.835954
 20
35.594570
 30
0.0
 10
3.284164
 20
35.594570
 30
0.0
 10
4.732384
 20
35.594570
 30
0.0
 10
6.180594
 20
35.594570
 30
0.0
 10
7.628814
 20
35.594570
 30
0.0
 10
9.077024
 20
35.594570
 30
0.0
 10
9.184264
 20
35.660570
 30
0.0
 10
9.291494
 20
35.726570
 30
0.0
 10
9.398724
 20
35.792570
 30
0.0
 10
9.505954
 20
35.858570
 30
0.0
 10
9.613194
 20
35.924570
 30
0.0
 10
9.720424
 20
35.990570
 30
0.0
 10
9.827654
 20
36.056570
 30
0.0
 10
9.934884
 20
36.122570
 30
0.0
 10
10.042124
 20
36.188570
 30
0.0
 10
10.149354
 20
36.254570
 30
0.0
 10
10.256584
 20
36.320570
 30
0.0
 10
10.363814
 20
36.386570
 30
0.0
 10
10.471044
 20
36.452570
 30
0.0
 10
10.578274
 20
36.518570
 30
0.0
 10
10.685504
 20
36.584570
 30
0.0
 10
10.792744
 20
36.650570
 30
0.0
 10
12.393494
 20
36.650570
 30
0.0
 10
13.994254
 20
36.650570
 30
0.0
 10
15.595014
 20
36.650570
 30
0.0
 10
17.195774
 20
36.650570
 30
0.0
 10
18.796534
 20
36.650570
 30
0.0
 10
20.397294
 20
36.650570
 30
0.0
 10
21.998054
 20
36.650570
 30
0.0
 10
23.598814
 20
36.650570
 30
0.0
 10
25.199574
 20
36.650570
 30
0.0
 10
26.800334
 20
36.650570
 30
0.0
 10
28.401094
 20
36.650570
 30
0.0
 10
30.001854
 20
36.650570
 30
0.0
 10
31.602614
 20
36.650570
 30
0.0
 10
33.203374
 20
36.650570
 30
0.0
 10
34.804134
 20
36.650570
 30
0.0
 10
36.404894
 20
36.650570
 30
0.0
 10
37.151824
 20
36.195400
 30
0.0
 10
37.898744
 20
35.740230
 30
0.0
 10
38.645674
 20
35.285060
 30
0.0
 10
39.392594
 20
34.829890
 30
0.0
 10
40.139524
 20
34.374710
 30
0.0
 10
40.886444
 20
33.919540
 30
0.0
 10
41.633374
 20
33.464370
 30
0.0
 10
42.380294
 20
33.009200
 30
0.0
 10
43.586054
 20
32.269450
 30
0.0
 10
44.721394
 20
31.563340
 30
0.0
 10
45.760734
 20
30.907450
 30
0.0
 10
46.678464
 20
30.318390
 30
0.0
 10
47.448994
 20
29.812760
 30
0.0
 10
48.046714
 20
29.407150
 30
0.0
 10
48.446034
 20
29.118160
 30
0.0
 10
48.621354
 20
28.962400
 30
0.0
 10
48.699654
 20
28.837390
 30
0.0
 10
48.754954
 20
28.731450
 30
0.0
 10
48.786854
 20
28.637450
 30
0.0
 10
48.794854
 20
28.548350
 30
0.0
 10
48.779254
 20
28.457050
 30
0.0
 10
48.739554
 20
28.356390
 30
0.0
 10
48.675354
 20
28.239290
 30
0.0
 10
48.586454
 20
28.098650
 30
0.0
 10
48.500954
 20
27.993580
 30
0.0
 10
48.375254
 20
27.874910
 30
0.0
 10
48.214764
 20
27.746280
 30
0.0
 10
48.024874
 20
27.611330
 30
0.0
 10
47.810994
 20
27.473730
 30
0.0
 10
47.578534
 20
27.337110
 30
0.0
 10
47.332884
 20
27.205120
 30
0.0
 10
47.079464
 20
27.081410
 30
0.0
 10
46.928624
 20
27.011510
 30
0.0
 10
46.777794
 20
26.941610
 30
0.0
 10
46.626954
 20
26.871710
 30
0.0
 10
46.476124
 20
26.801810
 30
0.0
 10
46.325284
 20
26.731910
 30
0.0
 10
46.174454
 20
26.662010
 30
0.0
 10
46.023614
 20
26.592110
 30
0.0
 10
45.872774
 20
26.522210
 30
0.0
 10
46.073584
 20
26.143510
 30
0.0
 10
46.274394
 20
25.764820
 30
0.0
 10
46.475204
 20
25.386120
 30
0.0
 10
46.676014
 20
25.007430
 30
0.0
 10
46.876824
 20
24.628730
 30
0.0
 10
47.077644
 20
24.250040
 30
0.0
 10
47.278444
 20
23.871340
 30
0.0
 10
47.479254
 20
23.492650
 30
0.0
 10
47.680074
 20
23.113950
 30
0.0
 10
47.880874
 20
22.735250
 30
0.0
 10
48.081684
 20
22.356560
 30
0.0
 10
48.282504
 20
21.977860
 30
0.0
 10
48.483304
 20
21.599170
 30
0.0
 10
48.684114
 20
21.220470
 30
0.0
 10
48.884924
 20
20.841770
 30
0.0
 10
49.085734
 20
20.463080
 30
0.0
 10
49.208224
 20
20.463010
 30
0.0
 10
49.330724
 20
20.462950
 30
0.0
 10
49.453214
 20
20.462880
 30
0.0
 10
49.575704
 20
20.462810
 30
0.0
 10
49.698204
 20
20.462750
 30
0.0
 10
49.820694
 20
20.462680
 30
0.0
 10
49.943184
 20
20.462620
 30
0.0
 10
50.065674
 20
20.462550
 30
0.0
 10
51.071834
 20
20.416250
 30
0.0
 10
52.168454
 20
20.282600
 30
0.0
 10
53.331994
 20
20.067890
 30
0.0
 10
54.538914
 20
19.778390
 30
0.0
 10
55.765694
 20
19.420350
 30
0.0
 10
56.988784
 20
19.000020
 30
0.0
 10
58.184664
 20
18.523670
 30
0.0
 10
59.329784
 20
17.997560
 30
0.0
 10
61.927614
 20
16.505820
 30
0.0
 10
64.269154
 20
14.731690
 30
0.0
 10
66.339474
 20
12.696930
 30
0.0
 10
68.123634
 20
10.423320
 30
0.0
 10
69.606704
 20
7.932650
 30
0.0
 10
70.773734
 20
5.246700
 30
0.0
 10
71.609804
 20
2.387240
 30
0.0
 10
72.099964
 20
-0.623950
 30
0.0
 10
72.198064
 20
-3.140300
 30
0.0
 10
71.994864
 20
-5.672570
 30
0.0
 10
71.503464
 20
-8.185540
 30
0.0
 10
70.736944
 20
-10.644010
 30
0.0
 10
69.708424
 20
-13.012740
 30
0.0
 10
68.430984
 20
-15.256530
 30
0.0
 10
66.917724
 20
-17.340160
 30
0.0
 10
65.181734
 20
-19.228410
 30
0.0
 10
62.684224
 20
-21.328790
 30
0.0
 10
59.972504
 20
-23.035790
 30
0.0
 10
57.087354
 20
-24.340290
 30
0.0
 10
54.069564
 20
-25.233230
 30
0.0
 10
50.959924
 20
-25.705500
 30
0.0
 10
47.799204
 20
-25.748000
 30
0.0
 10
44.628204
 20
-25.351690
 30
0.0
 10
41.487704
 20
-24.507460
 30
0.0
 10
40.503014
 20
-24.143320
 30
0.0
 10
39.540124
 20
-23.736080
 30
0.0
 10
38.597064
 20
-23.284620
 30
0.0
 10
37.671854
 20
-22.787820
 30
0.0
 10
36.762514
 20
-22.244560
 30
0.0
 10
35.867064
 20
-21.653710
 30
0.0
 10
34.983534
 20
-21.014170
 30
0.0
 10
34.109934
 20
-20.324800
 30
0.0
 10
33.529544
 20
-19.858430
 30
0.0
 10
33.082084
 20
-19.539380
 30
0.0
 10
32.747794
 20
-19.376090
 30
0.0
 10
32.506904
 20
-19.377090
 30
0.0
 10
32.339664
 20
-19.550690
 30
0.0
 10
32.226304
 20
-19.905410
 30
0.0
 10
32.147004
 20
-20.449710
 30
0.0
 10
32.082104
 20
-21.192030
 30
0.0
 10
31.731874
 20
-23.730230
 30
0.0
 10
31.084804
 20
-26.128710
 30
0.0
 10
30.151444
 20
-28.371910
 30
0.0
 10
28.942334
 20
-30.444260
 30
0.0
 10
27.468034
 20
-32.330200
 30
0.0
 10
25.739104
 20
-34.014160
 30
0.0
 10
23.766074
 20
-35.480570
 30
0.0
 10
21.559524
 20
-36.713880
 30
0.0
 10
21.226154
 20
-36.865940
 30
0.0
 10
20.845724
 20
-37.026200
 30
0.0
 10
20.431534
 20
-37.189860
 30
0.0
 10
19.996864
 20
-37.352080
 30
0.0
 10
19.555014
 20
-37.508040
 30
0.0
 10
19.119274
 20
-37.652910
 30
0.0
 10
18.702924
 20
-37.781870
 30
0.0
 10
18.319254
 20
-37.890100
 30
0.0
 10
17.784944
 20
-38.026720
 30
0.0
 10
17.309074
 20
-38.134300
 30
0.0
 10
16.860214
 20
-38.216200
 30
0.0
 10
16.406914
 20
-38.275700
 30
0.0
 10
15.917734
 20
-38.316200
 30
0.0
 10
15.361244
 20
-38.341000
 30
0.0
 10
14.706004
 20
-38.353400
 30
0.0
 10
13.920554
 20
-38.356400
 30
0.0
 10
13.141104
 20
-38.353400
 30
0.0
 10
12.489064
 20
-38.341000
 30
0.0
 10
11.934694
 20
-38.316600
 30
0.0
 10
11.448224
 20
-38.277100
 30
0.0
 10
10.999894
 20
-38.219300
 30
0.0
 10
10.559964
 20
-38.140200
 30
0.0
 10
10.098654
 20
-38.036670
 30
0.0
 10
9.586214
 20
-37.905610
 30
0.0
 10
8.303074
 20
-37.523190
 30
0.0
 10
7.082794
 20
-37.074760
 30
0.0
 10
5.920574
 20
-36.557560
 30
0.0
 10
4.811624
 20
-35.968820
 30
0.0
 10
3.751134
 20
-35.305760
 30
0.0
 10
2.734304
 20
-34.565610
 30
0.0
 10
1.756334
 20
-33.745620
 30
0.0
 10
0.812444
 20
-32.843000
 30
0.0
 10
0.231004
 20
-32.257740
 30
0.0
 10
-0.240576
 20
-31.803380
 30
0.0
 10
-0.627566
 20
-31.463640
 30
0.0
 10
-0.955216
 20
-31.222210
 30
0.0
 10
-1.248796
 20
-31.062800
 30
0.0
 10
-1.533556
 20
-30.969100
 30
0.0
 10
-1.834746
 20
-30.924800
 30
0.0
 10
-2.177636
 20
-30.913700
 30
0.0
 10
-2.411096
 20
-30.920700
 30
0.0
 10
-2.613596
 20
-30.950400
 30
0.0
 10
-2.805956
 20
-31.017600
 30
0.0
 10
-3.009006
 20
-31.136890
 30
0.0
 10
-3.243576
 20
-31.322750
 30
0.0
 10
-3.530476
 20
-31.589710
 30
0.0
 10
-3.890526
 20
-31.952290
 30
0.0
 10
-4.344566
 20
-32.425010
 30
0.0
 10
-4.657386
 20
-32.745850
 30
0.0
 10
-4.994336
 20
-33.078620
 30
0.0
 10
-5.344826
 20
-33.413660
 30
0.0
 10
-5.698246
 20
-33.741280
 30
0.0
 10
-6.044006
 20
-34.051800
 30
0.0
 10
-6.371496
 20
-34.335570
 30
0.0
 10
-6.670116
 20
-34.582890
 30
0.0
 10
-6.929266
 20
-34.784090
 30
0.0
 10
-8.486326
 20
-35.823750
 30
0.0
 10
-10.120194
 20
-36.694790
 30
0.0
 10
-11.817708
 20
-37.393970
 30
0.0
 10
-13.565680
 20
-37.918030
 30
0.0
 10
-15.350935
 20
-38.263740
 30
0.0
 10
-17.160296
 20
-38.427840
 30
0.0
 10
-18.980585
 20
-38.407140
 30
0.0
 10
-20.798621
 20
-38.198310
 30
0.0
 10
-20.798621
 20
-38.198320
 30
0.0
 10
-20.798621
 20
-38.198320
 30
0.0
 10
-20.798621
 20
-38.198330
 30
0.0
 10
-20.798621
 20
-38.198330
 30
0.0
 10
-20.798621
 20
-38.198330
 30
0.0
 10
-20.798621
 20
-38.198340
 30
0.0
 10
-20.798621
 20
-38.198340
 30
0.0
  0
LWPOLYLINE
  5
17f
100
AcDbEntity
  8
wall
 62
7
100
AcDbPolyline
 90
360
 70
1
 10
-13.562797
 20
-35.591630
 30
0.0
 10
-12.943331
 20
-35.396960
 30
0.0
 10
-12.337882
 20
-35.182180
 30
0.0
 10
-11.744038
 20
-34.946170
 30
0.0
 10
-11.159383
 20
-34.687790
 30
0.0
 10
-10.581506
 20
-34.405940
 30
0.0
 10
-10.007990
 20
-34.099490
 30
0.0
 10
-9.436424
 20
-33.767320
 30
0.0
 10
-8.864390
 20
-33.408310
 30
0.0
 10
-8.416336
 20
-33.066650
 30
0.0
 10
-7.783846
 20
-32.517250
 30
0.0
 10
-7.024846
 20
-31.816730
 30
0.0
 10
-6.197266
 20
-31.021710
 30
0.0
 10
-5.359026
 20
-30.188780
 30
0.0
 10
-4.568066
 20
-29.374570
 30
0.0
 10
-3.882316
 20
-28.635680
 30
0.0
 10
-3.359686
 20
-28.028720
 30
0.0
 10
-3.250946
 20
-27.904560
 30
0.0
 10
-3.129646
 20
-27.784370
 30
0.0
 10
-2.999856
 20
-27.671090
 30
0.0
 10
-2.865646
 20
-27.567670
 30
0.0
 10
-2.731106
 20
-27.477070
 30
0.0
 10
-2.600306
 20
-27.402170
 30
0.0
 10
-2.477316
 20
-27.345970
 30
0.0
 10
-2.366216
 20
-27.311370
 30
0.0
 10
-2.080786
 20
-27.278470
 30
0.0
 10
-1.786866
 20
-27.299970
 30
0.0
 10
-1.491406
 20
-27.372470
 30
0.0
 10
-1.201386
 20
-27.492390
 30
0.0
 10
-0.923786
 20
-27.656280
 30
0.0
 10
-0.665586
 20
-27.860630
 30
0.0
 10
-0.433756
 20
-28.101960
 30
0.0
 10
-0.235276
 20
-28.376790
 30
0.0
 10
0.034774
 20
-28.750820
 30
0.0
 10
0.446674
 20
-29.241920
 30
0.0
 10
0.966764
 20
-29.815660
 30
0.0
 10
1.561394
 20
-30.437630
 30
0.0
 10
2.196874
 20
-31.073410
 30
0.0
 10
2.839564
 20
-31.688570
 30
0.0
 10
3.455794
 20
-32.248700
 30
0.0
 10
4.011904
 20
-32.719390
 30
0.0
 10
5.165894
 20
-33.563800
 30
0.0
 10
6.385364
 20
-34.294210
 30
0.0
 10
7.662214
 20
-34.908010
 30
0.0
 10
8.988374
 20
-35.402600
 30
0.0
 10
10.355784
 20
-35.775370
 30
0.0
 10
11.756344
 20
-36.023730
 30
0.0
 10
13.181994
 20
-36.145080
 30
0.0
 10
14.624654
 20
-36.137080
 30
0.0
 10
17.624034
 20
-35.708380
 30
0.0
 10
20.405824
 20
-34.770190
 30
0.0
 10
22.921094
 20
-33.370890
 30
0.0
 10
25.120884
 20
-31.558840
 30
0.0
 10
26.956264
 20
-29.382440
 30
0.0
 10
28.378284
 20
-26.890040
 30
0.0
 10
29.338004
 20
-24.130030
 30
0.0
 10
29.786484
 20
-21.150780
 30
0.0
 10
29.878484
 20
-19.984790
 30
0.0
 10
30.012694
 20
-19.010950
 30
0.0
 10
30.194424
 20
-18.218240
 30
0.0
 10
30.429034
 20
-17.595620
 30
0.0
 10
30.721894
 20
-17.132060
 30
0.0
 10
31.078354
 20
-16.816540
 30
0.0
 10
31.503764
 20
-16.638040
 30
0.0
 10
32.003484
 20
-16.585540
 30
0.0
 10
32.308574
 20
-16.604540
 30
0.0
 10
32.605174
 20
-16.663240
 30
0.0
 10
32.918424
 20
-16.775960
 30
0.0
 10
33.273444
 20
-16.957110
 30
0.0
 10
33.695334
 20
-17.221090
 30
0.0
 10
34.209224
 20
-17.582280
 30
0.0
 10
34.840224
 20
-18.055080
 30
0.0
 10
35.613464
 20
-18.653880
 30
0.0
 10
37.205294
 20
-19.813500
 30
0.0
 10
38.809274
 20
-20.811480
 30
0.0
 10
40.431384
 20
-21.649970
 30
0.0
 10
42.077574
 20
-22.331150
 30
0.0
 10
43.753804
 20
-22.857180
 30
0.0
 10
45.466054
 20
-23.230240
 30
0.0
 10
47.220284
 20
-23.452490
 30
0.0
 10
49.022434
 20
-23.526090
 30
0.0
 10
52.358214
 20
-23.262860
 30
0.0
 10
55.542664
 20
-22.495410
 30
0.0
 10
58.529654
 20
-21.257090
 30
0.0
 10
61.273024
 20
-19.581240
 30
0.0
 10
63.726644
 20
-17.501210
 30
0.0
 10
65.844374
 20
-15.050350
 30
0.0
 10
67.580054
 20
-12.262000
 30
0.0
 10
68.887544
 20
-9.169520
 30
0.0
 10
69.828474
 20
-4.867320
 30
0.0
 10
69.842174
 20
-0.598830
 30
0.0
 10
68.994824
 20
3.515740
 30
0.0
 10
67.352634
 20
7.356200
 30
0.0
 10
64.981804
 20
10.802340
 30
0.0
 10
61.948544
 20
13.733960
 30
0.0
 10
58.319034
 20
16.030870
 30
0.0
 10
54.159494
 20
17.572840
 30
0.0
 10
53.801224
 20
17.658840
 30
0.0
 10
53.410104
 20
17.743040
 30
0.0
 10
52.998734
 20
17.823340
 30
0.0
 10
52.579764
 20
17.897540
 30
0.0
 10
52.165824
 20
17.963540
 30
0.0
 10
51.769524
 20
18.019240
 30
0.0
 10
51.403514
 20
18.062540
 30
0.0
 10
51.080404
 20
18.091240
 30
0.0
 10
50.768734
 20
18.115140
 30
0.0
 10
50.435504
 20
18.144640
 30
0.0
 10
50.091034
 20
18.178540
 30
0.0
 10
49.745664
 20
18.215740
 30
0.0
 10
49.409724
 20
18.255040
 30
0.0
 10
49.093534
 20
18.295340
 30
0.0
 10
48.807434
 20
18.335440
 30
0.0
 10
48.561754
 20
18.374140
 30
0.0
 10
47.929924
 20
18.443240
 30
0.0
 10
47.221894
 20
18.450240
 30
0.0
 10
46.443844
 20
18.396840
 30
0.0
 10
45.601994
 20
18.283680
 30
0.0
 10
44.702544
 20
18.111780
 30
0.0
 10
43.751694
 20
17.882180
 30
0.0
 10
42.755654
 20
17.595880
 30
0.0
 10
41.720614
 20
17.253910
 30
0.0
 10
39.567444
 20
16.343640
 30
0.0
 10
37.522474
 20
15.173560
 30
0.0
 10
35.610114
 20
13.768750
 30
0.0
 10
33.854824
 20
12.154250
 30
0.0
 10
32.281034
 20
10.355130
 30
0.0
 10
30.913184
 20
8.396450
 30
0.0
 10
29.775714
 20
6.303260
 30
0.0
 10
28.893074
 20
4.100640
 30
0.0
 10
28.520454
 20
2.876180
 30
0.0
 10
28.226724
 20
1.672300
 30
0.0
 10
28.009964
 20
0.466340
 30
0.0
 10
27.868274
 20
-0.764360
 30
0.0
 10
27.799774
 20
-2.042480
 30
0.0
 10
27.802774
 20
-3.390680
 30
0.0
 10
27.874874
 20
-4.831620
 30
0.0
 10
28.014504
 20
-6.387980
 30
0.0
 10
28.048504
 20
-6.729310
 30
0.0
 10
28.066204
 20
-6.999360
 30
0.0
 10
28.063204
 20
-7.214850
 30
0.0
 10
28.035604
 20
-7.392520
 30
0.0
 10
27.979004
 20
-7.549090
 30
0.0
 10
27.889204
 20
-7.701300
 30
0.0
 10
27.762044
 20
-7.865850
 30
0.0
 10
27.593264
 20
-8.059490
 30
0.0
 10
27.433634
 20
-8.231150
 30
0.0
 10
27.289844
 20
-8.367450
 30
0.0
 10
27.153604
 20
-8.472200
 30
0.0
 10
27.016634
 20
-8.549200
 30
0.0
 10
26.870654
 20
-8.602300
 30
0.0
 10
26.707354
 20
-8.635300
 30
0.0
 10
26.518464
 20
-8.651900
 30
0.0
 10
26.295684
 20
-8.655900
 30
0.0
 10
26.060574
 20
-8.647900
 30
0.0
 10
25.847794
 20
-8.618500
 30
0.0
 10
25.641014
 20
-8.559700
 30
0.0
 10
25.423914
 20
-8.463000
 30
0.0
 10
25.180184
 20
-8.319940
 30
0.0
 10
24.893484
 20
-8.121990
 30
0.0
 10
24.547494
 20
-7.860680
 30
0.0
 10
24.125894
 20
-7.527500
 30
0.0
 10
23.000374
 20
-6.701360
 30
0.0
 10
21.821654
 20
-5.979990
 30
0.0
 10
20.594884
 20
-5.365210
 30
0.0
 10
19.325234
 20
-4.858810
 30
0.0
 10
18.017854
 20
-4.462600
 30
0.0
 10
16.677904
 20
-4.178400
 30
0.0
 10
15.310534
 20
-4.007990
 30
0.0
 10
13.920914
 20
-3.953190
 30
0.0
 10
12.751144
 20
-3.989690
 30
0.0
 10
11.630024
 20
-4.094800
 30
0.0
 10
10.547674
 20
-4.271260
 30
0.0
 10
9.494204
 20
-4.521810
 30
0.0
 10
8.459744
 20
-4.849180
 30
0.0
 10
7.434404
 20
-5.256110
 30
0.0
 10
6.408294
 20
-5.745330
 30
0.0
 10
5.371554
 20
-6.319580
 30
0.0
 10
4.737074
 20
-6.736920
 30
0.0
 10
4.047794
 20
-7.264890
 30
0.0
 10
3.329654
 20
-7.878230
 30
0.0
 10
2.608604
 20
-8.551690
 30
0.0
 10
1.910594
 20
-9.259980
 30
0.0
 10
1.261574
 20
-9.977850
 30
0.0
 10
0.687474
 20
-10.680040
 30
0.0
 10
0.214264
 20
-11.341270
 30
0.0
 10
-0.123006
 20
-11.841810
 30
0.0
 10
-0.418786
 20
-12.244770
 30
0.0
 10
-0.684556
 20
-12.559660
 30
0.0
 10
-0.931796
 20
-12.795980
 30
0.0
 10
-1.171996
 20
-12.963240
 30
0.0
 10
-1.416626
 20
-13.070940
 30
0.0
 10
-1.677176
 20
-13.128540
 30
0.0
 10
-1.965106
 20
-13.145640
 30
0.0
 10
-2.274026
 20
-13.132440
 30
0.0
 10
-2.542196
 20
-13.084140
 30
0.0
 10
-2.785526
 20
-12.987740
 30
0.0
 10
-3.019956
 20
-12.830190
 30
0.0
 10
-3.261406
 20
-12.598460
 30
0.0
 10
-3.525806
 20
-12.279540
 30
0.0
 10
-3.829066
 20
-11.860390
 30
0.0
 10
-4.187126
 20
-11.327990
 30
0.0
 10
-4.631466
 20
-10.702240
 30
0.0
 10
-5.154046
 20
-10.049650
 30
0.0
 10
-5.737336
 20
-9.387750
 30
0.0
 10
-6.363826
 20
-8.734120
 30
0.0
 10
-7.015996
 20
-8.106300
 30
0.0
 10
-7.676326
 20
-7.521850
 30
0.0
 10
-8.327316
 20
-6.998320
 30
0.0
 10
-8.951431
 20
-6.553260
 30
0.0
 10
-11.131304
 20
-5.355030
 30
0.0
 10
-13.457619
 20
-4.521850
 30
0.0
 10
-15.876916
 20
-4.052120
 30
0.0
 10
-18.335744
 20
-3.944290
 30
0.0
 10
-20.780642
 20
-4.196760
 30
0.0
 10
-23.158154
 20
-4.807980
 30
0.0
 10
-25.414822
 20
-5.776350
 30
0.0
 10
-27.497193
 20
-7.100300
 30
0.0
 10
-28.200331
 20
-7.632520
 30
0.0
 10
-28.742846
 20
-8.035660
 30
0.0
 10
-29.156125
 20
-8.327640
 30
0.0
 10
-29.471554
 20
-8.526360
 30
0.0
 10
-29.720524
 20
-8.649740
 30
0.0
 10
-29.934418
 20
-8.715640
 30
0.0
 10
-30.144625
 20
-8.742040
 30
0.0
 10
-30.382530
 20
-8.747040
 30
0.0
 10
-30.753166
 20
-8.705740
 30
0.0
 10
-31.096849
 20
-8.587980
 30
0.0
 10
-31.405176
 20
-8.403210
 30
0.0
 10
-31.669731
 20
-8.160820
 30
0.0
 10
-31.882109
 20
-7.870210
 30
0.0
 10
-32.033900
 20
-7.540780
 30
0.0
 10
-32.116690
 20
-7.181920
 30
0.0
 10
-32.122090
 20
-6.803040
 30
0.0
 10
-32.115990
 20
-6.745140
 30
0.0
 10
-32.101890
 20
-6.616690
 30
0.0
 10
-32.080720
 20
-6.425810
 30
0.0
 10
-32.053400
 20
-6.180660
 30
0.0
 10
-32.020840
 20
-5.889360
 30
0.0
 10
-31.983950
 20
-5.560050
 30
0.0
 10
-31.943640
 20
-5.200850
 30
0.0
 10
-31.900810
 20
-4.819910
 30
0.0
 10
-31.785801
 20
-2.556930
 30
0.0
 10
-31.937291
 20
-0.270820
 30
0.0
 10
-32.343776
 20
2.005600
 30
0.0
 10
-32.993633
 20
4.238710
 30
0.0
 10
-33.875359
 20
6.395690
 30
0.0
 10
-34.977418
 20
8.443470
 30
0.0
 10
-36.288261
 20
10.348960
 30
0.0
 10
-37.796352
 20
12.079080
 30
0.0
 10
-38.921860
 20
13.155320
 30
0.0
 10
-40.082630
 20
14.127200
 30
0.0
 10
-41.284007
 20
14.997780
 30
0.0
 10
-42.531343
 20
15.770100
 30
0.0
 10
-43.829987
 20
16.447200
 30
0.0
 10
-45.185294
 20
17.032140
 30
0.0
 10
-46.602609
 20
17.527960
 30
0.0
 10
-48.087284
 20
17.937700
 30
0.0
 10
-48.825230
 20
18.104090
 30
0.0
 10
-49.512636
 20
18.230300
 30
0.0
 10
-50.177987
 20
18.317600
 30
0.0
 10
-50.849772
 20
18.367400
 30
0.0
 10
-51.556479
 20
18.380900
 30
0.0
 10
-52.326594
 20
18.359500
 30
0.0
 10
-53.188609
 20
18.304400
 30
0.0
 10
-54.171009
 20
18.217000
 30
0.0
 10
-56.210346
 20
17.945350
 30
0.0
 10
-58.136225
 20
17.539680
 30
0.0
 10
-59.956092
 20
16.996640
 30
0.0
 10
-61.677403
 20
16.312850
 30
0.0
 10
-63.307606
 20
15.484960
 30
0.0
 10
-64.854154
 20
14.509600
 30
0.0
 10
-66.324497
 20
13.383420
 30
0.0
 10
-67.726084
 20
12.103060
 30
0.0
 10
-68.905684
 20
10.834590
 30
0.0
 10
-69.966817
 20
9.488370
 30
0.0
 10
-70.907069
 20
8.069260
 30
0.0
 10
-71.724026
 20
6.582130
 30
0.0
 10
-72.415274
 20
5.031840
 30
0.0
 10
-72.978399
 20
3.423250
 30
0.0
 10
-73.410983
 20
1.761230
 30
0.0
 10
-73.710615
 20
0.050630
 30
0.0
 10
-73.812263
 20
-0.752250
 30
0.0
 10
-73.884893
 20
-1.451020
 30
0.0
 10
-73.928513
 20
-2.080430
 30
0.0
 10
-73.943123
 20
-2.675260
 30
0.0
 10
-73.928733
 20
-3.270250
 30
0.0
 10
-73.885363
 20
-3.900160
 30
0.0
 10
-73.813003
 20
-4.599740
 30
0.0
 10
-73.711663
 20
-5.403750
 30
0.0
 10
-72.854246
 20
-9.153530
 30
0.0
 10
-71.363956
 20
-12.601070
 30
0.0
 10
-69.310356
 20
-15.685420
 30
0.0
 10
-66.763000
 20
-18.345650
 30
0.0
 10
-63.791452
 20
-20.520800
 30
0.0
 10
-60.465269
 20
-22.149930
 30
0.0
 10
-56.854016
 20
-23.172110
 30
0.0
 10
-53.027247
 20
-23.526380
 30
0.0
 10
-51.142784
 20
-23.444080
 30
0.0
 10
-49.298929
 20
-23.197210
 30
0.0
 10
-47.495778
 20
-22.785790
 30
0.0
 10
-45.733428
 20
-22.209880
 30
0.0
 10
-44.011975
 20
-21.469500
 30
0.0
 10
-42.331516
 20
-20.564700
 30
0.0
 10
-40.692144
 20
-19.495500
 30
0.0
 10
-39.093961
 20
-18.261940
 30
0.0
 10
-38.341925
 20
-17.654650
 30
0.0
 10
-37.690775
 20
-17.176030
 30
0.0
 10
-37.124569
 20
-16.819810
 30
0.0
 10
-36.627361
 20
-16.579730
 30
0.0
 10
-36.183211
 20
-16.449510
 30
0.0
 10
-35.776176
 20
-16.422910
 30
0.0
 10
-35.390310
 20
-16.493610
 30
0.0
 10
-35.009672
 20
-16.655330
 30
0.0
 10
-34.763525
 20
-16.821880
 30
0.0
 10
-34.553483
 20
-17.045160
 30
0.0
 10
-34.375710
 20
-17.336850
 30
0.0
 10
-34.226368
 20
-17.708650
 30
0.0
 10
-34.101625
 20
-18.172240
 30
0.0
 10
-33.997649
 20
-18.739310
 30
0.0
 10
-33.910599
 20
-19.421550
 30
0.0
 10
-33.836649
 20
-20.230640
 30
0.0
 10
-33.763039
 20
-21.096100
 30
0.0
 10
-33.684539
 20
-21.860720
 30
0.0
 10
-33.597849
 20
-22.543120
 30
0.0
 10
-33.499679
 20
-23.161930
 30
0.0
 10
-33.386718
 20
-23.735790
 30
0.0
 10
-33.255675
 20
-24.283310
 30
0.0
 10
-33.103252
 20
-24.823140
 30
0.0
 10
-32.926150
 20
-25.373890
 30
0.0
 10
-32.207095
 20
-27.137550
 30
0.0
 10
-31.290202
 20
-28.787160
 30
0.0
 10
-30.190300
 20
-30.308380
 30
0.0
 10
-28.922216
 20
-31.686890
 30
0.0
 10
-27.500779
 20
-32.908350
 30
0.0
 10
-25.940812
 20
-33.958430
 30
0.0
 10
-24.257146
 20
-34.822780
 30
0.0
 10
-22.464607
 20
-35.487080
 30
0.0
 10
-21.779641
 20
-35.687030
 30
0.0
 10
-21.168128
 20
-35.844690
 30
0.0
 10
-20.599147
 20
-35.963810
 30
0.0
 10
-20.041773
 20
-36.048110
 30
0.0
 10
-19.465079
 20
-36.101410
 30
0.0
 10
-18.838141
 20
-36.127410
 30
0.0
 10
-18.130034
 20
-36.130410
 30
0.0
 10
-17.309831
 20
-36.113210
 30
0.0
 10
-16.705853
 20
-36.091010
 30
0.0
 10
-16.170453
 20
-36.060710
 30
0.0
 10
-15.688713
 20
-36.020310
 30
0.0
 10
-15.245710
 20
-35.967610
 30
0.0
 10
-14.826534
 20
-35.900510
 30
0.0
 10
-14.416258
 20
-35.817010
 30
0.0
 10
-13.999965
 20
-35.715050
 30
0.0
 10
-13.562741
 20
-35.592530
 30
0.0
 10
-13.562751
 20
-35.592530
 30
0.0
 10
-13.562762
 20
-35.592530
 30
0.0
 10
-13.562775
 20
-35.592530
 30
0.0
 10
-13.562786
 20
-35.592530
 30
0.0
 10
-13.562796
 20
-35.592530
 30
0.0
 10
-13.562807
 20
-35.592530
 30
0.0
 10
-13.562820
 20
-35.592530
 30
0.0
  0
SPLINE
  5
180
100
AcDbEntity
  8
other
 62
7
100
AcDbSpline
 70
0
 71
3
 72
13
 73
9
 74
7
 40
0.000000
 40
0.000000
 40
0.000000
 40
0.000000
 40
0.636570
 40
1.267218
 40
1.903788
 40
2.540358
 40
3.171007
 40
3.807577
 40
3.807577
 40
3.807577
 40
3.807577
 10
-47.341903
 20
25.367900
 30
0.0
 10
-47.245255
 20
25.558370
 30
0.0
 10
-47.052858
 20
25.937537
 30
0.0
 10
-46.976206
 20
26.579651
 30
0.0
 10
-47.066238
 20
27.215071
 30
0.0
 10
-47.332352
 20
27.799064
 30
0.0
 10
-47.742553
 20
28.298986
 30
0.0
 10
-48.108780
 20
28.514999
 30
0.0
 10
-48.292750
 20
28.623510
 30
0.0
 11
-47.341903
 21
25.367900
 31
0.0
 11
-47.087634
 21
25.951482
 31
0.0
 11
-47.003923
 21
26.576550
 31
0.0
 11
-47.095676
 21
27.206473
 31
0.0
 11
-47.357382
 21
27.786759
 31
0.0
 11
-47.764356
 21
28.268515
 31
0.0
 11
-48.292750
 21
28.623510
 31
0.0
  0
LWPOLYLINE
  5
181
100
AcDbEntity
  8
wall
 62
7
100
AcDbPolyline
 90
328
 70
1
 10
1.270084
 20
-7.250670
 30
0.0
 10
2.100124
 20
-5.723890
 30
0.0
 10
4.149784
 20
-4.453780
 30
0.0
 10
6.758394
 20
-3.448560
 30
0.0
 10
9.265284
 20
-2.716450
 30
0.0
 10
11.534494
 20
-2.265660
 30
0.0
 10
13.849914
 20
-2.104410
 30
0.0
 10
16.180544
 20
-2.240920
 30
0.0
 10
18.495404
 20
-2.683390
 30
0.0
 10
19.387174
 20
-2.943870
 30
0.0
 10
20.284854
 20
-3.260580
 30
0.0
 10
21.177954
 20
-3.628260
 30
0.0
 10
22.055914
 20
-4.041640
 30
0.0
 10
22.908234
 20
-4.495440
 30
0.0
 10
23.724374
 20
-4.984390
 30
0.0
 10
24.493824
 20
-5.503200
 30
0.0
 10
25.206044
 20
-6.046610
 30
0.0
 10
25.402614
 20
-6.204670
 30
0.0
 10
25.588054
 20
-6.349830
 30
0.0
 10
25.758144
 20
-6.479070
 30
0.0
 10
25.908684
 20
-6.589380
 30
0.0
 10
26.035484
 20
-6.677780
 30
0.0
 10
26.134284
 20
-6.741180
 30
0.0
 10
26.200984
 20
-6.776580
 30
0.0
 10
26.231284
 20
-6.781580
 30
0.0
 10
26.238284
 20
-6.744780
 30
0.0
 10
26.238024
 20
-6.661780
 30
0.0
 10
26.231024
 20
-6.537980
 30
0.0
 10
26.217624
 20
-6.378640
 30
0.0
 10
26.198524
 20
-6.189050
 30
0.0
 10
26.174124
 20
-5.974500
 30
0.0
 10
26.144924
 20
-5.740280
 30
0.0
 10
26.111424
 20
-5.491680
 30
0.0
 10
26.043624
 20
-4.766310
 30
0.0
 10
26.010724
 20
-3.861540
 30
0.0
 10
26.010194
 20
-2.837170
 30
0.0
 10
26.039794
 20
-1.752990
 30
0.0
 10
26.097094
 20
-0.668780
 30
0.0
 10
26.179694
 20
0.355660
 30
0.0
 10
26.285154
 20
1.260550
 30
0.0
 10
26.411094
 20
1.986100
 30
0.0
 10
27.109664
 20
4.510730
 30
0.0
 10
28.062384
 20
6.910340
 30
0.0
 10
29.257234
 20
9.169140
 30
0.0
 10
30.682234
 20
11.271380
 30
0.0
 10
32.325374
 20
13.201270
 30
0.0
 10
34.174664
 20
14.943060
 30
0.0
 10
36.218084
 20
16.480960
 30
0.0
 10
38.443654
 20
17.799210
 30
0.0
 10
39.320104
 20
18.220570
 30
0.0
 10
40.299834
 20
18.632650
 30
0.0
 10
41.337424
 20
19.021180
 30
0.0
 10
42.387474
 20
19.371900
 30
0.0
 10
43.404574
 20
19.670550
 30
0.0
 10
44.343334
 20
19.902860
 30
0.0
 10
45.158324
 20
20.054580
 30
0.0
 10
45.804164
 20
20.111380
 30
0.0
 10
46.083004
 20
20.128880
 30
0.0
 10
46.271784
 20
20.192480
 30
0.0
 10
46.365384
 20
20.327240
 30
0.0
 10
46.358384
 20
20.558110
 30
0.0
 10
46.246494
 20
20.910050
 30
0.0
 10
46.024244
 20
21.408060
 30
0.0
 10
45.686534
 20
22.077100
 30
0.0
 10
45.228294
 20
22.942160
 30
0.0
 10
44.952764
 20
23.461540
 30
0.0
 10
44.689824
 20
23.966520
 30
0.0
 10
44.445644
 20
24.444580
 30
0.0
 10
44.226394
 20
24.883220
 30
0.0
 10
44.038254
 20
25.269910
 30
0.0
 10
43.887414
 20
25.592150
 30
0.0
 10
43.780034
 20
25.837410
 30
0.0
 10
43.722334
 20
25.993190
 30
0.0
 10
43.664434
 20
26.291700
 30
0.0
 10
43.656434
 20
26.602670
 30
0.0
 10
43.694734
 20
26.917910
 30
0.0
 10
43.777034
 20
27.229230
 30
0.0
 10
43.900554
 20
27.528440
 30
0.0
 10
44.062544
 20
27.807350
 30
0.0
 10
44.260224
 20
28.057760
 30
0.0
 10
44.490844
 20
28.271490
 30
0.0
 10
44.602094
 20
28.361290
 30
0.0
 10
44.702624
 20
28.447890
 30
0.0
 10
44.790424
 20
28.529190
 30
0.0
 10
44.863624
 20
28.603090
 30
0.0
 10
44.920224
 20
28.667490
 30
0.0
 10
44.958224
 20
28.720290
 30
0.0
 10
44.975624
 20
28.759390
 30
0.0
 10
44.970624
 20
28.782690
 30
0.0
 10
44.861734
 20
28.853190
 30
0.0
 10
44.581744
 20
29.027580
 30
0.0
 10
44.149524
 20
29.294300
 30
0.0
 10
43.583974
 20
29.641740
 30
0.0
 10
42.903974
 20
30.058340
 30
0.0
 10
42.128404
 20
30.532490
 30
0.0
 10
41.276164
 20
31.052630
 30
0.0
 10
40.366124
 20
31.607160
 30
0.0
 10
39.800884
 20
31.951310
 30
0.0
 10
39.235654
 20
32.295470
 30
0.0
 10
38.670414
 20
32.639630
 30
0.0
 10
38.105174
 20
32.983790
 30
0.0
 10
37.539944
 20
33.327950
 30
0.0
 10
36.974704
 20
33.672110
 30
0.0
 10
36.409464
 20
34.016270
 30
0.0
 10
35.844224
 20
34.360430
 30
0.0
 10
34.308694
 20
34.360430
 30
0.0
 10
32.773164
 20
34.360430
 30
0.0
 10
31.237624
 20
34.360430
 30
0.0
 10
29.702094
 20
34.360430
 30
0.0
 10
28.166564
 20
34.360430
 30
0.0
 10
26.631024
 20
34.360430
 30
0.0
 10
25.095494
 20
34.360430
 30
0.0
 10
23.559954
 20
34.360430
 30
0.0
 10
22.024424
 20
34.360430
 30
0.0
 10
20.488894
 20
34.360430
 30
0.0
 10
18.953354
 20
34.360430
 30
0.0
 10
17.417824
 20
34.360430
 30
0.0
 10
15.882284
 20
34.360430
 30
0.0
 10
14.346754
 20
34.360430
 30
0.0
 10
12.811224
 20
34.360430
 30
0.0
 10
11.275684
 20
34.360430
 30
0.0
 10
11.188084
 20
34.299930
 30
0.0
 10
11.100484
 20
34.239430
 30
0.0
 10
11.012884
 20
34.178930
 30
0.0
 10
10.925284
 20
34.118430
 30
0.0
 10
10.837684
 20
34.057930
 30
0.0
 10
10.750084
 20
33.997430
 30
0.0
 10
10.662484
 20
33.936930
 30
0.0
 10
10.574884
 20
33.876430
 30
0.0
 10
10.487284
 20
33.815930
 30
0.0
 10
10.399684
 20
33.755430
 30
0.0
 10
10.312084
 20
33.694930
 30
0.0
 10
10.224484
 20
33.634430
 30
0.0
 10
10.136884
 20
33.573930
 30
0.0
 10
10.049284
 20
33.513430
 30
0.0
 10
9.961684
 20
33.452930
 30
0.0
 10
9.874084
 20
33.392430
 30
0.0
 10
8.343994
 20
33.386430
 30
0.0
 10
6.813894
 20
33.380430
 30
0.0
 10
5.283804
 20
33.374430
 30
0.0
 10
3.753714
 20
33.368430
 30
0.0
 10
2.223624
 20
33.362430
 30
0.0
 10
0.693534
 20
33.356430
 30
0.0
 10
-0.836556
 20
33.350430
 30
0.0
 10
-2.366646
 20
33.344430
 30
0.0
 10
-3.896736
 20
33.338430
 30
0.0
 10
-5.426826
 20
33.332430
 30
0.0
 10
-6.956916
 20
33.326430
 30
0.0
 10
-8.487006
 20
33.320430
 30
0.0
 10
-10.017102
 20
33.314430
 30
0.0
 10
-11.547192
 20
33.308430
 30
0.0
 10
-13.077283
 20
33.302430
 30
0.0
 10
-14.607374
 20
33.296430
 30
0.0
 10
-14.704804
 20
33.362430
 30
0.0
 10
-14.802234
 20
33.428430
 30
0.0
 10
-14.899664
 20
33.494430
 30
0.0
 10
-14.997094
 20
33.560430
 30
0.0
 10
-15.094524
 20
33.626430
 30
0.0
 10
-15.191954
 20
33.692430
 30
0.0
 10
-15.289384
 20
33.758430
 30
0.0
 10
-15.386814
 20
33.824430
 30
0.0
 10
-15.484244
 20
33.890430
 30
0.0
 10
-15.581674
 20
33.956430
 30
0.0
 10
-15.679104
 20
34.022430
 30
0.0
 10
-15.776534
 20
34.088430
 30
0.0
 10
-15.873964
 20
34.154430
 30
0.0
 10
-15.971394
 20
34.220430
 30
0.0
 10
-16.068824
 20
34.286430
 30
0.0
 10
-16.166254
 20
34.352430
 30
0.0
 10
-17.687990
 20
34.352960
 30
0.0
 10
-19.209725
 20
34.353490
 30
0.0
 10
-20.731457
 20
34.354020
 30
0.0
 10
-22.253192
 20
34.354540
 30
0.0
 10
-23.774928
 20
34.355070
 30
0.0
 10
-25.296663
 20
34.355600
 30
0.0
 10
-26.818395
 20
34.356130
 30
0.0
 10
-28.340130
 20
34.356660
 30
0.0
 10
-29.861865
 20
34.357190
 30
0.0
 10
-31.383601
 20
34.357720
 30
0.0
 10
-32.905336
 20
34.358250
 30
0.0
 10
-34.427071
 20
34.358780
 30
0.0
 10
-35.948803
 20
34.359310
 30
0.0
 10
-37.470539
 20
34.359840
 30
0.0
 10
-38.992274
 20
34.360370
 30
0.0
 10
-40.514009
 20
34.360890
 30
0.0
 10
-41.032169
 20
34.028130
 30
0.0
 10
-41.550331
 20
33.695370
 30
0.0
 10
-42.068491
 20
33.362610
 30
0.0
 10
-42.586651
 20
33.029840
 30
0.0
 10
-43.104811
 20
32.697080
 30
0.0
 10
-43.622974
 20
32.364320
 30
0.0
 10
-44.141134
 20
32.031560
 30
0.0
 10
-44.659294
 20
31.698790
 30
0.0
 10
-45.927476
 20
30.880330
 30
0.0
 10
-46.935031
 20
30.219780
 30
0.0
 10
-47.702092
 20
29.702100
 30
0.0
 10
-48.248796
 20
29.312250
 30
0.0
 10
-48.595275
 20
29.035210
 30
0.0
 10
-48.761675
 20
28.855940
 30
0.0
 10
-48.768175
 20
28.759440
 30
0.0
 10
-48.634812
 20
28.730640
 30
0.0
 10
-48.457811
 20
28.681740
 30
0.0
 10
-48.242218
 20
28.547870
 30
0.0
 10
-48.005559
 20
28.348520
 30
0.0
 10
-47.765367
 20
28.103140
 30
0.0
 10
-47.539167
 20
27.831170
 30
0.0
 10
-47.344492
 20
27.552050
 30
0.0
 10
-47.198871
 20
27.285230
 30
0.0
 10
-47.119831
 20
27.050150
 30
0.0
 10
-47.080411
 20
26.745640
 30
0.0
 10
-47.089411
 20
26.442170
 30
0.0
 10
-47.160141
 20
26.108760
 30
0.0
 10
-47.306011
 20
25.714460
 30
0.0
 10
-47.540389
 20
25.228310
 30
0.0
 10
-47.876651
 20
24.619330
 30
0.0
 10
-48.328168
 20
23.856570
 30
0.0
 10
-48.908312
 20
22.909060
 30
0.0
 10
-49.212418
 20
22.408930
 30
0.0
 10
-49.489749
 20
21.937260
 30
0.0
 10
-49.734740
 20
21.504660
 30
0.0
 10
-49.941824
 20
21.121700
 30
0.0
 10
-50.105435
 20
20.799000
 30
0.0
 10
-50.220007
 20
20.547150
 30
0.0
 10
-50.279977
 20
20.376730
 30
0.0
 10
-50.279776
 20
20.298330
 30
0.0
 10
-50.221606
 20
20.266030
 30
0.0
 10
-50.115273
 20
20.227630
 30
0.0
 10
-49.966828
 20
20.184630
 30
0.0
 10
-49.782321
 20
20.138430
 30
0.0
 10
-49.567802
 20
20.090430
 30
0.0
 10
-49.329320
 20
20.042030
 30
0.0
 10
-49.072926
 20
19.994730
 30
0.0
 10
-48.804670
 20
19.949930
 30
0.0
 10
-47.660672
 20
19.723620
 30
0.0
 10
-46.473770
 20
19.403460
 30
0.0
 10
-45.261616
 20
18.997010
 30
0.0
 10
-44.041860
 20
18.511830
 30
0.0
 10
-42.832154
 20
17.955490
 30
0.0
 10
-41.650146
 20
17.335560
 30
0.0
 10
-40.513486
 20
16.659600
 30
0.0
 10
-39.439825
 20
15.935180
 30
0.0
 10
-38.754544
 20
15.404770
 30
0.0
 10
-38.012832
 20
14.765570
 30
0.0
 10
-37.242696
 20
14.046480
 30
0.0
 10
-36.472147
 20
13.276410
 30
0.0
 10
-35.729192
 20
12.484270
 30
0.0
 10
-35.041844
 20
11.698980
 30
0.0
 10
-34.438110
 20
10.949430
 30
0.0
 10
-33.946001
 20
10.264560
 30
0.0
 10
-32.948950
 20
8.634720
 30
0.0
 10
-32.096558
 20
6.966170
 30
0.0
 10
-31.389181
 20
5.260230
 30
0.0
 10
-30.827193
 20
3.518210
 30
0.0
 10
-30.410953
 20
1.741430
 30
0.0
 10
-30.140832
 20
-0.068800
 30
0.0
 10
-30.017190
 20
-1.911170
 30
0.0
 10
-30.040390
 20
-3.784360
 30
0.0
 10
-30.065760
 20
-4.244010
 30
0.0
 10
-30.094030
 20
-4.693640
 30
0.0
 10
-30.124240
 20
-5.121900
 30
0.0
 10
-30.155450
 20
-5.517490
 30
0.0
 10
-30.186710
 20
-5.869050
 30
0.0
 10
-30.217080
 20
-6.165280
 30
0.0
 10
-30.245600
 20
-6.394830
 30
0.0
 10
-30.271320
 20
-6.546380
 30
0.0
 10
-30.285870
 20
-6.612280
 30
0.0
 10
-30.300420
 20
-6.678180
 30
0.0
 10
-30.314970
 20
-6.744080
 30
0.0
 10
-30.329520
 20
-6.809980
 30
0.0
 10
-30.344070
 20
-6.875880
 30
0.0
 10
-30.358620
 20
-6.941780
 30
0.0
 10
-30.373170
 20
-7.007680
 30
0.0
 10
-30.387720
 20
-7.073580
 30
0.0
 10
-30.307880
 20
-7.003480
 30
0.0
 10
-30.228040
 20
-6.933380
 30
0.0
 10
-30.148200
 20
-6.863280
 30
0.0
 10
-30.068360
 20
-6.793180
 30
0.0
 10
-29.988520
 20
-6.723080
 30
0.0
 10
-29.908680
 20
-6.652980
 30
0.0
 10
-29.828840
 20
-6.582880
 30
0.0
 10
-29.749000
 20
-6.512780
 30
0.0
 10
-28.646794
 20
-5.633570
 30
0.0
 10
-27.440402
 20
-4.834390
 30
0.0
 10
-26.147677
 20
-4.122530
 30
0.0
 10
-24.786457
 20
-3.505260
 30
0.0
 10
-23.374590
 20
-2.989890
 30
0.0
 10
-21.929920
 20
-2.583700
 30
0.0
 10
-20.470293
 20
-2.293980
 30
0.0
 10
-19.013553
 20
-2.128020
 30
0.0
 10
-16.650191
 20
-2.129020
 30
0.0
 10
-14.310814
 20
-2.452020
 30
0.0
 10
-12.030767
 20
-3.079490
 30
0.0
 10
-9.845399
 20
-3.993950
 30
0.0
 10
-7.790056
 20
-5.177900
 30
0.0
 10
-5.900086
 20
-6.613840
 30
0.0
 10
-4.210836
 20
-8.284300
 30
0.0
 10
-2.757656
 20
-10.171780
 30
0.0
 10
-2.658756
 20
-10.320460
 30
0.0
 10
-2.559856
 20
-10.469140
 30
0.0
 10
-2.460956
 20
-10.617820
 30
0.0
 10
-2.362056
 20
-10.766500
 30
0.0
 10
-2.263156
 20
-10.915190
 30
0.0
 10
-2.164256
 20
-11.063870
 30
0.0
 10
-2.065356
 20
-11.212550
 30
0.0
 10
-1.966456
 20
-11.361230
 30
0.0
 10
-1.853556
 20
-11.192280
 30
0.0
 10
-1.740656
 20
-11.023320
 30
0.0
 10
-1.627766
 20
-10.854370
 30
0.0
 10
-1.514866
 20
-10.685410
 30
0.0
 10
-1.401966
 20
-10.516460
 30
0.0
 10
-1.289066
 20
-10.347500
 30
0.0
 10
-1.176166
 20
-10.178550
 30
0.0
 10
-1.063266
 20
-10.009600
 30
0.0
 10
-0.852636
 20
-9.709350
 30
0.0
 10
-0.599706
 20
-9.373720
 30
0.0
 10
-0.314036
 20
-9.014000
 30
0.0
 10
-0.005206
 20
-8.641530
 30
0.0
 10
0.372534
 20
-8.267610
 30
0.0
 10
0.791174
 20
-7.903570
 30
0.0
 10
1.130504
 20
-7.560720
 30
0.0
 10
1.270334
 20
-7.250380
 30
0.0
 10
1.270334
 20
-7.250380
 30
0.0
 10
1.270334
 20
-7.250380
 30
0.0
 10
1.270334
 20
-7.250380
 30
0.0
 10
1.270334
 20
-7.250380
 30
0.0
 10
1.270334
 20
-7.250380
 30
0.0
 10
1.270334
 20
-7.250380
 30
0.0
 10
1.270334
 20
-7.250380
 30
0.0
  0
ENDSEC
  0
SECTION
  2
OBJECTS
  0
DICTIONARY
  5
C
330
0
100
AcDbDictionary
  3
ACAD_GROUP
350
D
  3
ACAD_MLINESTYLE
350
17
  0
DICTIONARY
  5
D
330
C
100
AcDbDictionary
  0
DICTIONARY
  5
1A
330
C
100
AcDbDictionary
  0
DICTIONARY
  5
17
330
C
100
AcDbDictionary
  3
STANDARD
350
18
  0
DICTIONARY
  5
19
330
C
100
AcDbDictionary
  0
ENDSEC
  0
EOF
